<?xml version="1.0" encoding="UTF-8"?>
<svg width="512" height="512" version="1.1" viewBox="0 0 135.47 135.47" xmlns="http://www.w3.org/2000/svg" xmlns:cc="http://creativecommons.org/ns#" xmlns:dc="http://purl.org/dc/elements/1.1/" xmlns:rdf="http://www.w3.org/1999/02/22-rdf-syntax-ns#">
 <metadata>
  <rdf:RDF>
   <cc:Work rdf:about="">
    <dc:format>image/svg+xml</dc:format>
    <dc:type rdf:resource="http://purl.org/dc/dcmitype/StillImage"/>
    <dc:title/>
   </cc:Work>
  </rdf:RDF>
 </metadata>
 <g transform="matrix(.35008 0 0 .35061 29.157 32.749)">
  <path d="m61.815 39.604s-5.6424 0.1564-8.3827 1.5575c-12.65 6.4673-12.709 7.5313-21.126 9.3562 0 0-12.212-0.30312-16.12 2.2054-4.1713 2.6777-4.6711 11.094 6.4554 21.584 0.20696 0.19512-0.5965-18.162 39.181-17.557 39.778-0.60418 38.966 17.752 39.173 17.557 11.127-10.49 10.635-18.906 6.464-21.584-3.9077-2.5086-16.128-2.2054-16.128-2.2054-8.4162-1.8249-8.4837-2.8889-21.133-9.3562-2.7404-1.4011-8.3837-1.5575-8.3837-1.5575z" fill="#a35c2f"/>
  <path d="m58.704 58.586c-31.192 0.08652-33.291 15.633-33.29 15.809 0.01643 1.9326-0.12602 9.663-0.13434 10.42-0.1543 14.122 36.535 14.966 36.535 14.966s36.689-0.84408 36.535-14.966c-0.0083-0.7572-0.15077-8.4876-0.13434-10.42 0.0015-0.18116-2.2364-16.741-36.401-15.768-1.0676-0.03042-2.1044-0.04374-3.1106-0.04095z" fill="#a35c2f"/>
  <path d="m99.219 76.843c-9.2073-0.18125-11.315 0.83809-14.654 1.5456-3.4781 0.73709-6.7423 1.5995-9.5759 1.9889-3.5748 0.49131-13.175 0.64843-13.175 0.64843" fill="none" stroke="#7d4624" stroke-width="5.5172"/>
  <path d="m24.41 76.843c9.2073-0.18125 11.315 0.83809 14.654 1.5456 3.4781 0.73709 6.7423 1.5995 9.5759 1.9889 3.5748 0.49131 13.175 0.64843 13.175 0.64843" fill="none" stroke="#7d4624" stroke-width="5.5172"/>
  <circle cx="61.495" cy="69.994" r="7.9873" fill="#fbffff" opacity=".999" style="paint-order:stroke fill markers"/>
  <path d="m60.375 58.954c-6.4324-0.01279-32.365 0.85838-35.606 15.608-0.42136 1.9174-1.5594 7.4801 0.56321 10.542 1.2877 1.8577 8.2843 2.1285 15.336-0.52514 9.547-3.5927 18.933-3.202 21.157-3.1749 2.3618 0.03468 12.431-0.06459 21.135 3.1749 7.0613 2.6281 14.049 2.3828 15.337 0.52514 2.1226-3.0622 0.98457-8.6249 0.56321-10.542-3.7043-16.856-37.046-15.586-37.046-15.586s-0.52074-0.01975-1.4396-0.02155z" fill="none" stroke="#7d4624" stroke-linecap="round" stroke-width="5.5172"/>
 </g>
 <g transform="matrix(.5 0 0 .5 50.8 50.8)">
  <g transform="matrix(.5 0 0 .5 33.867 33.867)" shape-rendering="auto">
   <g fill="#fff">
    <path d="m3.9257 23.726a10.659 5.3153 26.298 0 0-1.9791 7.3216l10.568 12.067a10.659 5.3153 26.298 0 0 13.761 6.0272l105.18-8.623a10.659 5.3153 26.298 0 0 2.0692-7.3251l-1.9819-2.263a10.659 5.3153 26.298 0 1-0.09 0.0088l-105.18 8.623a10.659 5.3153 26.298 0 1-0.19974 0.0139 10.659 5.3153 26.298 0 1-0.20538 0.01051 10.659 5.3153 26.298 0 1-0.20959 0.0054 10.659 5.3153 26.298 0 1-0.21381 0.0017 10.659 5.3153 26.298 0 1-0.2152-0.0034 10.659 5.3153 26.298 0 1-0.21945-0.0071 10.659 5.3153 26.298 0 1-0.22225-0.01051 10.659 5.3153 26.298 0 1-0.22506-0.01593 10.659 5.3153 26.298 0 1-0.22788-0.02101 10.659 5.3153 26.298 0 1-0.22927-0.0244 10.659 5.3153 26.298 0 1-0.2321-0.02813 10.659 5.3153 26.298 0 1-0.23491-0.03322 10.659 5.3153 26.298 0 1-0.23771-0.03678 10.659 5.3153 26.298 0 1-0.23771-0.04027 10.659 5.3153 26.298 0 1-0.24054-0.04556 10.659 5.3153 26.298 0 1-0.24193-0.05081 10.659 5.3153 26.298 0 1-0.24335-0.05254 10.659 5.3153 26.298 0 1-0.24476-0.05779 10.659 5.3153 26.298 0 1-0.24615-0.06132 10.659 5.3153 26.298 0 1-0.24615-0.06657 10.659 5.3153 26.298 0 1-0.24756-0.07006 10.659 5.3153 26.298 0 1-0.24898-0.07355 10.659 5.3153 26.298 0 1-0.24898-0.07708 10.659 5.3153 26.298 0 1-0.24898-0.08057 10.659 5.3153 26.298 0 1-0.24898-0.08582 10.659 5.3153 26.298 0 1-0.24898-0.08758 10.659 5.3153 26.298 0 1-0.2504-0.09284 10.659 5.3153 26.298 0 1-0.24756-0.09633 10.659 5.3153 26.298 0 1-0.24898-0.09982 10.659 5.3153 26.298 0 1-0.24756-0.10158 10.659 5.3153 26.298 0 1-0.24757-0.10684 10.659 5.3153 26.298 0 1-0.24615-0.11036 10.659 5.3153 26.298 0 1-0.24476-0.11209 10.659 5.3153 26.298 0 1-0.24335-0.11562 10.659 5.3153 26.298 0 1-0.24335-0.11911 10.659 5.3153 26.298 0 1-0.24052-0.1226 10.659 5.3153 26.298 0 1-0.23913-0.12612 10.659 5.3153 26.298 0 1-0.23632-0.12785 10.659 5.3153 26.298 0 1-0.23491-0.12961 10.659 5.3153 26.298 0 1-0.23349-0.13487 10.659 5.3153 26.298 0 1-0.23069-0.13487 10.659 5.3153 26.298 0 1-0.22789-0.14012 10.659 5.3153 26.298 0 1-0.22647-0.14012 10.659 5.3153 26.298 0 1-0.22225-0.14361 10.659 5.3153 26.298 0 1-0.21945-0.14538 10.659 5.3153 26.298 0 1-0.21662-0.1489 10.659 5.3153 26.298 0 1-0.21381-0.14887 10.659 5.3153 26.298 0 1-0.21101-0.15239 10.659 5.3153 26.298 0 1-0.20676-0.15415 10.659 5.3153 26.298 0 1-0.20254-0.15588 10.659 5.3153 26.298 0 1-0.19974-0.15764 10.659 5.3153 26.298 0 1-0.19552-0.15765 10.659 5.3153 26.298 0 1-0.19272-0.16114 10.659 5.3153 26.298 0 1-0.18708-0.16114 10.659 5.3153 26.298 0 1-0.18286-0.1629 10.659 5.3153 26.298 0 1-0.18006-0.16466 10.659 5.3153 26.298 0 1-0.17442-0.16463 10.659 5.3153 26.298 0 1-0.17021-0.16639 10.659 5.3153 26.298 0 1-0.16457-0.16639 10.659 5.3153 26.298 0 1-0.16035-0.16815 10.659 5.3153 26.298 0 1-0.15613-0.16815 10.659 5.3153 26.298 0 1-0.1505-0.16988z" color="#000000" color-rendering="auto" dominant-baseline="auto" image-rendering="auto" opacity=".996" solid-color="#000000" stop-color="#000000" style="font-feature-settings:normal;font-variant-alternates:normal;font-variant-caps:normal;font-variant-east-asian:normal;font-variant-ligatures:normal;font-variant-numeric:normal;font-variant-position:normal;font-variation-settings:normal;inline-size:0;isolation:auto;mix-blend-mode:normal;paint-order:stroke fill markers;shape-margin:0;shape-padding:0;text-decoration-color:#000000;text-decoration-line:none;text-decoration-style:solid;text-indent:0;text-orientation:mixed;text-transform:none;white-space:normal"/>
    <path d="m4.0136 8.6552a10.659 5.3153 26.298 0 0-2.069 7.3249l10.571 12.072a10.659 5.3153 26.298 0 0 13.761 6.027l105.18-8.6234a10.659 5.3153 26.298 0 0 2.0743-7.3253l-10.571-12.072a10.659 5.3153 26.298 0 0-13.766-6.0266z" color="#000000" color-rendering="auto" dominant-baseline="auto" image-rendering="auto" opacity=".996" solid-color="#000000" stop-color="#000000" style="font-feature-settings:normal;font-variant-alternates:normal;font-variant-caps:normal;font-variant-east-asian:normal;font-variant-ligatures:normal;font-variant-numeric:normal;font-variant-position:normal;font-variation-settings:normal;inline-size:0;isolation:auto;mix-blend-mode:normal;paint-order:stroke fill markers;shape-margin:0;shape-padding:0;text-decoration-color:#000000;text-decoration-line:none;text-decoration-style:solid;text-indent:0;text-orientation:mixed;text-transform:none;white-space:normal"/>
    <path d="m3.9257 38.979c-2.0317-0.18961-4.9299 1.928-3.5796 4.8114 2.2842 4.0234 5.6916 6.851 8.465 10.348 3.4305 4.2169 7.2466 8.2618 12.117 9.5021 5.2599 1.6429 10.678-0.0051 16.008-0.12026 31.756-2.6266 63.518-5.161 95.27-7.8453 2.0197 0.05474 4.2285-2.4914 2.8126-4.9708-0.99275-1.7029-2.3361-3.7331-3.8389-4.4898-35.316 2.8571-70.627 5.867-105.95 8.6287-5.7467-0.24532-11.251-3.5865-15.14-8.8217-2.0558-2.3475-4.1117-4.6949-6.1675-7.0424z" color="#000000" color-rendering="auto" dominant-baseline="auto" image-rendering="auto" opacity=".996" solid-color="#000000" stop-color="#000000" style="font-feature-settings:normal;font-variant-alternates:normal;font-variant-caps:normal;font-variant-east-asian:normal;font-variant-ligatures:normal;font-variant-numeric:normal;font-variant-position:normal;font-variation-settings:normal;inline-size:0;isolation:auto;mix-blend-mode:normal;paint-order:stroke fill markers;shape-margin:0;shape-padding:0;text-decoration-color:#000000;text-decoration-line:none;text-decoration-style:solid;text-indent:0;text-orientation:mixed;text-transform:none;white-space:normal"/>
   </g>
   <path d="m3.536 54.876c-1.9876 0.08697-3.1757 1.6838-3.1902 4.8203v55.196c-0.002567 1.2194 5.6917 6.8513 8.4651 10.348 3.4305 4.2169 7.2463 8.262 12.117 9.5023 5.2599 1.6429 10.678-6e-3 16.007-0.12087 31.756-2.6266 63.518-5.161 95.27-7.8453 2.0197 0.0547 2.8478-1.9097 2.8133-4.971v-51.962c0.0174-1.3515 2e-3 -1.9498 0-3.2334 0.0114-0.68064-2.3358-3.7326-3.8387-4.4893-35.316 2.8571-70.627 5.8665-105.95 8.6282-5.7467-0.24533-11.25-3.5857-15.14-8.8209-2.0558-2.3475-4.1122-4.6956-6.1681-7.0431-0.12698-0.011864-0.25712-0.014575-0.38963-0.008813z" color="#000000" color-rendering="auto" dominant-baseline="auto" fill="#2d1a0d" image-rendering="auto" opacity=".996" solid-color="#000000" stop-color="#000000" style="font-feature-settings:normal;font-variant-alternates:normal;font-variant-caps:normal;font-variant-east-asian:normal;font-variant-ligatures:normal;font-variant-numeric:normal;font-variant-position:normal;font-variation-settings:normal;inline-size:0;isolation:auto;mix-blend-mode:normal;paint-order:stroke fill markers;shape-margin:0;shape-padding:0;text-decoration-color:#000000;text-decoration-line:none;text-decoration-style:solid;text-indent:0;text-orientation:mixed;text-transform:none;white-space:normal"/>
  </g>
 </g>
</svg>
