<?xml version="1.0" encoding="UTF-8"?>
<svg width="512" height="512" version="1.1" viewBox="0 0 135.47 135.47" xmlns="http://www.w3.org/2000/svg" xmlns:cc="http://creativecommons.org/ns#" xmlns:dc="http://purl.org/dc/elements/1.1/" xmlns:rdf="http://www.w3.org/1999/02/22-rdf-syntax-ns#">
 <metadata>
  <rdf:RDF>
   <cc:Work rdf:about="">
    <dc:format>image/svg+xml</dc:format>
    <dc:type rdf:resource="http://purl.org/dc/dcmitype/StillImage"/>
    <dc:title/>
   </cc:Work>
  </rdf:RDF>
 </metadata>
 <g transform="matrix(.57737 0 0 .57737 -3.8484 6.288)" fill="#2d1a0d" style="shape-inside:url(#rect2211);white-space:pre" aria-label="FASCISTS WIN I GUESS">
  <path d="m35.994 60.25v-20.269q0-6.2484 1.016-8.0264t4.318-4.826q3.3528-3.048 4.9784-3.048 2.2352 0 5.5372 1.778 3.302 1.778 4.9276 4.0132l-5.6388 3.9116q-2.8448-2.8448-4.572-2.8448-0.6604 0-1.524 0.8636-0.8636 0.8128-1.4732 1.778-0.5588 0.9144-0.5588 4.7244v1.1684h9.0932v6.1468h-9.0932v14.63z"/>
  <path d="m64.239 27.383q3.6068-3.302 5.4864-3.302t5.4864 3.302q3.6068 3.302 4.4704 5.4356 0.5588 1.4732 0.5588 6.6548v20.777h-7.0104v-7.62h-7.0104v7.62h-7.0104v-20.777q0-5.1816 0.5588-6.6548 0.8636-2.1336 4.4704-5.4356zm1.9812 12.09v7.0612h7.0104v-7.0612q0-4.1656-0.4064-5.08-0.4064-0.9652-1.4224-1.9812-0.9652-1.0668-1.6764-1.0668t-1.7272 1.0668q-0.9652 1.016-1.3716 1.9812-0.4064 0.9144-0.4064 5.08z"/>
  <path d="m104.52 45.925q0.5588 0.9144 0.5588 3.6576 0 2.6924-1.1176 4.572-1.016 1.4732-4.318 4.1148-3.302 2.5908-4.8768 2.5908-2.794 0-6.4008-2.8956-3.6068-2.9464-4.572-6.4516l5.6388-3.8608q0.8128 2.3876 2.5908 4.3688t2.4892 1.9812q0.762 0 1.5748-0.4572 0.8636-0.508 1.3208-1.016 0.6604-0.8128 0.6604-2.54t-0.8128-2.1336q-1.016-0.8636-3.9624-2.286-2.8956-1.4224-5.3848-3.048-2.4892-1.6764-3.2004-3.2512-0.6604-1.5748-0.6604-4.064 0-2.54 1.1176-4.4196 1.016-1.4732 4.318-4.064 3.302-2.6416 4.8768-2.6416 2.794 0 6.4008 2.9464 3.6068 2.8956 4.572 6.4008l-5.6388 3.9116q-0.8128-2.3876-2.5908-4.3688-1.778-2.032-2.54-2.032-0.7112 0-1.5748 0.4572t-1.4224 1.1684q-0.508 0.6604-0.508 2.3368 0 1.6256 1.016 2.1844 0.8128 0.7112 3.7084 2.2352 7.4168 4.064 8.7376 6.604z"/>
  <path d="m107.62 44.858v-4.7752q0-6.35 1.016-8.128t4.318-4.826q3.3528-3.048 4.9784-3.048 2.794 0 6.4008 3.2512 3.6068 3.2004 4.572 7.0612l-5.6388 3.9116q-0.8128-2.7432-2.5908-5.0292-1.778-2.3368-2.4892-2.3368-1.27 0-2.8956 2.4892-0.6604 0.9652-0.6604 6.6548v4.7752q0 5.842 0.6604 6.6548 1.6256 2.4892 2.8956 2.4892 0.7112 0 2.4892-1.9812 1.778-2.032 2.5908-4.4704l5.6388 3.9624q-0.9652 3.5052-4.572 6.4516-3.6068 2.8956-6.4008 2.8956-1.6256 0-4.9784-3.048-3.302-3.048-4.318-4.826t-1.016-8.128z"/>
  <path d="m133.53 60.25v-35.56h7.0104v35.56z"/>
  <path d="m165.13 45.925q0.5588 0.9144 0.5588 3.6576 0 2.6924-1.1176 4.572-1.016 1.4732-4.318 4.1148-3.302 2.5908-4.8768 2.5908-2.794 0-6.4008-2.8956-3.6068-2.9464-4.572-6.4516l5.6388-3.8608q0.8128 2.3876 2.5908 4.3688t2.4892 1.9812q0.762 0 1.5748-0.4572 0.8636-0.508 1.3208-1.016 0.6604-0.8128 0.6604-2.54t-0.8128-2.1336q-1.016-0.8636-3.9624-2.286-2.8956-1.4224-5.3848-3.048-2.4892-1.6764-3.2004-3.2512-0.6604-1.5748-0.6604-4.064 0-2.54 1.1176-4.4196 1.016-1.4732 4.318-4.064 3.302-2.6416 4.8768-2.6416 2.794 0 6.4008 2.9464 3.6068 2.8956 4.572 6.4008l-5.6388 3.9116q-0.8128-2.3876-2.5908-4.3688-1.778-2.032-2.54-2.032-0.7112 0-1.5748 0.4572t-1.4224 1.1684q-0.508 0.6604-0.508 2.3368 0 1.6256 1.016 2.1844 0.8128 0.7112 3.7084 2.2352 7.4168 4.064 8.7376 6.604z"/>
  <path d="m187.78 24.69v6.096h-6.604v29.464h-7.0104v-29.464h-6.604v-6.096z"/>
  <path d="m210.14 45.925q0.5588 0.9144 0.5588 3.6576 0 2.6924-1.1176 4.572-1.016 1.4732-4.318 4.1148-3.302 2.5908-4.8768 2.5908-2.794 0-6.4008-2.8956-3.6068-2.9464-4.572-6.4516l5.6388-3.8608q0.8128 2.3876 2.5908 4.3688t2.4892 1.9812q0.762 0 1.5748-0.4572 0.8636-0.508 1.3208-1.016 0.6604-0.8128 0.6604-2.54t-0.8128-2.1336q-1.016-0.8636-3.9624-2.286-2.8956-1.4224-5.3848-3.048-2.4892-1.6764-3.2004-3.2512-0.6604-1.5748-0.6604-4.064 0-2.54 1.1176-4.4196 1.016-1.4732 4.318-4.064 3.302-2.6416 4.8768-2.6416 2.794 0 6.4008 2.9464 3.6068 2.8956 4.572 6.4008l-5.6388 3.9116q-0.8128-2.3876-2.5908-4.3688-1.778-2.032-2.54-2.032-0.7112 0-1.5748 0.4572t-1.4224 1.1684q-0.508 0.6604-0.508 2.3368 0 1.6256 1.016 2.1844 0.8128 0.7112 3.7084 2.2352 7.4168 4.064 8.7376 6.604z"/>
  <path d="m106.4 88.643v19.253q0 2.8448 0.3048 4.3688 0.3556 1.4732 1.3716 3.4036 1.016 1.8796 1.3716 1.8796 0.4064 0 1.4224-1.8796 1.016-1.9304 1.3716-3.4036 0.3556-1.524 0.3556-4.3688v-5.4356q0-4.2672-0.6096-5.9436-0.5588-1.7272-2.4384-4.2164l6.096-4.2672q1.6256 1.1176 2.794 4.1656t1.1684 7.3152v8.382q0 3.9624-0.762 6.5532-0.762 2.54-4.2164 6.4516-3.4036 3.9116-5.1308 3.9116-1.0668 0-2.9972-1.9304-1.8796-1.9304-3.6068-4.5212-1.8288 2.6416-3.7084 4.572-1.8288 1.8796-2.8956 1.8796-1.7272 0-5.1816-3.9116-3.4036-3.9116-4.1656-6.4516-0.762-2.5908-0.762-6.5532v-19.253h7.0104v19.253q0 3.302 0.3556 4.572t1.3716 3.2004q1.016 1.8796 1.3716 1.8796 0.4064 0 1.4224-1.8796 1.016-1.9304 1.3208-3.4036 0.3556-1.524 0.3556-4.3688v-19.253z"/>
  <path d="m124.23 124.2v-35.56h7.0104v35.56z"/>
  <path d="m144.6 97.33 0.0508 2.1844v24.689h-7.0104v-21.742q0-4.2672-0.6096-5.9944-0.5588-1.7272-2.4384-4.1656l6.096-4.2672q1.4732 0.9652 2.7432 3.302 4.0132-3.302 5.4356-3.302t4.4704 2.6924q3.0988 2.6416 3.8608 3.7592 0.762 1.0668 0.762 2.8448v26.873h-7.0612v-25.857q0-0.4572-0.4064-1.1176-0.3556-0.7112-1.1684-1.5748-0.762-0.8636-1.4732-0.8636-0.6604 0-1.6764 0.8128-1.016 0.762-1.5748 1.7272z"/>
  <path d="m51.539 188.16v-35.56h7.0104v35.56z"/>
  <path d="m82.374 167.99v5.3848q0 4.1656 0.4064 5.1308 0.4064 0.9144 1.3716 1.9812 1.016 1.016 1.778 1.016t1.9304-1.0668q1.1684-1.0668 1.6256-1.9304 0.3048-0.8636 0.3556-2.54h-3.5052v-5.6388h10.109v17.831h-4.9276l-0.6096-3.4544q-3.5052 4.064-5.1816 4.064t-5.334-3.302q-3.6068-3.3528-4.4704-5.4356-0.5588-1.3208-0.5588-6.6548v-5.3848q0-6.35 1.016-8.128t4.318-4.826q3.3528-3.048 4.9784-3.048 2.794 0 6.4008 3.2512t4.572 7.112l-5.6388 3.9116q-0.8128-2.7432-2.5908-5.08-1.778-2.3368-2.4892-2.3368-1.27 0-2.8956 2.4892-0.6604 0.9652-0.6604 6.6548z"/>
  <path d="m123.06 152.6v20.777q0 5.334-0.5588 6.6548-0.8636 2.0828-4.5212 5.4356-3.6068 3.302-5.4356 3.302t-5.4864-3.302q-3.6068-3.3528-4.4704-5.4356-0.5588-1.3208-0.5588-6.6548v-7.366q0-4.1148-0.6096-5.7912-0.5588-1.6764-2.4384-3.9624l6.096-4.2672q1.6256 1.0668 2.794 4.1656 1.1684 3.048 1.1684 7.3152v9.906q0 4.1656 0.4064 5.1308 0.4064 0.9144 1.3716 1.9812 1.016 1.016 1.7272 1.016t1.6764-1.016q1.016-1.0668 1.4224-1.9812 0.4064-0.9652 0.4064-5.1308v-20.777z"/>
  <path d="m135.16 166.52h9.0932v6.1468h-9.0932v9.3472h12.141v6.1468h-19.152v-31.293l7.0104-4.8768h11.328v6.1976h-9.4488l-1.8796 1.3208z"/>
  <path d="m170.31 173.83q0.5588 0.9144 0.5588 3.6576 0 2.6924-1.1176 4.572-1.016 1.4732-4.318 4.1148-3.302 2.5908-4.8768 2.5908-2.794 0-6.4008-2.8956-3.6068-2.9464-4.572-6.4516l5.6388-3.8608q0.8128 2.3876 2.5908 4.3688t2.4892 1.9812q0.762 0 1.5748-0.4572 0.8636-0.508 1.3208-1.016 0.6604-0.8128 0.6604-2.54t-0.8128-2.1336q-1.016-0.8636-3.9624-2.286-2.8956-1.4224-5.3848-3.048-2.4892-1.6764-3.2004-3.2512-0.6604-1.5748-0.6604-4.064 0-2.54 1.1176-4.4196 1.016-1.4732 4.318-4.064 3.302-2.6416 4.8768-2.6416 2.794 0 6.4008 2.9464 3.6068 2.8956 4.572 6.4008l-5.6388 3.9116q-0.8128-2.3876-2.5908-4.3688-1.778-2.032-2.54-2.032-0.7112 0-1.5748 0.4572t-1.4224 1.1684q-0.508 0.6604-0.508 2.3368 0 1.6256 1.016 2.1844 0.8128 0.7112 3.7084 2.2352 7.4168 4.064 8.7376 6.604z"/>
  <path d="m193.88 173.83q0.5588 0.9144 0.5588 3.6576 0 2.6924-1.1176 4.572-1.016 1.4732-4.318 4.1148-3.302 2.5908-4.8768 2.5908-2.794 0-6.4008-2.8956-3.6068-2.9464-4.572-6.4516l5.6388-3.8608q0.8128 2.3876 2.5908 4.3688t2.4892 1.9812q0.762 0 1.5748-0.4572 0.8636-0.508 1.3208-1.016 0.6604-0.8128 0.6604-2.54t-0.8128-2.1336q-1.016-0.8636-3.9624-2.286-2.8956-1.4224-5.3848-3.048-2.4892-1.6764-3.2004-3.2512-0.6604-1.5748-0.6604-4.064 0-2.54 1.1176-4.4196 1.016-1.4732 4.318-4.064 3.302-2.6416 4.8768-2.6416 2.794 0 6.4008 2.9464 3.6068 2.8956 4.572 6.4008l-5.6388 3.9116q-0.8128-2.3876-2.5908-4.3688-1.778-2.032-2.54-2.032-0.7112 0-1.5748 0.4572t-1.4224 1.1684q-0.508 0.6604-0.508 2.3368 0 1.6256 1.016 2.1844 0.8128 0.7112 3.7084 2.2352 7.4168 4.064 8.7376 6.604z"/>
 </g>
</svg>
