<?xml version="1.0" encoding="UTF-8"?>
<svg width="512" height="512" version="1.1" viewBox="0 0 135.47 135.47" xmlns="http://www.w3.org/2000/svg" xmlns:cc="http://creativecommons.org/ns#" xmlns:dc="http://purl.org/dc/elements/1.1/" xmlns:rdf="http://www.w3.org/1999/02/22-rdf-syntax-ns#">
 <metadata>
  <rdf:RDF>
   <cc:Work rdf:about="">
    <dc:format>image/svg+xml</dc:format>
    <dc:type rdf:resource="http://purl.org/dc/dcmitype/StillImage"/>
    <dc:title/>
   </cc:Work>
  </rdf:RDF>
 </metadata>
 <g fill="#8b0000" stroke-width=".256">
  <path id="hammer_head" class="st0" d="m48.472 34.561-23.885 22.733 12.723 12.723 11.008-11.059c21.453 21.76 38.119 38.682 58.829 59.7 5.7344 5.9392 15.718-2.1504 9.3184-9.0112-21.888-21.325-37.043-36.711-59.853-59.059l13.517-13.594z"/>
  <path id="sickle_handle" class="st0" d="m47.653 98.356c42.727 39.655 111.97-31.821 23.475-83.61 65.844 73.165 2.6368 95.591-20.25 73.012l-1.152-0.9472c-0.9472 1.0496-1.8688 2.0992-2.816 3.1488-1.7664-1.664-4.5312-2.176-5.376 0.6912-3.4816-0.2304-5.5296 1.6896-6.4512 5.2992-6.4768 4.3008-13.491 8.064-17.536 14.797-2.304 7.1424 2.2528 10.24 7.3984 9.6512 8.448-3.5072 11.059-11.11 15.59-17.357 3.2-1.024 5.9136-2.3808 6.4-5.2992"/>
 </g>
</svg>
