<?xml version="1.0" encoding="UTF-8"?>
<svg width="512" height="742.4" version="1.1" viewBox="0 0 135.47 196.43" xmlns="http://www.w3.org/2000/svg" xmlns:cc="http://creativecommons.org/ns#" xmlns:dc="http://purl.org/dc/elements/1.1/" xmlns:rdf="http://www.w3.org/1999/02/22-rdf-syntax-ns#">
 <metadata>
  <rdf:RDF>
   <cc:Work rdf:about="">
    <dc:format>image/svg+xml</dc:format>
    <dc:type rdf:resource="http://purl.org/dc/dcmitype/StillImage"/>
    <dc:title/>
   </cc:Work>
  </rdf:RDF>
 </metadata>
 <g>
  <rect width="135.47" height="196.43" fill="#fff" opacity=".999"/>
  <rect x="9.525" y="9.525" width="116.42" height="177.38" rx="8.6094" ry="8.5616" fill="#d60e00" opacity=".999"/>
  <path d="m93.133 19.05 23.283 23.283v135.04h-97.367v-158.33z" fill="#fff" opacity=".999"/>
 </g>
 <path d="m93.133 42.333h23.283l-23.283-23.283z" fill="none" stroke="#d60e00" stroke-linejoin="round" stroke-width="4.2333"/>
 <g fill="#d60e00">
  <g transform="matrix(.91164 0 0 .91164 5.9847 6.531)" stroke="#d60e00" stroke-linejoin="round" stroke-width="1.7504">
   <ellipse transform="translate(-13.082 -17.31)" cx="34.515" cy="133.45" rx=".71231" ry=".7123" opacity=".999"/>
   <ellipse transform="translate(-6.9082 -17.298)" cx="34.515" cy="133.45" rx=".71231" ry=".7123" opacity=".999"/>
   <ellipse transform="translate(-.73485 -17.287)" cx="34.515" cy="133.45" rx=".71231" ry=".7123" opacity=".999"/>
   <ellipse transform="translate(5.4385 -17.275)" cx="34.515" cy="133.45" rx=".71231" ry=".7123" opacity=".999"/>
   <ellipse transform="translate(11.612 -17.264)" cx="34.515" cy="133.45" rx=".71231" ry=".7123" opacity=".999"/>
   <ellipse transform="translate(17.785 -17.252)" cx="34.515" cy="133.45" rx=".71231" ry=".7123" opacity=".999"/>
   <ellipse transform="translate(23.958 -17.241)" cx="34.515" cy="133.45" rx=".71231" ry=".7123" opacity=".999"/>
   <ellipse transform="translate(30.132 -17.229)" cx="34.515" cy="133.45" rx=".71231" ry=".7123" opacity=".999"/>
   <ellipse transform="translate(36.305 -17.218)" cx="34.515" cy="133.45" rx=".71231" ry=".7123" opacity=".999"/>
   <ellipse transform="translate(42.478 -17.206)" cx="34.515" cy="133.45" rx=".71231" ry=".7123" opacity=".999"/>
   <ellipse transform="translate(48.652 -17.195)" cx="34.515" cy="133.45" rx=".71231" ry=".7123" opacity=".999"/>
   <ellipse transform="translate(54.825 -17.184)" cx="34.515" cy="133.45" rx=".71231" ry=".7123" opacity=".999"/>
   <ellipse transform="translate(60.998 -17.172)" cx="34.515" cy="133.45" rx=".71231" ry=".7123" opacity=".999"/>
   <ellipse transform="translate(67.172 -17.16)" cx="34.515" cy="133.45" rx=".71231" ry=".7123" opacity=".999"/>
   <ellipse transform="translate(73.345 -17.149)" cx="34.515" cy="133.45" rx=".71231" ry=".7123" opacity=".999"/>
   <ellipse transform="translate(79.518 -17.138)" cx="34.515" cy="133.45" rx=".71231" ry=".7123" opacity=".999"/>
   <ellipse transform="translate(-13.082 -17.31)" cx="34.515" cy="133.45" rx=".71231" ry=".7123" opacity=".999"/>
   <ellipse transform="translate(-6.9082 -17.298)" cx="34.515" cy="133.45" rx=".71231" ry=".7123" opacity=".999"/>
   <ellipse transform="translate(-.73488 -17.287)" cx="34.515" cy="133.45" rx=".71231" ry=".7123" opacity=".999"/>
   <ellipse transform="translate(5.4384 -17.276)" cx="34.515" cy="133.45" rx=".71231" ry=".7123" opacity=".999"/>
   <ellipse transform="translate(11.612 -17.264)" cx="34.515" cy="133.45" rx=".71231" ry=".7123" opacity=".999"/>
   <ellipse transform="translate(17.785 -17.253)" cx="34.515" cy="133.45" rx=".71231" ry=".7123" opacity=".999"/>
   <ellipse transform="translate(23.958 -17.241)" cx="34.515" cy="133.45" rx=".71231" ry=".7123" opacity=".999"/>
   <ellipse transform="translate(30.132 -17.23)" cx="34.515" cy="133.45" rx=".71231" ry=".7123" opacity=".999"/>
   <ellipse transform="translate(36.305 -17.218)" cx="34.515" cy="133.45" rx=".71231" ry=".7123" opacity=".999"/>
   <ellipse transform="translate(42.478 -17.207)" cx="34.515" cy="133.45" rx=".71231" ry=".7123" opacity=".999"/>
   <ellipse transform="translate(48.652 -17.195)" cx="34.515" cy="133.45" rx=".71231" ry=".7123" opacity=".999"/>
   <ellipse transform="translate(54.825 -17.184)" cx="34.515" cy="133.45" rx=".71231" ry=".7123" opacity=".999"/>
   <ellipse transform="translate(60.998 -17.172)" cx="34.515" cy="133.45" rx=".71231" ry=".7123" opacity=".999"/>
   <ellipse transform="translate(67.172 -17.161)" cx="34.515" cy="133.45" rx=".71231" ry=".7123" opacity=".999"/>
   <ellipse transform="translate(73.345 -17.15)" cx="34.515" cy="133.45" rx=".71231" ry=".7123" opacity=".999"/>
  </g>
  <g transform="matrix(1.8076 0 0 1.8076 -18.178 -49.865)" style="shape-inside:url(#rect3828);white-space:pre" aria-label="COMMUNIST">
   <path d="m23.376 83.688v-0.99483q0-1.3229 0.21167-1.6933 0.21167-0.37042 0.89958-1.0054 0.6985-0.635 1.0372-0.635 0.58208 0 1.3335 0.67733 0.75141 0.66675 0.9525 1.4711l-1.1747 0.81491q-0.16933-0.5715-0.53975-1.0477-0.37042-0.48683-0.51858-0.48683-0.26458 0-0.60325 0.51858-0.13758 0.20108-0.13758 1.3864v0.99483q0 1.2171 0.13758 1.3864 0.33866 0.51858 0.60325 0.51858 0.14817 0 0.51858-0.41275 0.37042-0.42333 0.53975-0.93133l1.1747 0.8255q-0.20108 0.73025-0.9525 1.3441-0.75141 0.60325-1.3335 0.60325-0.33866 0-1.0372-0.635-0.68791-0.635-0.89958-1.0054-0.21167-0.37042-0.21167-1.6933z"/>
   <path d="m31.768 86.334q-0.75141 0.68792-1.1324 0.68792t-1.143-0.68792q-0.75142-0.6985-0.93133-1.1324-0.11642-0.27516-0.11642-1.3864v-1.2488q0-1.1112 0.11642-1.3864 0.17992-0.43392 0.93133-1.1218 0.762-0.6985 1.143-0.6985t1.1324 0.6985q0.762 0.68791 0.94191 1.1218 0.11642 0.27517 0.11642 1.3864v1.2488q0 1.1112-0.11642 1.3864-0.17992 0.43392-0.94191 1.1324zm-1.4922-1.0372q0.21167 0.21167 0.35983 0.21167t0.34925-0.21167q0.21167-0.22225 0.29633-0.41275 0.08467-0.20108 0.08467-1.0689v-1.2488q0-0.86783-0.08467-1.0583-0.08467-0.20108-0.29633-0.41275-0.20108-0.22225-0.34925-0.22225t-0.35983 0.22225q-0.20108 0.21167-0.28575 0.41275-0.08467 0.1905-0.08467 1.0583v1.2488q0 0.86783 0.08467 1.0689 0.08467 0.1905 0.28575 0.41275z"/>
   <path d="m36.372 86.895v-5.3869q0-0.17992-0.07408-0.29633-0.0635-0.127-0.22225-0.28575-0.15875-0.15875-0.254-0.15875-0.21167 0-0.56092 0.42333 0.03175 0.26458 0.03175 0.56092v5.1435h-1.4605v-4.5297q0-0.89958-0.127-1.2594-0.11642-0.35983-0.508-0.85725l1.27-0.889q0.33866 0.24342 0.48683 0.58208 0.762-0.58208 1.0795-0.58208t1.1959 0.81491q0.87841-0.81491 1.2382-0.81491 0.26458 0 0.89958 0.56092 0.64558 0.55033 0.80433 0.78316 0.15875 0.22225 0.15875 0.59266v5.5986h-1.4605v-5.3869q0-0.20108-0.07408-0.30692-0.07408-0.11642-0.254-0.27517-0.16933-0.15875-0.30692-0.15875-0.127 0-0.41275 0.34925 0.01058 0.05292 0.01058 0.17992v5.5986z"/>
   <path d="m44.14 86.895v-5.3869q0-0.17992-0.07408-0.29633-0.0635-0.127-0.22225-0.28575-0.15875-0.15875-0.254-0.15875-0.21167 0-0.56092 0.42333 0.03175 0.26458 0.03175 0.56092v5.1435h-1.4605v-4.5297q0-0.89958-0.127-1.2594-0.11642-0.35983-0.508-0.85725l1.27-0.889q0.33866 0.24342 0.48683 0.58208 0.762-0.58208 1.0795-0.58208t1.1959 0.81491q0.87841-0.81491 1.2382-0.81491 0.26458 0 0.89958 0.56092 0.64558 0.55033 0.80433 0.78316 0.15875 0.22225 0.15875 0.59266v5.5986h-1.4605v-5.3869q0-0.20108-0.07408-0.30692-0.07408-0.11642-0.254-0.27517-0.16933-0.15875-0.30692-0.15875-0.127 0-0.41275 0.34925 0.01058 0.05292 0.01058 0.17992v5.5986z"/>
   <path d="m53.75 79.487v4.3286q0 1.1112-0.11642 1.3864-0.17992 0.43392-0.94191 1.1324-0.75141 0.68792-1.1324 0.68792t-1.143-0.68792q-0.75142-0.6985-0.93133-1.1324-0.11642-0.27516-0.11642-1.3864v-1.5346q0-0.85725-0.127-1.2065-0.11642-0.34925-0.508-0.8255l1.27-0.889q0.33866 0.22225 0.58208 0.86783 0.24342 0.635 0.24342 1.524v2.0637q0 0.86783 0.08467 1.0689 0.08467 0.1905 0.28575 0.41275 0.21167 0.21167 0.35983 0.21167t0.34925-0.21167q0.21167-0.22225 0.29633-0.41275 0.08467-0.20108 0.08467-1.0689v-4.3286z"/>
   <path d="m56.47 81.296 0.01058 0.45508v5.1435h-1.4605v-4.5297q0-0.889-0.127-1.2488-0.11642-0.35983-0.508-0.86783l1.27-0.889q0.30692 0.20108 0.5715 0.68791 0.83608-0.68791 1.1324-0.68791 0.29633 0 0.93133 0.56092 0.64558 0.55033 0.80433 0.78316 0.15875 0.22225 0.15875 0.59266v5.5986h-1.4711v-5.3869q0-0.09525-0.08467-0.23283-0.07408-0.14817-0.24342-0.32808-0.15875-0.17992-0.30692-0.17992-0.13758 0-0.34925 0.16933-0.21167 0.15875-0.32808 0.35983z"/>
   <path d="m60.375 86.895v-7.4083h1.4605v7.4083z"/>
   <path d="m66.958 83.91q0.11642 0.1905 0.11642 0.762 0 0.56092-0.23283 0.9525-0.21167 0.30692-0.89958 0.85725-0.68792 0.53975-1.016 0.53975-0.58208 0-1.3335-0.60325-0.75141-0.61383-0.9525-1.3441l1.1747-0.80433q0.16933 0.49742 0.53975 0.91016 0.37042 0.41275 0.51858 0.41275 0.15875 0 0.32808-0.09525 0.17992-0.10583 0.27517-0.21167 0.13758-0.16933 0.13758-0.52916t-0.16933-0.4445q-0.21167-0.17992-0.8255-0.47625-0.60325-0.29633-1.1218-0.635-0.51858-0.34925-0.66675-0.67733-0.13758-0.32808-0.13758-0.84666 0-0.52916 0.23283-0.92075 0.21167-0.30692 0.89958-0.84666 0.68791-0.55033 1.016-0.55033 0.58208 0 1.3335 0.61383 0.75142 0.60325 0.9525 1.3335l-1.1747 0.81491q-0.16933-0.49742-0.53975-0.91016-0.37042-0.42333-0.52916-0.42333-0.14817 0-0.32808 0.09525-0.17992 0.09525-0.29633 0.24342-0.10583 0.13758-0.10583 0.48683 0 0.33866 0.21167 0.45508 0.16933 0.14817 0.77258 0.46566 1.5452 0.84666 1.8203 1.3758z"/>
   <path d="m71.678 79.487v1.27h-1.3758v6.1383h-1.4605v-6.1383h-1.3758v-1.27z"/>
  </g>
  <g transform="translate(.41899 -.66209)" style="shape-inside:url(#rect3838);white-space:pre" aria-label="ARTICLE">
   <path d="m28.877 125.03-0.60289-1.7363h-2.59l-0.60289 1.7363h-1.4228l2.4791-6.7958h1.6784l2.4694 6.7958zm-0.92122-2.8071-0.67042-1.9534-0.30868-0.98874q-0.07717 0.27974-0.14469 0.5016-0.06752 0.22187-0.82958 2.4405z"/>
   <path d="m35.875 125.03-1.5772-2.5804h-1.6688v2.5804h-1.4228v-6.7958h3.3955q1.2154 0 1.8762 0.52572 0.66077 0.5209 0.66077 1.5 0 0.71383-0.40514 1.2347-0.40514 0.51608-1.0949 0.68007l1.8376 2.8553zm-0.16881-4.7122q0-0.9791-1.254-0.9791h-1.8231v2.0064h1.8617q0.59807 0 0.90675-0.2701 0.30868-0.27009 0.30868-0.75723z"/>
   <path d="m41.407 119.34v5.6961h-1.4228v-5.6961h-2.1945v-1.0997h5.8167v1.0997z"/>
   <path d="m44.373 125.03v-6.7958h1.4228v6.7958z"/>
   <path d="m50.291 124.01q1.2878 0 1.7894-1.2926l1.2395 0.46784q-0.40032 0.98392-1.1768 1.4662-0.7717 0.47749-1.8521 0.47749-1.6399 0-2.537-0.92605-0.89228-0.93086-0.89228-2.5997 0-1.6736 0.86334-2.5707 0.86334-0.8971 2.5032-0.8971 1.1961 0 1.9485 0.48231 0.75241 0.47749 1.0563 1.4084l-1.254 0.34244q-0.15916-0.51125-0.62701-0.81029-0.46302-0.30385-1.0949-0.30385-0.96463 0-1.4662 0.59807-0.49678 0.59806-0.49678 1.7508 0 1.172 0.51125 1.7894 0.51608 0.61736 1.4855 0.61736z"/>
   <path d="m54.251 125.03v-6.7958h1.4228v5.6961h3.6463v1.0997z"/>
   <path d="m60.285 125.03v-6.7958h5.344v1.0997h-3.9212v1.7074h3.627v1.0997h-3.627v1.7894h4.119v1.0997z"/>
  </g>
  <rect x="71.702" y="117.48" width="39.688" height="1.5875" opacity=".999"/>
  <rect x="71.702" y="122.77" width="39.688" height="1.5875" opacity=".999"/>
  <rect x="24.077" y="128.06" width="87.312" height="1.5875" opacity=".999"/>
  <rect x="24.077" y="133.35" width="87.312" height="1.5875" opacity=".999"/>
  <rect x="24.077" y="138.64" width="66.146" height="1.5875" opacity=".999"/>
  <rect x="24.077" y="149.23" width="87.312" height="1.5875" opacity=".999"/>
  <rect x="24.077" y="154.52" width="87.312" height="1.5875" opacity=".999"/>
  <rect x="24.077" y="159.81" width="87.312" height="1.5875" opacity=".999"/>
  <g transform="matrix(.44271 0 0 .44271 37.747 27.338)" stroke-width=".256">
   <path id="hammer_head" class="st0" d="m48.472 34.561-23.885 22.733 12.723 12.723 11.008-11.059c21.453 21.76 38.119 38.682 58.829 59.7 5.7344 5.9392 15.718-2.1504 9.3184-9.0112-21.888-21.325-37.043-36.711-59.853-59.059l13.517-13.594z"/>
   <path id="sickle_handle" class="st0" d="m47.653 98.356c42.727 39.655 111.97-31.821 23.475-83.61 65.844 73.165 2.6368 95.591-20.25 73.012l-1.152-0.9472c-0.9472 1.0496-1.8688 2.0992-2.816 3.1488-1.7664-1.664-4.5312-2.176-5.376 0.6912-3.4816-0.2304-5.5296 1.6896-6.4512 5.2992-6.4768 4.3008-13.491 8.064-17.536 14.797-2.304 7.1424 2.2528 10.24 7.3984 9.6512 8.448-3.5072 11.059-11.11 15.59-17.357 3.2-1.024 5.9136-2.3808 6.4-5.2992"/>
  </g>
  <rect x="24.077" y="165.1" width="87.312" height="1.5875" opacity=".999"/>
 </g>
</svg>
