<?xml version="1.0" encoding="UTF-8"?>
<svg width="512" height="742.4" version="1.1" viewBox="0 0 135.47 196.43" xmlns="http://www.w3.org/2000/svg" xmlns:cc="http://creativecommons.org/ns#" xmlns:dc="http://purl.org/dc/elements/1.1/" xmlns:rdf="http://www.w3.org/1999/02/22-rdf-syntax-ns#">
 <metadata>
  <rdf:RDF>
   <cc:Work rdf:about="">
    <dc:format>image/svg+xml</dc:format>
    <dc:type rdf:resource="http://purl.org/dc/dcmitype/StillImage"/>
    <dc:title/>
   </cc:Work>
  </rdf:RDF>
 </metadata>
 <g>
  <rect width="135.47" height="196.43" fill="#fff" opacity=".999"/>
  <rect x="9.525" y="9.525" width="116.42" height="177.38" rx="8.6094" ry="8.5616" fill="#a35c2f" opacity=".999"/>
  <path d="m93.133 19.05 23.283 23.283v135.04h-97.367v-158.33z" fill="#fff" opacity=".999"/>
 </g>
 <path d="m93.133 42.333h23.283l-23.283-23.283z" fill="none" stroke="#a35c2f" stroke-linejoin="round" stroke-width="4.2333"/>
 <g fill="#a35c2f">
  <g transform="matrix(.91164 0 0 .91164 5.9847 6.531)" stroke="#a35c2f" stroke-linejoin="round" stroke-width="1.7504">
   <ellipse transform="translate(-13.082 -17.31)" cx="34.515" cy="133.45" rx=".71231" ry=".7123" opacity=".999"/>
   <ellipse transform="translate(-6.9082 -17.298)" cx="34.515" cy="133.45" rx=".71231" ry=".7123" opacity=".999"/>
   <ellipse transform="translate(-.73485 -17.287)" cx="34.515" cy="133.45" rx=".71231" ry=".7123" opacity=".999"/>
   <ellipse transform="translate(5.4385 -17.275)" cx="34.515" cy="133.45" rx=".71231" ry=".7123" opacity=".999"/>
   <ellipse transform="translate(11.612 -17.264)" cx="34.515" cy="133.45" rx=".71231" ry=".7123" opacity=".999"/>
   <ellipse transform="translate(17.785 -17.252)" cx="34.515" cy="133.45" rx=".71231" ry=".7123" opacity=".999"/>
   <ellipse transform="translate(23.958 -17.241)" cx="34.515" cy="133.45" rx=".71231" ry=".7123" opacity=".999"/>
   <ellipse transform="translate(30.132 -17.229)" cx="34.515" cy="133.45" rx=".71231" ry=".7123" opacity=".999"/>
   <ellipse transform="translate(36.305 -17.218)" cx="34.515" cy="133.45" rx=".71231" ry=".7123" opacity=".999"/>
   <ellipse transform="translate(42.478 -17.206)" cx="34.515" cy="133.45" rx=".71231" ry=".7123" opacity=".999"/>
   <ellipse transform="translate(48.652 -17.195)" cx="34.515" cy="133.45" rx=".71231" ry=".7123" opacity=".999"/>
   <ellipse transform="translate(54.825 -17.184)" cx="34.515" cy="133.45" rx=".71231" ry=".7123" opacity=".999"/>
   <ellipse transform="translate(60.998 -17.172)" cx="34.515" cy="133.45" rx=".71231" ry=".7123" opacity=".999"/>
   <ellipse transform="translate(67.172 -17.16)" cx="34.515" cy="133.45" rx=".71231" ry=".7123" opacity=".999"/>
   <ellipse transform="translate(73.345 -17.149)" cx="34.515" cy="133.45" rx=".71231" ry=".7123" opacity=".999"/>
   <ellipse transform="translate(79.518 -17.138)" cx="34.515" cy="133.45" rx=".71231" ry=".7123" opacity=".999"/>
   <ellipse transform="translate(-13.082 -17.31)" cx="34.515" cy="133.45" rx=".71231" ry=".7123" opacity=".999"/>
   <ellipse transform="translate(-6.9082 -17.298)" cx="34.515" cy="133.45" rx=".71231" ry=".7123" opacity=".999"/>
   <ellipse transform="translate(-.73488 -17.287)" cx="34.515" cy="133.45" rx=".71231" ry=".7123" opacity=".999"/>
   <ellipse transform="translate(5.4384 -17.276)" cx="34.515" cy="133.45" rx=".71231" ry=".7123" opacity=".999"/>
   <ellipse transform="translate(11.612 -17.264)" cx="34.515" cy="133.45" rx=".71231" ry=".7123" opacity=".999"/>
   <ellipse transform="translate(17.785 -17.253)" cx="34.515" cy="133.45" rx=".71231" ry=".7123" opacity=".999"/>
   <ellipse transform="translate(23.958 -17.241)" cx="34.515" cy="133.45" rx=".71231" ry=".7123" opacity=".999"/>
   <ellipse transform="translate(30.132 -17.23)" cx="34.515" cy="133.45" rx=".71231" ry=".7123" opacity=".999"/>
   <ellipse transform="translate(36.305 -17.218)" cx="34.515" cy="133.45" rx=".71231" ry=".7123" opacity=".999"/>
   <ellipse transform="translate(42.478 -17.207)" cx="34.515" cy="133.45" rx=".71231" ry=".7123" opacity=".999"/>
   <ellipse transform="translate(48.652 -17.195)" cx="34.515" cy="133.45" rx=".71231" ry=".7123" opacity=".999"/>
   <ellipse transform="translate(54.825 -17.184)" cx="34.515" cy="133.45" rx=".71231" ry=".7123" opacity=".999"/>
   <ellipse transform="translate(60.998 -17.172)" cx="34.515" cy="133.45" rx=".71231" ry=".7123" opacity=".999"/>
   <ellipse transform="translate(67.172 -17.161)" cx="34.515" cy="133.45" rx=".71231" ry=".7123" opacity=".999"/>
   <ellipse transform="translate(73.345 -17.15)" cx="34.515" cy="133.45" rx=".71231" ry=".7123" opacity=".999"/>
  </g>
  <g transform="matrix(1.8076 0 0 1.8076 -3.9639 -49.865)" style="shape-inside:url(#rect3828);white-space:pre" aria-label="FASCIST">
   <path d="m23.852 86.895v-4.2227q0-1.3017 0.21167-1.6722 0.21167-0.37042 0.89958-1.0054 0.6985-0.635 1.0372-0.635 0.46566 0 1.1536 0.37042 0.68791 0.37042 1.0266 0.83608l-1.1747 0.81491q-0.59266-0.59266-0.9525-0.59266-0.13758 0-0.3175 0.17992-0.17992 0.16933-0.30692 0.37042-0.11642 0.1905-0.11642 0.98425v0.24342h1.8944v1.2806h-1.8944v3.048z"/>
   <path d="m29.736 80.047q0.75141-0.68791 1.143-0.68791 0.39158 0 1.143 0.68791 0.75141 0.68792 0.93133 1.1324 0.11642 0.30692 0.11642 1.3864v4.3286h-1.4605v-1.5875h-1.4605v1.5875h-1.4605v-4.3286q0-1.0795 0.11642-1.3864 0.17992-0.4445 0.93133-1.1324zm0.41275 2.5188v1.4711h1.4605v-1.4711q0-0.86783-0.08467-1.0583-0.08467-0.20108-0.29633-0.41275-0.20108-0.22225-0.34925-0.22225-0.14817 0-0.35983 0.22225-0.20108 0.21167-0.28575 0.41275-0.08467 0.1905-0.08467 1.0583z"/>
   <path d="m38.129 83.91q0.11642 0.1905 0.11642 0.762 0 0.56092-0.23283 0.9525-0.21167 0.30692-0.89958 0.85725-0.68791 0.53975-1.016 0.53975-0.58208 0-1.3335-0.60325-0.75141-0.61383-0.9525-1.3441l1.1747-0.80433q0.16933 0.49742 0.53975 0.91016 0.37042 0.41275 0.51858 0.41275 0.15875 0 0.32808-0.09525 0.17992-0.10583 0.27516-0.21167 0.13758-0.16933 0.13758-0.52916t-0.16933-0.4445q-0.21167-0.17992-0.8255-0.47625-0.60325-0.29633-1.1218-0.635-0.51858-0.34925-0.66675-0.67733-0.13758-0.32808-0.13758-0.84666 0-0.52916 0.23283-0.92075 0.21167-0.30692 0.89958-0.84666 0.68791-0.55033 1.016-0.55033 0.58208 0 1.3335 0.61383 0.75141 0.60325 0.9525 1.3335l-1.1747 0.81491q-0.16933-0.49742-0.53975-0.91016-0.37042-0.42333-0.52916-0.42333-0.14817 0-0.32808 0.09525t-0.29633 0.24342q-0.10583 0.13758-0.10583 0.48683 0 0.33866 0.21167 0.45508 0.16933 0.14817 0.77258 0.46566 1.5452 0.84666 1.8203 1.3758z"/>
   <path d="m38.775 83.688v-0.99483q0-1.3229 0.21167-1.6933 0.21167-0.37042 0.89958-1.0054 0.6985-0.635 1.0372-0.635 0.58208 0 1.3335 0.67733 0.75141 0.66675 0.9525 1.4711l-1.1747 0.81491q-0.16933-0.5715-0.53975-1.0477-0.37042-0.48683-0.51858-0.48683-0.26458 0-0.60325 0.51858-0.13758 0.20108-0.13758 1.3864v0.99483q0 1.2171 0.13758 1.3864 0.33866 0.51858 0.60325 0.51858 0.14817 0 0.51858-0.41275 0.37042-0.42333 0.53975-0.93133l1.1747 0.8255q-0.20108 0.73025-0.9525 1.3441-0.75141 0.60325-1.3335 0.60325-0.33866 0-1.0372-0.635-0.68792-0.635-0.89958-1.0054-0.21167-0.37042-0.21167-1.6933z"/>
   <path d="m44.172 86.895v-7.4083h1.4605v7.4083z"/>
   <path d="m50.755 83.91q0.11642 0.1905 0.11642 0.762 0 0.56092-0.23283 0.9525-0.21167 0.30692-0.89958 0.85725-0.68791 0.53975-1.016 0.53975-0.58208 0-1.3335-0.60325-0.75141-0.61383-0.9525-1.3441l1.1747-0.80433q0.16933 0.49742 0.53975 0.91016 0.37042 0.41275 0.51858 0.41275 0.15875 0 0.32808-0.09525 0.17992-0.10583 0.27517-0.21167 0.13758-0.16933 0.13758-0.52916t-0.16933-0.4445q-0.21167-0.17992-0.8255-0.47625-0.60325-0.29633-1.1218-0.635-0.51858-0.34925-0.66675-0.67733-0.13758-0.32808-0.13758-0.84666 0-0.52916 0.23283-0.92075 0.21167-0.30692 0.89958-0.84666 0.68792-0.55033 1.016-0.55033 0.58208 0 1.3335 0.61383 0.75141 0.60325 0.9525 1.3335l-1.1747 0.81491q-0.16933-0.49742-0.53975-0.91016-0.37042-0.42333-0.52916-0.42333-0.14817 0-0.32808 0.09525t-0.29633 0.24342q-0.10583 0.13758-0.10583 0.48683 0 0.33866 0.21167 0.45508 0.16933 0.14817 0.77258 0.46566 1.5452 0.84666 1.8203 1.3758z"/>
   <path d="m55.475 79.487v1.27h-1.3758v6.1383h-1.4605v-6.1383h-1.3758v-1.27z"/>
  </g>
  <g transform="translate(.41899 -.66209)" style="shape-inside:url(#rect3838);white-space:pre" aria-label="ARTICLE">
   <path d="m28.877 125.03-0.60289-1.7363h-2.59l-0.60289 1.7363h-1.4228l2.4791-6.7958h1.6784l2.4694 6.7958zm-0.92122-2.8071-0.67042-1.9534-0.30868-0.98874q-0.07717 0.27974-0.14469 0.5016-0.06752 0.22187-0.82958 2.4405z"/>
   <path d="m35.875 125.03-1.5772-2.5804h-1.6688v2.5804h-1.4228v-6.7958h3.3955q1.2154 0 1.8762 0.52572 0.66077 0.5209 0.66077 1.5 0 0.71383-0.40514 1.2347-0.40514 0.51608-1.0949 0.68007l1.8376 2.8553zm-0.16881-4.7122q0-0.9791-1.254-0.9791h-1.8231v2.0064h1.8617q0.59807 0 0.90675-0.2701 0.30868-0.27009 0.30868-0.75723z"/>
   <path d="m41.407 119.34v5.6961h-1.4228v-5.6961h-2.1945v-1.0997h5.8167v1.0997z"/>
   <path d="m44.373 125.03v-6.7958h1.4228v6.7958z"/>
   <path d="m50.291 124.01q1.2878 0 1.7894-1.2926l1.2395 0.46784q-0.40032 0.98392-1.1768 1.4662-0.7717 0.47749-1.8521 0.47749-1.6399 0-2.537-0.92605-0.89228-0.93086-0.89228-2.5997 0-1.6736 0.86334-2.5707 0.86334-0.8971 2.5032-0.8971 1.1961 0 1.9485 0.48231 0.75241 0.47749 1.0563 1.4084l-1.254 0.34244q-0.15916-0.51125-0.62701-0.81029-0.46302-0.30385-1.0949-0.30385-0.96463 0-1.4662 0.59807-0.49678 0.59806-0.49678 1.7508 0 1.172 0.51125 1.7894 0.51608 0.61736 1.4855 0.61736z"/>
   <path d="m54.251 125.03v-6.7958h1.4228v5.6961h3.6463v1.0997z"/>
   <path d="m60.285 125.03v-6.7958h5.344v1.0997h-3.9212v1.7074h3.627v1.0997h-3.627v1.7894h4.119v1.0997z"/>
  </g>
  <rect x="71.702" y="117.48" width="39.688" height="1.5875" opacity=".999"/>
  <rect x="71.702" y="122.77" width="39.688" height="1.5875" opacity=".999"/>
  <rect x="24.077" y="128.06" width="87.312" height="1.5875" opacity=".999"/>
  <rect x="24.077" y="133.35" width="87.312" height="1.5875" opacity=".999"/>
  <rect x="24.077" y="138.64" width="66.146" height="1.5875" opacity=".999"/>
  <rect x="24.077" y="149.23" width="87.312" height="1.5875" opacity=".999"/>
  <rect x="24.077" y="154.52" width="87.312" height="1.5875" opacity=".999"/>
  <rect x="24.077" y="159.81" width="87.312" height="1.5875" opacity=".999"/>
  <rect x="24.077" y="165.1" width="87.312" height="1.5875" opacity=".999"/>
  <path d="m67.191 33.867c-2.4379-0.0095-12.399 0.75346-15.754 13.568-0.42418 1.6204 1.0471 12.187 0.6971 13.692-0.2705 1.1637-2.0966 2.2409-2.1976 2.8306-0.50086 2.9211 2.1757 7.1218 2.5984 7.3828 0.76089 0.46977 4.2696-0.0027 5.2053 0.52979 0.57048 0.32483 1.4091 1.376 1.4091 1.376-0.14315 2.4911 0.04876 3.5664 1.1141 5.4024 2.2149 3.1391 7.4704 2.9927 7.4704 2.9927s5.2554 0.1464 7.4703-2.9927c1.0653-1.836 1.2572-2.9113 1.1141-5.4024 0 0 0.83864-1.0512 1.4091-1.376 0.93562-0.53268 4.4444-0.06003 5.2052-0.52979 0.42272-0.26098 3.0993-4.4617 2.5984-7.3828-0.10111-0.58968-1.9272-1.6669-2.1977-2.8306-0.35004-1.5058 1.1213-12.072 0.6971-13.692-3.3546-12.814-13.316-13.577-15.754-13.568-0.34827 0.0013-0.54277 0.01881-0.54277 0.01881s-0.1945-0.01743-0.54277-0.01881zm-8.3983 21.449c4.5423 0.03124 5.226 0.67335 5.7221 1.5563 1.4554 2.5904 1.255 5.0221 1.0635 5.9931-0.30392 1.5411-5.3982 5.156-6.6221 5.2364-0.7939 0.05211-4.8107-0.77592-4.9258-6.379-0.11508-5.6031 3.712-6.4141 4.7623-6.4069zm17.882 0c1.0504-0.0073 4.8774 0.8038 4.7623 6.4069-0.11507 5.6031-4.1319 6.4311-4.9258 6.379-1.224-0.08037-6.3182-3.6953-6.6221-5.2364-0.19149-0.97101-0.39189-3.4028 1.0635-5.9931 0.49609-0.88297 1.1797-1.5251 5.7221-1.5563zm-8.9411 9.43s0.13357 0.0018 0.3385 0.0837c0.20493 0.08199 0.48114 0.24386 0.76649 0.56352 0.23116 0.25898 0.38936 0.64556 0.60113 1.1737 0.21177 0.52818 0.4774 1.1984 0.92407 2.0245 0.27952 0.51702 0.58409 0.85383 0.82226 1.2548 0.11909 0.20048 0.22145 0.41655 0.2957 0.6796s0.12071 0.57304 0.1271 0.95973c0.0049 0.29461-0.01678 0.55386-0.05901 0.78205-0.04223 0.2282-0.10538 0.42502-0.18287 0.5953-0.15499 0.34056-0.36826 0.57413-0.59335 0.73407s-0.46157 0.24639-0.66208 0.29376c-0.20052 0.04734-0.36551 0.05562-0.44679 0.05832-0.22437 0.0081-0.45712-0.0666-0.68024-0.18222-0.22312-0.11564-0.43657-0.2725-0.62188-0.43058-0.37063-0.31614-0.62901-0.63615-0.62901-0.63615s-0.25839 0.32-0.62901 0.63615c-0.18532 0.15808-0.39876 0.31494-0.62188 0.43058-0.22312 0.11565-0.45588 0.18997-0.68024 0.18222-0.08129-0.0027-0.24627-0.01107-0.44679-0.05832-0.20052-0.04734-0.437-0.13382-0.66208-0.29376-0.22509-0.15994-0.43836-0.39351-0.59335-0.73407-0.0775-0.17028-0.14065-0.3671-0.18287-0.5953-0.04223-0.2282-0.06389-0.48744-0.05901-0.78205 0.0064-0.38669 0.05285-0.69668 0.1271-0.95973 0.07425-0.26305 0.17662-0.47912 0.2957-0.6796 0.23817-0.40095 0.54273-0.73776 0.82226-1.2548 0.44667-0.82617 0.7123-1.4963 0.92407-2.0245 0.21176-0.52816 0.36997-0.91475 0.60113-1.1737 0.28535-0.31966 0.56156-0.48156 0.76649-0.56352 0.20493-0.08199 0.3385-0.0837 0.3385-0.0837z"/>
 </g>
</svg>
