<?xml version="1.0" encoding="UTF-8"?>
<svg width="512" height="742.4" version="1.1" viewBox="0 0 135.47 196.43" xmlns="http://www.w3.org/2000/svg" xmlns:cc="http://creativecommons.org/ns#" xmlns:dc="http://purl.org/dc/elements/1.1/" xmlns:rdf="http://www.w3.org/1999/02/22-rdf-syntax-ns#">
 <metadata>
  <rdf:RDF>
   <cc:Work rdf:about="">
    <dc:format>image/svg+xml</dc:format>
    <dc:type rdf:resource="http://purl.org/dc/dcmitype/StillImage"/>
    <dc:title/>
   </cc:Work>
  </rdf:RDF>
 </metadata>
 <g>
  <rect width="135.47" height="196.43" fill="#fff" opacity=".999"/>
  <rect x="9.525" y="9.525" width="116.42" height="177.38" rx="8.6094" ry="8.5616" fill="#0091b3" opacity=".999"/>
  <path d="m93.133 19.05 23.283 23.283v135.04h-97.367v-158.33z" fill="#fff" opacity=".999"/>
 </g>
 <path d="m93.133 42.333h23.283l-23.283-23.283z" fill="none" stroke="#0091b3" stroke-linejoin="round" stroke-width="4.2333"/>
 <g fill="#0091b3">
  <g transform="matrix(.91164 0 0 .91164 5.9847 6.531)" stroke="#0091b3" stroke-linejoin="round" stroke-width="1.7504">
   <ellipse transform="translate(-13.082 -17.31)" cx="34.515" cy="133.45" rx=".71231" ry=".7123" opacity=".999"/>
   <ellipse transform="translate(-6.9082 -17.298)" cx="34.515" cy="133.45" rx=".71231" ry=".7123" opacity=".999"/>
   <ellipse transform="translate(-.73485 -17.287)" cx="34.515" cy="133.45" rx=".71231" ry=".7123" opacity=".999"/>
   <ellipse transform="translate(5.4385 -17.275)" cx="34.515" cy="133.45" rx=".71231" ry=".7123" opacity=".999"/>
   <ellipse transform="translate(11.612 -17.264)" cx="34.515" cy="133.45" rx=".71231" ry=".7123" opacity=".999"/>
   <ellipse transform="translate(17.785 -17.252)" cx="34.515" cy="133.45" rx=".71231" ry=".7123" opacity=".999"/>
   <ellipse transform="translate(23.958 -17.241)" cx="34.515" cy="133.45" rx=".71231" ry=".7123" opacity=".999"/>
   <ellipse transform="translate(30.132 -17.229)" cx="34.515" cy="133.45" rx=".71231" ry=".7123" opacity=".999"/>
   <ellipse transform="translate(36.305 -17.218)" cx="34.515" cy="133.45" rx=".71231" ry=".7123" opacity=".999"/>
   <ellipse transform="translate(42.478 -17.206)" cx="34.515" cy="133.45" rx=".71231" ry=".7123" opacity=".999"/>
   <ellipse transform="translate(48.652 -17.195)" cx="34.515" cy="133.45" rx=".71231" ry=".7123" opacity=".999"/>
   <ellipse transform="translate(54.825 -17.184)" cx="34.515" cy="133.45" rx=".71231" ry=".7123" opacity=".999"/>
   <ellipse transform="translate(60.998 -17.172)" cx="34.515" cy="133.45" rx=".71231" ry=".7123" opacity=".999"/>
   <ellipse transform="translate(67.172 -17.16)" cx="34.515" cy="133.45" rx=".71231" ry=".7123" opacity=".999"/>
   <ellipse transform="translate(73.345 -17.149)" cx="34.515" cy="133.45" rx=".71231" ry=".7123" opacity=".999"/>
   <ellipse transform="translate(79.518 -17.138)" cx="34.515" cy="133.45" rx=".71231" ry=".7123" opacity=".999"/>
   <ellipse transform="translate(-13.082 -17.31)" cx="34.515" cy="133.45" rx=".71231" ry=".7123" opacity=".999"/>
   <ellipse transform="translate(-6.9082 -17.298)" cx="34.515" cy="133.45" rx=".71231" ry=".7123" opacity=".999"/>
   <ellipse transform="translate(-.73488 -17.287)" cx="34.515" cy="133.45" rx=".71231" ry=".7123" opacity=".999"/>
   <ellipse transform="translate(5.4384 -17.276)" cx="34.515" cy="133.45" rx=".71231" ry=".7123" opacity=".999"/>
   <ellipse transform="translate(11.612 -17.264)" cx="34.515" cy="133.45" rx=".71231" ry=".7123" opacity=".999"/>
   <ellipse transform="translate(17.785 -17.253)" cx="34.515" cy="133.45" rx=".71231" ry=".7123" opacity=".999"/>
   <ellipse transform="translate(23.958 -17.241)" cx="34.515" cy="133.45" rx=".71231" ry=".7123" opacity=".999"/>
   <ellipse transform="translate(30.132 -17.23)" cx="34.515" cy="133.45" rx=".71231" ry=".7123" opacity=".999"/>
   <ellipse transform="translate(36.305 -17.218)" cx="34.515" cy="133.45" rx=".71231" ry=".7123" opacity=".999"/>
   <ellipse transform="translate(42.478 -17.207)" cx="34.515" cy="133.45" rx=".71231" ry=".7123" opacity=".999"/>
   <ellipse transform="translate(48.652 -17.195)" cx="34.515" cy="133.45" rx=".71231" ry=".7123" opacity=".999"/>
   <ellipse transform="translate(54.825 -17.184)" cx="34.515" cy="133.45" rx=".71231" ry=".7123" opacity=".999"/>
   <ellipse transform="translate(60.998 -17.172)" cx="34.515" cy="133.45" rx=".71231" ry=".7123" opacity=".999"/>
   <ellipse transform="translate(67.172 -17.161)" cx="34.515" cy="133.45" rx=".71231" ry=".7123" opacity=".999"/>
   <ellipse transform="translate(73.345 -17.15)" cx="34.515" cy="133.45" rx=".71231" ry=".7123" opacity=".999"/>
  </g>
  <g transform="matrix(1.8076 0 0 1.8076 -3.3996 -49.865)" style="shape-inside:url(#rect3828);white-space:pre" aria-label="LIBERAL">
   <path d="m27.133 85.625v1.27h-3.8629v-7.4083h1.4605v6.1383z"/>
   <path d="m27.831 86.895v-7.4083h1.4605v7.4083z"/>
   <path d="m31.79 79.942q0.71966-0.58208 1.0054-0.58208 0.29633 0 0.93133 0.56092 0.64558 0.55033 0.80433 0.78316 0.15875 0.22225 0.15875 0.74083t-0.15875 0.78316q-0.15875 0.254-0.58208 0.65616 0.66675 0.55033 0.94191 0.92075 0.11642 0.1905 0.11642 0.71966 0 0.51858-0.11642 0.67733-0.1905 0.41275-0.92075 1.0583-0.73025 0.635-1.1536 0.635h-2.1907v-4.5297q0-0.85725-0.127-1.2065-0.11642-0.34925-0.508-0.8255l1.397-0.97366q0.254 0.21167 0.40216 0.58208zm0.29633 3.7359v1.9367h0.73025q0.13758 0 0.33867-0.21167 0.20108-0.22225 0.28575-0.381 0.09525-0.16933 0.09525-0.67733 0-0.34925-0.52916-0.66675zm0-1.9262v0.75141h0.53975q0.11642 0 0.28575-0.20108 0.17992-0.21167 0.24342-0.37042 0.0635-0.15875 0.0635-0.381t-0.21167-0.49742q-0.21167-0.28575-0.39158-0.28575t-0.56092 0.13758q0.03175 0.41275 0.03175 0.84666z"/>
   <path d="m37.526 82.386h1.8944v1.2806h-1.8944v1.9473h2.5294v1.2806h-3.9899v-6.5193l1.4605-1.016h2.3601v1.2912h-1.9685l-0.39158 0.27517z"/>
   <path d="m42.225 79.942q0.84666-0.58208 1.1536-0.58208 0.30692 0 0.94191 0.56092 0.64558 0.55033 0.80433 0.78316 0.15875 0.22225 0.15875 0.59266 0 0.71966-0.11642 0.85725-0.22225 0.33867-0.68791 0.79375 0.64558 0.61383 0.80433 0.94191 0.08467 0.22225 0.17992 1.3547 0.09525 1.1218 0.09525 1.651h-1.5875q0-0.47625-0.08467-1.4922t-0.1905-1.2277q-0.09525-0.21167-0.23283-0.37042h-0.94191v3.0903h-1.4605v-4.6355q0-0.85725-0.127-1.1853-0.11642-0.33866-0.508-0.8255l1.27-0.889q0.33866 0.22225 0.52916 0.58208zm0.29633 1.8097v0.81491h0.41275q0.14817 0 0.381-0.23283 0.23283-0.23283 0.29633-0.39158 0.07408-0.16933 0.07408-0.34925t-0.07408-0.3175q-0.0635-0.14817-0.1905-0.32808-0.127-0.17992-0.21167-0.17992-0.28575 0-0.71966 0.13758 0.03175 0.41275 0.03175 0.84666z"/>
   <path d="m47.548 80.047q0.75141-0.68791 1.143-0.68791t1.143 0.68791q0.75141 0.68792 0.93133 1.1324 0.11642 0.30692 0.11642 1.3864v4.3286h-1.4605v-1.5875h-1.4605v1.5875h-1.4605v-4.3286q0-1.0795 0.11642-1.3864 0.17992-0.4445 0.93133-1.1324zm0.41275 2.5188v1.4711h1.4605v-1.4711q0-0.86783-0.08467-1.0583-0.08467-0.20108-0.29633-0.41275-0.20108-0.22225-0.34925-0.22225-0.14817 0-0.35983 0.22225-0.20108 0.21167-0.28575 0.41275-0.08467 0.1905-0.08467 1.0583z"/>
   <path d="m55.433 85.625v1.27h-3.8629v-7.4083h1.4605v6.1383z"/>
  </g>
  <g transform="translate(.41899 -.66209)" style="shape-inside:url(#rect3838);white-space:pre" aria-label="ARTICLE">
   <path d="m28.877 125.03-0.60289-1.7363h-2.59l-0.60289 1.7363h-1.4228l2.4791-6.7958h1.6784l2.4694 6.7958zm-0.92122-2.8071-0.67042-1.9534-0.30868-0.98874q-0.07717 0.27974-0.14469 0.5016-0.06752 0.22187-0.82958 2.4405z"/>
   <path d="m35.875 125.03-1.5772-2.5804h-1.6688v2.5804h-1.4228v-6.7958h3.3955q1.2154 0 1.8762 0.52572 0.66077 0.5209 0.66077 1.5 0 0.71383-0.40514 1.2347-0.40514 0.51608-1.0949 0.68007l1.8376 2.8553zm-0.16881-4.7122q0-0.9791-1.254-0.9791h-1.8231v2.0064h1.8617q0.59807 0 0.90675-0.2701 0.30868-0.27009 0.30868-0.75723z"/>
   <path d="m41.407 119.34v5.6961h-1.4228v-5.6961h-2.1945v-1.0997h5.8167v1.0997z"/>
   <path d="m44.373 125.03v-6.7958h1.4228v6.7958z"/>
   <path d="m50.291 124.01q1.2878 0 1.7894-1.2926l1.2395 0.46784q-0.40032 0.98392-1.1768 1.4662-0.7717 0.47749-1.8521 0.47749-1.6399 0-2.537-0.92605-0.89228-0.93086-0.89228-2.5997 0-1.6736 0.86334-2.5707 0.86334-0.8971 2.5032-0.8971 1.1961 0 1.9485 0.48231 0.75241 0.47749 1.0563 1.4084l-1.254 0.34244q-0.15916-0.51125-0.62701-0.81029-0.46302-0.30385-1.0949-0.30385-0.96463 0-1.4662 0.59807-0.49678 0.59806-0.49678 1.7508 0 1.172 0.51125 1.7894 0.51608 0.61736 1.4855 0.61736z"/>
   <path d="m54.251 125.03v-6.7958h1.4228v5.6961h3.6463v1.0997z"/>
   <path d="m60.285 125.03v-6.7958h5.344v1.0997h-3.9212v1.7074h3.627v1.0997h-3.627v1.7894h4.119v1.0997z"/>
  </g>
  <rect x="71.702" y="117.48" width="39.688" height="1.5875" opacity=".999"/>
  <rect x="71.702" y="122.77" width="39.688" height="1.5875" opacity=".999"/>
  <rect x="24.077" y="128.06" width="87.312" height="1.5875" opacity=".999"/>
  <rect x="24.077" y="133.35" width="87.312" height="1.5875" opacity=".999"/>
  <rect x="24.077" y="138.64" width="66.146" height="1.5875" opacity=".999"/>
  <rect x="24.077" y="149.23" width="87.312" height="1.5875" opacity=".999"/>
  <rect x="24.077" y="154.52" width="87.312" height="1.5875" opacity=".999"/>
  <rect x="24.077" y="159.81" width="87.312" height="1.5875" opacity=".999"/>
  <rect x="24.077" y="165.1" width="87.312" height="1.5875" opacity=".999"/>
  <path d="m52.31 51.681s-0.82872-5.1311-1.7718-7.5316c-1.3041-3.3195-5.2943-9.2977-5.2943-9.2977s7.9164 4.1499 9.5862 6.2746c1.7485 2.2249 4.5793 11.11 4.9304 11.273 0.35111 0.16233 1.5693 0.18598 1.5693 0.18598s4.7888-7.6151 6.8214-9.4283c2.6581-2.3712 19.344-9.3549 20.466-9.2895 0.8401 0.049 1.5936 1.1063 1.6062 1.9478 0.01929 1.2876-11.243 13.831-11.243 13.831s0.14504 1.3288-0.14075 1.7932c-0.28579 0.46435-2.6061 1.8673-2.6061 1.8673s0.12756 1.5311-0.25876 2.102c-0.38632 0.57096-2.2889 1.2357-2.2889 1.2357s-0.28815 1.9124-0.54839 2.1544-2.2065 0.87482-2.2065 0.87482-0.2837 1.1648-0.66994 1.5917c-1.0264 1.1342-4.0313 2.1925-4.0313 2.1925l13.568 13.868s-0.83786 2.9098-1.071 3.1059c-0.15234 0.12819-4.1685 0.70162-4.1685 0.70162s-1.5155-2.5708-1.996-2.4082c-0.43331 0.14666-0.36488 1.844-0.36488 1.844s-0.24091 0.44656-0.73454 0.59441c-0.3072 0.092-3.3551 0-3.3551 0s-4.6916-3.1976-5.1016-3.8993c-0.16958-0.29016-0.98344-7.6318-0.98344-7.6318s-7.6556-1.0871-10.183-3.6606c-3.0491-3.105-2.716-7.9286-2.716-7.9286l-1.8922 1.244-0.67699-5.4507s0.2589-2.2417 2.1264-2.7879c1.4614-0.42742 3.6297 0.63337 3.6297 0.63337z"/>
 </g>
</svg>
