<?xml version="1.0" encoding="UTF-8"?>
<svg width="512" height="512" version="1.1" viewBox="0 0 135.47 135.47" xmlns="http://www.w3.org/2000/svg" xmlns:cc="http://creativecommons.org/ns#" xmlns:dc="http://purl.org/dc/elements/1.1/" xmlns:rdf="http://www.w3.org/1999/02/22-rdf-syntax-ns#">
 <metadata>
  <rdf:RDF>
   <cc:Work rdf:about="">
    <dc:format>image/svg+xml</dc:format>
    <dc:type rdf:resource="http://purl.org/dc/dcmitype/StillImage"/>
    <dc:title/>
   </cc:Work>
  </rdf:RDF>
 </metadata>
 <circle cx="67.733" cy="67.733" r="67.733" fill="#979797" opacity=".999" style="paint-order:stroke fill markers"/>
 <g transform="matrix(1.0502 0 0 1.0518 2.8051 -5.5719)">
  <path d="m61.815 39.604s-5.6424 0.1564-8.3827 1.5575c-12.65 6.4673-12.709 7.5313-21.126 9.3562 0 0-12.212-0.30312-16.12 2.2054-4.1713 2.6777-4.6711 11.094 6.4554 21.584 0.20696 0.19512-0.5965-18.162 39.181-17.557 39.778-0.60418 38.966 17.752 39.173 17.557 11.127-10.49 10.635-18.906 6.464-21.584-3.9077-2.5086-16.128-2.2054-16.128-2.2054-8.4162-1.8249-8.4837-2.8889-21.133-9.3562-2.7404-1.4011-8.3837-1.5575-8.3837-1.5575z" fill="#123535"/>
  <path d="m58.704 58.586c-31.192 0.08652-33.291 15.633-33.29 15.809 0.01643 1.9326-0.12602 9.663-0.13434 10.42-0.1543 14.122 36.535 14.966 36.535 14.966s36.689-0.84408 36.535-14.966c-0.0083-0.7572-0.15077-8.4876-0.13434-10.42 0.0015-0.18116-2.2364-16.741-36.401-15.768-1.0676-0.03042-2.1044-0.04374-3.1106-0.04095z" fill="#123535"/>
  <path d="m99.219 76.843c-9.2073-0.18125-11.315 0.83809-14.654 1.5456-3.4781 0.73709-6.7423 1.5995-9.5759 1.9889-3.5748 0.49131-13.175 0.64843-13.175 0.64843" fill="none" stroke="#297c7c" stroke-width="5.5172"/>
  <path d="m24.41 76.843c9.2073-0.18125 11.315 0.83809 14.654 1.5456 3.4781 0.73709 6.7423 1.5995 9.5759 1.9889 3.5748 0.49131 13.175 0.64843 13.175 0.64843" fill="none" stroke="#297c7c" stroke-width="5.5172"/>
  <circle cx="61.495" cy="69.994" r="7.9873" fill="#fbffff" opacity=".999" style="paint-order:stroke fill markers"/>
  <path d="m60.375 58.954c-6.4324-0.01279-32.365 0.85838-35.606 15.608-0.42136 1.9174-1.5594 7.4801 0.56321 10.542 1.2877 1.8577 8.2843 2.1285 15.336-0.52514 9.547-3.5927 18.933-3.202 21.157-3.1749 2.3618 0.03468 12.431-0.06459 21.135 3.1749 7.0613 2.6281 14.049 2.3828 15.337 0.52514 2.1226-3.0622 0.98457-8.6249 0.56321-10.542-3.7043-16.856-37.046-15.586-37.046-15.586s-0.52074-0.01975-1.4396-0.02155z" fill="none" stroke="#297c7c" stroke-linecap="round" stroke-width="5.5172"/>
 </g>
</svg>
