<?xml version="1.0" encoding="UTF-8"?>
<svg width="512" height="512" version="1.1" viewBox="0 0 135.47 135.47" xmlns="http://www.w3.org/2000/svg" xmlns:cc="http://creativecommons.org/ns#" xmlns:dc="http://purl.org/dc/elements/1.1/" xmlns:rdf="http://www.w3.org/1999/02/22-rdf-syntax-ns#">
 <metadata>
  <rdf:RDF>
   <cc:Work rdf:about="">
    <dc:format>image/svg+xml</dc:format>
    <dc:type rdf:resource="http://purl.org/dc/dcmitype/StillImage"/>
    <dc:title/>
   </cc:Work>
  </rdf:RDF>
 </metadata>
 <g>
  <circle cx="67.733" cy="67.733" r="67.733" fill="#600" opacity=".999" stroke-linecap="round" stroke-width="1.7448" style="paint-order:stroke fill markers"/>
  <text fill="black" font-family="sans-serif" font-size="10.583px" letter-spacing="0px" word-spacing="0px" style="line-height:1.25;shape-inside:url(#rect1487);white-space:pre" xml:space="preserve"/>
  <g transform="matrix(2.1581 0 0 2.1581 -18.366 -65.181)" fill="#fff" style="shape-inside:url(#rect1665);white-space:pre" aria-label="S">
   <path d="m49.852 65.042q0.5588 0.9144 0.5588 3.6576 0 2.6924-1.1176 4.572-1.016 1.4732-4.318 4.1148-3.302 2.5908-4.8768 2.5908-2.794 0-6.4008-2.8956-3.6068-2.9464-4.572-6.4516l5.6388-3.8608q0.8128 2.3876 2.5908 4.3688t2.4892 1.9812q0.762 0 1.5748-0.4572 0.8636-0.508 1.3208-1.016 0.6604-0.8128 0.6604-2.54t-0.8128-2.1336q-1.016-0.8636-3.9624-2.286-2.8956-1.4224-5.3848-3.048-2.4892-1.6764-3.2004-3.2512-0.6604-1.5748-0.6604-4.064 0-2.54 1.1176-4.4196 1.016-1.4732 4.318-4.064 3.302-2.6416 4.8768-2.6416 2.794 0 6.4008 2.9464 3.6068 2.8956 4.572 6.4008l-5.6388 3.9116q-0.8128-2.3876-2.5908-4.3688-1.778-2.032-2.54-2.032-0.7112 0-1.5748 0.4572t-1.4224 1.1684q-0.508 0.6604-0.508 2.3368 0 1.6256 1.016 2.1844 0.8128 0.7112 3.7084 2.2352 7.4168 4.064 8.7376 6.604z" fill="#fff"/>
  </g>
 </g>
</svg>
