<?xml version="1.0" encoding="UTF-8"?>
<svg width="70.576mm" height="30.563mm" version="1.1" viewBox="0 0 70.576 30.563" xmlns="http://www.w3.org/2000/svg" xmlns:cc="http://creativecommons.org/ns#" xmlns:dc="http://purl.org/dc/elements/1.1/" xmlns:rdf="http://www.w3.org/1999/02/22-rdf-syntax-ns#">
 <metadata>
  <rdf:RDF>
   <cc:Work rdf:about="">
    <dc:format>image/svg+xml</dc:format>
    <dc:type rdf:resource="http://purl.org/dc/dcmitype/StillImage"/>
    <dc:title/>
   </cc:Work>
  </rdf:RDF>
 </metadata>
 <g transform="translate(-69.131 -7.4672)">
  <g>
   <g>
    <path d="m88.448 15.013q0.18627 0.3048 0.18627 1.2192 0 0.89746-0.37253 1.524-0.33867 0.49107-1.4393 1.3716-1.1007 0.8636-1.6256 0.8636-0.93133 0-2.1336-0.9652-1.2023-0.98213-1.524-2.1505l1.8796-1.2869q0.27093 0.79586 0.8636 1.4563 0.59266 0.6604 0.82973 0.6604 0.254 0 0.52493-0.1524 0.28787-0.16933 0.44027-0.33867 0.22013-0.27093 0.22013-0.84666t-0.27093-0.7112q-0.33867-0.28787-1.3208-0.762-0.9652-0.47413-1.7949-1.016-0.82973-0.5588-1.0668-1.0837-0.22013-0.52493-0.22013-1.3547 0-0.84666 0.37253-1.4732 0.33867-0.49106 1.4393-1.3547 1.1007-0.88053 1.6256-0.88053 0.93133 0 2.1336 0.98213 1.2023 0.9652 1.524 2.1336l-1.8796 1.3039q-0.27093-0.79586-0.8636-1.4563-0.59267-0.67733-0.84666-0.67733-0.23707 0-0.52493 0.1524-0.28787 0.1524-0.47413 0.38947-0.16933 0.22013-0.16933 0.77893 0 0.54186 0.33867 0.72813 0.27093 0.23707 1.2361 0.74506 2.4723 1.3547 2.9125 2.2013z" style="font-variant-caps:normal;font-variant-east-asian:normal;font-variant-ligatures:normal;font-variant-numeric:normal;white-space:pre"/>
    <path d="m92.241 12.575h3.0311v2.0489h-3.0311v3.1157h4.0471v2.0489h-6.3839v-10.431l2.3368-1.6256h3.7761v2.0659h-3.1496l-0.62653 0.44027z" style="font-variant-caps:normal;font-variant-east-asian:normal;font-variant-ligatures:normal;font-variant-numeric:normal;white-space:pre"/>
    <path d="m97.135 14.657v-1.5917q0-2.1167 0.33867-2.7093 0.33867-0.59267 1.4393-1.6087 1.1176-1.016 1.6595-1.016 0.93133 0 2.1336 1.0837 1.2023 1.0668 1.524 2.3537l-1.8796 1.3039q-0.27094-0.9144-0.8636-1.6764-0.59267-0.77893-0.82973-0.77893-0.42334 0-0.9652 0.82973-0.22013 0.32173-0.22013 2.2183v1.5917q0 1.9473 0.22013 2.2183 0.54186 0.82973 0.9652 0.82973 0.23706 0 0.82973-0.6604 0.59266-0.67733 0.8636-1.4901l1.8796 1.3208q-0.32173 1.1684-1.524 2.1505-1.2023 0.9652-2.1336 0.9652-0.54187 0-1.6595-1.016-1.1007-1.016-1.4393-1.6087-0.33867-0.59267-0.33867-2.7093z" style="font-variant-caps:normal;font-variant-east-asian:normal;font-variant-ligatures:normal;font-variant-numeric:normal;white-space:pre"/>
    <path d="m108.34 11.559v1.3039h0.6604q0.23707 0 0.6096-0.37253 0.37253-0.37253 0.47413-0.62653 0.11854-0.27093 0.11854-0.5588t-0.11854-0.508q-0.1016-0.23707-0.3048-0.52493-0.2032-0.28787-0.33866-0.28787-0.4572 0-1.1515 0.22013 0.0508 0.6604 0.0508 1.3547z" style="font-variant-caps:normal;font-variant-east-asian:normal;font-variant-ligatures:normal;font-variant-numeric:normal;white-space:pre"/>
    <path d="m107.87 8.663q1.3547-0.93133 1.8457-0.93133t1.5071 0.89746q1.0329 0.88053 1.2869 1.2531 0.25399 0.3556 0.25399 0.94827 0 1.1515-0.18626 1.3716-0.3556 0.54186-1.1007 1.27 1.0329 0.98213 1.2869 1.5071 0.13547 0.3556 0.28787 2.1675 0.1524 1.7949 0.1524 2.6416h-2.54q0-0.762-0.13547-2.3876t-0.3048-1.9643q-0.1524-0.33867-0.37253-0.59266h-1.5071v4.9445h-2.3368v-7.4168q0-1.3716-0.2032-1.8965-0.18627-0.54187-0.8128-1.3208l2.032-1.4224q0.54186 0.3556 0.84666 0.93133z" style="font-variant-caps:normal;font-variant-east-asian:normal;font-variant-ligatures:normal;font-variant-numeric:normal;white-space:pre"/>
    <path d="m117.05 12.575h3.0311v2.0489h-3.0311v3.1157h4.0471v2.0489h-6.3838v-10.431l2.3368-1.6256h3.7761v2.0659h-3.1496l-0.62654 0.44027z" style="font-variant-caps:normal;font-variant-east-asian:normal;font-variant-ligatures:normal;font-variant-numeric:normal;white-space:pre"/>
    <path d="m128.46 7.9349v2.032h-2.2013v9.8213h-2.3368v-9.8213h-2.2013v-2.032z" style="font-variant-caps:normal;font-variant-east-asian:normal;font-variant-ligatures:normal;font-variant-numeric:normal;white-space:pre"/>
    <path d="m73.911 29.333v1.3039h0.6604q0.23707 0 0.6096-0.37253 0.37253-0.37253 0.47413-0.62653 0.11853-0.27093 0.11853-0.5588t-0.11853-0.508q-0.1016-0.23707-0.3048-0.52493t-0.33867-0.28787q-0.4572 0-1.1515 0.22013 0.0508 0.6604 0.0508 1.3547z" style="font-variant-caps:normal;font-variant-east-asian:normal;font-variant-ligatures:normal;font-variant-numeric:normal;white-space:pre"/>
    <path d="m73.436 26.437q1.3547-0.93133 1.8457-0.93133t1.5071 0.89746q1.0329 0.88053 1.2869 1.2531 0.254 0.3556 0.254 0.94826 0 1.1515-0.18627 1.3716-0.3556 0.54187-1.1007 1.27 1.0329 0.98213 1.2869 1.5071 0.13547 0.3556 0.28787 2.1675 0.1524 1.7949 0.1524 2.6416h-2.54q0-0.762-0.13547-2.3876-0.13547-1.6256-0.3048-1.9643-0.1524-0.33867-0.37253-0.59266h-1.5071v4.9445h-2.3368v-7.4168q0-1.3716-0.2032-1.8965-0.18627-0.54186-0.8128-1.3208l2.032-1.4224q0.54187 0.3556 0.84666 0.93133z" style="font-variant-caps:normal;font-variant-east-asian:normal;font-variant-ligatures:normal;font-variant-numeric:normal;white-space:pre"/>
    <path d="m82.614 30.349h3.0311v2.0489h-3.0311v3.1157h4.0471v2.0489h-6.3839v-10.431l2.3368-1.6256h3.7761v2.0659h-3.1496l-0.62653 0.44027z" style="font-variant-caps:normal;font-variant-east-asian:normal;font-variant-ligatures:normal;font-variant-numeric:normal;white-space:pre"/>
    <path d="m88.033 37.562v-11.853h2.3368v11.853z" style="font-variant-caps:normal;font-variant-east-asian:normal;font-variant-ligatures:normal;font-variant-numeric:normal;white-space:pre"/>
    <path d="m91.741 32.431v-1.5917q0-2.1167 0.33867-2.7093 0.33867-0.59266 1.4393-1.6087 1.1176-1.016 1.6595-1.016 0.93133 0 2.1336 1.0837 1.2023 1.0668 1.524 2.3537l-1.8796 1.3039q-0.27093-0.9144-0.8636-1.6764-0.59267-0.77893-0.82973-0.77893-0.42333 0-0.9652 0.82973-0.22013 0.32173-0.22013 2.2183v1.5917q0 1.9473 0.22013 2.2183 0.54186 0.82973 0.9652 0.82973 0.23707 0 0.82973-0.6604 0.59266-0.67733 0.8636-1.4901l1.8796 1.3208q-0.32173 1.1684-1.524 2.1505-1.2023 0.9652-2.1336 0.9652-0.54186 0-1.6595-1.016-1.1007-1.016-1.4393-1.6087-0.33867-0.59267-0.33867-2.7093z" style="font-variant-caps:normal;font-variant-east-asian:normal;font-variant-ligatures:normal;font-variant-numeric:normal;white-space:pre"/>
    <path d="m105.29 37.562v-5.4187h-2.3368v5.4187h-2.3368v-7.2475q0-1.4393-0.2032-1.9981-0.18626-0.57573-0.8128-1.3885l2.032-1.4224q0.54187 0.3556 0.93133 1.3208 0.38947 0.94826 0.38947 2.3029v0.98213h2.3368v-4.4027h2.3368v11.853z" style="font-variant-caps:normal;font-variant-east-asian:normal;font-variant-ligatures:normal;font-variant-numeric:normal;white-space:pre"/>
    <path d="m115.72 32.787q0.18626 0.3048 0.18626 1.2192 0 0.89746-0.37253 1.524-0.33866 0.49107-1.4393 1.3716-1.1007 0.8636-1.6256 0.8636-0.93133 0-2.1336-0.9652-1.2023-0.98213-1.524-2.1505l1.8796-1.2869q0.27093 0.79586 0.8636 1.4563 0.59266 0.6604 0.82973 0.6604 0.254 0 0.52493-0.1524 0.28787-0.16933 0.44027-0.33867 0.22013-0.27093 0.22013-0.84666t-0.27093-0.7112q-0.33867-0.28787-1.3208-0.762-0.9652-0.47413-1.7949-1.016-0.82973-0.5588-1.0668-1.0837-0.22013-0.52493-0.22013-1.3547 0-0.84666 0.37253-1.4732 0.33867-0.49106 1.4393-1.3547 1.1007-0.88053 1.6256-0.88053 0.93133 0 2.1336 0.98213 1.2023 0.9652 1.524 2.1336l-1.8796 1.3039q-0.27093-0.79586-0.86359-1.4563-0.59267-0.67733-0.84667-0.67733-0.23706 0-0.52493 0.1524t-0.47413 0.38947q-0.16934 0.22013-0.16934 0.77893 0 0.54186 0.33867 0.72813 0.27093 0.23707 1.2361 0.74506 2.4723 1.3547 2.9125 2.2013z" style="font-variant-caps:normal;font-variant-east-asian:normal;font-variant-ligatures:normal;font-variant-numeric:normal;white-space:pre"/>
    <path d="m123.27 25.709v2.032h-2.2013v9.8213h-2.3368v-9.8213h-2.2013v-2.032z" style="font-variant-caps:normal;font-variant-east-asian:normal;font-variant-ligatures:normal;font-variant-numeric:normal;white-space:pre"/>
    <path d="m126.4 30.636v2.3537h2.3368v-2.3537q0-1.3885-0.13547-1.6933-0.13546-0.32173-0.47413-0.6604-0.32174-0.3556-0.5588-0.3556-0.23707 0-0.57573 0.3556-0.32174 0.33867-0.4572 0.6604-0.13547 0.3048-0.13547 1.6933z" style="font-variant-caps:normal;font-variant-east-asian:normal;font-variant-ligatures:normal;font-variant-numeric:normal;white-space:pre"/>
    <path d="m125.74 26.606q1.2023-1.1007 1.8288-1.1007t1.8288 1.1007q1.2023 1.1007 1.4901 1.8119 0.18626 0.49107 0.18626 2.2183v6.9257h-2.3368v-2.54h-2.3368v2.54h-2.3368v-6.9257q0-1.7272 0.18626-2.2183 0.28787-0.7112 1.4901-1.8119z" style="font-variant-caps:normal;font-variant-east-asian:normal;font-variant-ligatures:normal;font-variant-numeric:normal;white-space:pre"/>
    <path d="m134.68 30.84v1.7949q0 1.3885 0.13546 1.7103 0.13547 0.3048 0.4572 0.6604 0.33867 0.33867 0.59267 0.33867t0.64346-0.3556q0.38947-0.3556 0.54187-0.64347 0.1016-0.28787 0.11853-0.84666h-1.1684v-1.8796h3.3697v5.9436h-1.6425l-0.2032-1.1515q-1.1684 1.3547-1.7272 1.3547-0.55879 0-1.778-1.1007-1.2023-1.1176-1.4901-1.8119-0.18627-0.44026-0.18627-2.2183v-1.7949q0-2.1167 0.33867-2.7093 0.33866-0.59266 1.4393-1.6087 1.1176-1.016 1.6595-1.016 0.93133 0 2.1336 1.0837 1.2023 1.0837 1.524 2.3707l-1.8796 1.3039q-0.27093-0.9144-0.8636-1.6933t-0.82973-0.77893q-0.42333 0-0.9652 0.82973-0.22013 0.32173-0.22013 2.2183z" style="font-variant-caps:normal;font-variant-east-asian:normal;font-variant-ligatures:normal;font-variant-numeric:normal;white-space:pre"/>
    <path d="m88.448 15.013c0.0757 0.1238 0.1283 0.3231 0.1579 0.5978 0.0189 0.1761 0.0284 0.3833 0.0284 0.6214 0 0.2828-0.0277 0.5454-0.0832 0.7878-0.0619 0.2705-0.1583 0.5159-0.2893 0.7362-0.1352 0.196-0.3614 0.4385-0.6786 0.7275-0.2126 0.1938-0.4662 0.4085-0.7607 0.6441-0.2824 0.2215-0.5363 0.4004-0.7618 0.5367-0.3606 0.2179-0.6485 0.3269-0.8638 0.3269-0.3511 0-0.7311-0.1029-1.1399-0.3086-0.3142-0.1581-0.6454-0.377-0.9937-0.6566-0.3742-0.3057-0.6844-0.6248-0.9306-0.9575-0.2813-0.38-0.4791-0.7777-0.5934-1.193 0 0 0.4699-0.3218 0.9398-0.6435s0.9398-0.6435 0.9398-0.6435c0.0915 0.2689 0.2106 0.5263 0.3572 0.772 0.1427 0.2391 0.3115 0.4672 0.5064 0.6843 0.1404 0.1565 0.2659 0.2852 0.3764 0.386 0.2003 0.1829 0.3514 0.2744 0.4533 0.2744 0.0893 0 0.1802-0.0141 0.2726-0.0424 0.0828-0.0253 0.1669-0.062 0.2523-0.11 0.087-0.0512 0.1647-0.1023 0.2331-0.1535 0.0826-0.0617 0.1516-0.1234 0.2072-0.1852 0.0831-0.1023 0.1427-0.2372 0.1787-0.4047 0.0276-0.1282 0.0414-0.2755 0.0414-0.4419 0-0.156-0.0149-0.2877-0.0447-0.3952-0.0436-0.1571-0.119-0.2624-0.2262-0.316-0.1358-0.1155-0.3493-0.2534-0.6403-0.4138-0.1928-0.1062-0.4196-0.2223-0.6805-0.3482-0.3155-0.155-0.6201-0.3154-0.9138-0.4812-0.3054-0.1724-0.5992-0.3507-0.8811-0.5348-0.2383-0.1605-0.4398-0.3188-0.6048-0.4751-0.218-0.2065-0.3721-0.4094-0.462-0.6087-0.0803-0.1914-0.1386-0.4131-0.175-0.6653-0.0301-0.2089-0.0452-0.4387-0.0452-0.6893 0-0.2712 0.0287-0.5255 0.086-0.7628 0.062-0.2566 0.1575-0.4934 0.2866-0.71043 0.1349-0.19566 0.3606-0.43568 0.677-0.72005 0.2129-0.19143 0.4671-0.40298 0.7623-0.63462 0.2816-0.22529 0.535-0.40735 0.76-0.54618 0.3614-0.2229 0.6499-0.33435 0.8656-0.33435 0.3517 0 0.7323 0.10503 1.1419 0.31508 0.3136 0.16081 0.6442 0.38315 0.9917 0.66705 0.3749 0.301 0.6856 0.61682 0.9321 0.94745 0.2804 0.37615 0.4777 0.77155 0.5919 1.1862 0 0-0.4699 0.326-0.9398 0.6519l-0.9398 0.652c-0.0916-0.269-0.2107-0.5263-0.3573-0.772-0.1427-0.2391-0.3115-0.4672-0.5063-0.6843-0.1416-0.1618-0.2687-0.2947-0.3813-0.3985-0.2016-0.1859-0.3567-0.2788-0.4654-0.2788-0.0852 0-0.1753 0.0147-0.2703 0.0443-0.0813 0.0252-0.1662 0.0612-0.2546 0.1081-0.0941 0.0498-0.18 0.1064-0.2578 0.1697-0.0809 0.0659-0.153 0.1392-0.2163 0.2197-0.0664 0.0863-0.1133 0.2116-0.1406 0.3759-0.0192 0.1152-0.0288 0.2495-0.0288 0.4031 0 0.1622 0.0228 0.3006 0.0684 0.415 0.0558 0.1403 0.1459 0.2447 0.2703 0.3131 0.1118 0.0978 0.3124 0.2303 0.6016 0.3974 0.1779 0.1028 0.3895 0.2187 0.6345 0.3477 0.6229 0.3413 1.1491 0.6584 1.5785 0.9513 0.7068 0.4822 1.1515 0.8989 1.334 1.25" style="font-variant-caps:normal;font-variant-east-asian:normal;font-variant-ligatures:normal;font-variant-numeric:normal;white-space:pre"/>
    <path d="m92.241 12.575h1.5155 1.5155v1.0245 1.0244h-1.5155-1.5155v1.5579 1.5579h2.0235 2.0235v1.0244 1.0245h-3.1919-3.1919v-5.2155-5.2154l2.3368-1.6256h1.888 1.8881v1.0329 1.0329h-1.5748-1.5748s-0.1566 0.11007-0.3132 0.22017c-0.1567 0.11-0.3133 0.2201-0.3133 0.2201v1.1684 1.1684" style="font-variant-caps:normal;font-variant-east-asian:normal;font-variant-ligatures:normal;font-variant-numeric:normal;white-space:pre"/>
    <path d="m97.134 14.657v-0.7959-0.7958c0-0.5292 0.0159-0.9869 0.0476-1.3732 0.0529-0.6438 0.15-1.0892 0.2911-1.3362 0.1336-0.2338 0.3562-0.51704 0.6677-0.8497 0.2149-0.22947 0.4721-0.48244 0.7716-0.75893 0.283-0.25731 0.5384-0.46574 0.766-0.6253 0.3715-0.26047 0.6695-0.3907 0.8935-0.3907 0.355 0 0.74 0.1183 1.155 0.35491 0.309 0.17685 0.636 0.41979 0.979 0.72882 0.38 0.33754 0.694 0.69161 0.942 1.0622 0.275 0.41029 0.469 0.84079 0.582 1.2915l-0.94 0.652c-0.47 0.3259-0.94 0.6519-0.94 0.6519-0.091-0.306-0.208-0.5992-0.353-0.8796-0.144-0.2782-0.314-0.5438-0.511-0.7968-0.137-0.1805-0.26-0.3297-0.369-0.4475-0.204-0.2209-0.357-0.3314-0.46-0.3314-0.173 0-0.36 0.1033-0.562 0.3101-0.1287 0.1314-0.2632 0.3046-0.4036 0.5196-0.0961 0.1404-0.1607 0.5059-0.1939 1.0965-0.0175 0.3114-0.0262 0.6853-0.0262 1.1218v0.7958 0.7959c0 0.4374 0.0083 0.8113 0.025 1.1219 0.0328 0.6111 0.0978 0.9766 0.1951 1.0964 0.1404 0.2149 0.2749 0.3882 0.4036 0.5196 0.202 0.2067 0.389 0.3101 0.562 0.3101 0.101 0 0.253-0.0915 0.453-0.2744 0.11-0.1008 0.236-0.2295 0.376-0.386 0.196-0.2231 0.365-0.4573 0.508-0.7025 0.146-0.251 0.265-0.5135 0.356-0.7876l1.88 1.3208c-0.115 0.4153-0.313 0.813-0.594 1.193-0.246 0.3327-0.556 0.6518-0.93 0.9575-0.349 0.2796-0.68 0.4985-0.994 0.6566-0.409 0.2057-0.789 0.3086-1.14 0.3086-0.224 0-0.522-0.1303-0.8935-0.3907-0.2276-0.1596-0.483-0.368-0.766-0.6253-0.2995-0.2765-0.5567-0.5295-0.7716-0.7589-0.3115-0.3327-0.5341-0.616-0.6677-0.8498-0.1411-0.2469-0.2382-0.6923-0.2911-1.3361-0.0317-0.3863-0.0476-0.844-0.0476-1.3732" style="font-variant-caps:normal;font-variant-east-asian:normal;font-variant-ligatures:normal;font-variant-numeric:normal;white-space:pre"/>
    <path d="m108.34 11.559v0.6519 0.652h0.331 0.33c0.095 0 0.206-0.045 0.334-0.1348 0.085-0.0596 0.176-0.1388 0.275-0.2378 0.105-0.1047 0.194-0.2025 0.266-0.2932 0.1-0.1243 0.169-0.2354 0.208-0.3333 0.04-0.0896 0.069-0.1806 0.089-0.273 0.02-0.0938 0.03-0.1891 0.03-0.2858 0-0.0922-9e-3 -0.1792-0.027-0.261-0.02-0.0884-0.05-0.1708-0.092-0.247-0.036-0.0852-0.082-0.1753-0.139-0.2703-0.048-0.0813-0.103-0.1662-0.165-0.2546-0.052-0.0727-0.1-0.1317-0.145-0.1769-0.073-0.074-0.138-0.111-0.194-0.111-0.17 0-0.364 0.0227-0.582 0.0682-0.175 0.0362-0.364 0.0869-0.569 0.1519 0.017 0.2227 0.029 0.4483 0.038 0.6768 8e-3 0.2232 0.012 0.4492 0.012 0.6779" style="font-variant-caps:normal;font-variant-east-asian:normal;font-variant-ligatures:normal;font-variant-numeric:normal;white-space:pre"/>
    <path d="m107.87 8.663c0.333-0.22859 0.626-0.4151 0.881-0.55953 0.436-0.24786 0.758-0.3718 0.965-0.3718 0.203 0 0.472 0.11468 0.809 0.34403 0.207 0.14109 0.44 0.32556 0.698 0.55344 0.262 0.22357 0.487 0.42258 0.674 0.59703 0.304 0.28359 0.508 0.50226 0.613 0.65603 0.092 0.1283 0.158 0.2796 0.2 0.4542 0.036 0.148 0.054 0.3127 0.054 0.4941 0 0.2721-8e-3 0.5052-0.024 0.6993-0.028 0.3534-0.082 0.5775-0.162 0.6723-0.133 0.2014-0.305 0.4221-0.518 0.6622-0.169 0.1904-0.363 0.393-0.583 0.6078 0.274 0.2602 0.506 0.4964 0.698 0.7085 0.291 0.3215 0.487 0.5877 0.589 0.7985 0.059 0.1542 0.12 0.5137 0.183 1.0786 0.034 0.3036 0.069 0.6666 0.105 1.0889 0.042 0.4937 0.075 0.9336 0.1 1.3197 0.035 0.5497 0.052 0.9903 0.052 1.3219h-1.27-1.27c0-0.2987-0.015-0.6968-0.047-1.1944-0.022-0.3489-0.051-0.7466-0.088-1.1932-0.032-0.3842-0.066-0.7145-0.101-0.9908-0.063-0.5032-0.131-0.8277-0.204-0.9735-0.05-0.1102-0.105-0.2137-0.165-0.3105-0.063-0.1015-0.133-0.1955-0.208-0.2821h-0.753-0.754v2.4722 2.4723h-1.168-1.168v-3.7084-3.7084c0-0.3634-0.011-0.6823-0.033-0.9566-0.032-0.4157-0.089-0.7291-0.171-0.9399-0.07-0.2054-0.188-0.4362-0.354-0.69256-0.125-0.1947-0.278-0.40413-0.458-0.62827l2.032-1.4224c0.18 0.11853 0.341 0.25541 0.482 0.41063 0.141 0.15523 0.263 0.32879 0.364 0.5207" style="font-variant-caps:normal;font-variant-east-asian:normal;font-variant-ligatures:normal;font-variant-numeric:normal;white-space:pre"/>
    <path d="m117.05 12.575h1.516 1.515v1.0245 1.0244h-1.515-1.516v1.5579 1.5579h2.024 2.023v1.0244 1.0245h-3.192-3.192v-5.2155-5.2154s0.584-0.4064 1.169-0.8128l1.168-0.8128h1.888 1.888v1.0329 1.0329h-1.575-1.574s-0.157 0.11007-0.314 0.22017c-0.156 0.11-0.313 0.2201-0.313 0.2201v1.1684 1.1684" style="font-variant-caps:normal;font-variant-east-asian:normal;font-variant-ligatures:normal;font-variant-numeric:normal;white-space:pre"/>
    <path d="m128.46 7.9349v1.016 1.016h-1.101-1.1v4.9106 4.9107h-1.169-1.168v-4.9107-4.9106h-1.101-1.1v-1.016-1.016h3.369 3.37" style="font-variant-caps:normal;font-variant-east-asian:normal;font-variant-ligatures:normal;font-variant-numeric:normal;white-space:pre"/>
    <path d="m73.911 29.333v0.652 0.6519h0.3302 0.3302c0.095 0 0.2064-0.0449 0.3342-0.1348 0.0846-0.0595 0.1764-0.1388 0.2754-0.2377 0.1047-0.1048 0.1934-0.2026 0.2661-0.2933 0.0995-0.1243 0.1688-0.2354 0.208-0.3333 0.0392-0.0896 0.0687-0.1806 0.0884-0.273 0.0201-0.0938 0.0301-0.1891 0.0301-0.2858 0-0.0922-0.0091-0.1792-0.0273-0.261-0.0198-0.0884-0.0502-0.1707-0.0912-0.247-0.0365-0.0852-0.0829-0.1753-0.1391-0.2703-0.048-0.0813-0.1033-0.1661-0.1657-0.2546-0.0513-0.0727-0.0994-0.1317-0.1443-0.1768-0.0735-0.074-0.1383-0.1111-0.1944-0.1111-0.1696 0-0.3638 0.0228-0.5824 0.0682-0.1742 0.0363-0.3638 0.0869-0.569 0.152 0.0171 0.2227 0.0299 0.4483 0.0384 0.6768 0.0082 0.2232 0.0124 0.4491 0.0124 0.6778" style="font-variant-caps:normal;font-variant-east-asian:normal;font-variant-ligatures:normal;font-variant-numeric:normal;white-space:pre"/>
    <path d="m73.436 26.437c0.3325-0.2285 0.626-0.4151 0.8804-0.5595 0.4367-0.2479 0.7585-0.3718 0.9654-0.3718 0.2026 0 0.4724 0.1147 0.8093 0.344 0.2072 0.1411 0.4397 0.3256 0.6977 0.5535 0.2623 0.2235 0.4869 0.4226 0.6738 0.597 0.3039 0.2836 0.5083 0.5023 0.6131 0.656 0.0917 0.1283 0.1585 0.2797 0.2005 0.4542 0.0357 0.1481 0.0535 0.3128 0.0535 0.4941 0 0.2721-0.0078 0.5052-0.0234 0.6993-0.0284 0.3535-0.0827 0.5776-0.1628 0.6723-0.1322 0.2014-0.3048 0.4222-0.5177 0.6622-0.1689 0.1905-0.3632 0.3931-0.583 0.6078 0.2737 0.2602 0.5064 0.4964 0.6981 0.7085 0.2905 0.3215 0.4868 0.5877 0.5888 0.7986 0.0588 0.1541 0.1199 0.5137 0.1834 1.0785 0.0342 0.3037 0.069 0.6666 0.1045 1.0889 0.0419 0.4937 0.0752 0.9337 0.0998 1.3198 0.0351 0.5496 0.0526 0.9903 0.0526 1.3218h-1.27-1.27c0-0.2986-0.0156-0.6968-0.0468-1.1944-0.0219-0.3488-0.0514-0.7466-0.0886-1.1932-0.0321-0.3842-0.0655-0.7144-0.1003-0.9908-0.0635-0.5032-0.1317-0.8277-0.2045-0.9734-0.0497-0.1103-0.1046-0.2138-0.165-0.3106-0.0633-0.1014-0.1325-0.1955-0.2076-0.2821h-0.7535-0.7535v2.4723 2.4722h-1.1684-1.1684v-3.7084-3.7084c0-0.3634-0.0107-0.6823-0.0321-0.9565-0.0325-0.4158-0.0895-0.7291-0.1711-0.94-0.0706-0.2053-0.1886-0.4362-0.354-0.6925-0.1256-0.1947-0.2785-0.4041-0.4588-0.6283l2.032-1.4224c0.1806 0.1185 0.3414 0.2554 0.4826 0.4106 0.1411 0.1553 0.2624 0.3288 0.364 0.5207" style="font-variant-caps:normal;font-variant-east-asian:normal;font-variant-ligatures:normal;font-variant-numeric:normal;white-space:pre"/>
    <path d="m82.614 30.349h1.5156 1.5155v1.0245 1.0245h-1.5155-1.5156v1.5578 1.5579h2.0236 2.0235v1.0245 1.0244h-3.1919-3.1919v-5.2154-5.2155s0.5842-0.4064 1.1683-0.8128l1.1684-0.8128h1.8881 1.8881v1.0329 1.033h-1.5748-1.5748s-0.1567 0.11-0.3133 0.2201-0.3133 0.2201-0.3133 0.2201v1.1684 1.1684" style="font-variant-caps:normal;font-variant-east-asian:normal;font-variant-ligatures:normal;font-variant-numeric:normal;white-space:pre"/>
    <path d="m88.033 37.562v-5.9266-5.9267h1.1684 1.1684v5.9267 5.9266h-1.1684-1.1684" style="font-variant-caps:normal;font-variant-east-asian:normal;font-variant-ligatures:normal;font-variant-numeric:normal;white-space:pre"/>
    <path d="m91.741 32.431v-0.7958-0.7959c0-0.5292 0.0158-0.9869 0.0476-1.3732 0.0529-0.6438 0.1499-1.0892 0.291-1.3361 0.1336-0.2339 0.3562-0.5171 0.6677-0.8498 0.2149-0.2294 0.4721-0.4824 0.7717-0.7589 0.283-0.2573 0.5383-0.4657 0.766-0.6253 0.3716-0.2605 0.6694-0.3907 0.8934-0.3907 0.3553 0 0.7402 0.1183 1.1547 0.3549 0.3098 0.1769 0.6361 0.4198 0.9789 0.7288 0.3804 0.3376 0.6947 0.6917 0.9429 1.0622 0.2747 0.4103 0.4684 0.8408 0.5811 1.2916 0 0-0.4699 0.3259-0.9398 0.6519s-0.9398 0.6519-0.9398 0.6519c-0.0906-0.306-0.2083-0.5991-0.353-0.8795-0.1436-0.2782-0.3138-0.5439-0.5106-0.7969-0.1373-0.1805-0.2604-0.3297-0.3691-0.4474-0.204-0.221-0.3575-0.3315-0.4606-0.3315-0.1725 0-0.3598 0.1034-0.5619 0.3101-0.1285 0.1314-0.2629 0.3046-0.4033 0.5196-0.0961 0.1405-0.1607 0.506-0.1939 1.0966-0.0175 0.3113-0.0262 0.6852-0.0262 1.1217v0.7959 0.7958c0 0.4374 0.0083 0.8114 0.0249 1.1219 0.0328 0.6112 0.0979 0.9766 0.1952 1.0964 0.1404 0.215 0.2748 0.3882 0.4033 0.5196 0.2021 0.2068 0.3894 0.3101 0.5619 0.3101 0.1018 0 0.253-0.0914 0.4533-0.2743 0.1105-0.1009 0.236-0.2296 0.3764-0.3861 0.1953-0.2231 0.3643-0.4573 0.5072-0.7024 0.1462-0.251 0.265-0.5136 0.3564-0.7877l1.8796 1.3208c-0.1144 0.4153-0.3122 0.813-0.5934 1.193-0.2463 0.3327-0.5564 0.6519-0.9306 0.9575-0.3483 0.2796-0.6796 0.4985-0.9938 0.6566-0.4088 0.2058-0.7887 0.3086-1.1398 0.3086-0.224 0-0.5218-0.1302-0.8934-0.3907-0.2277-0.1595-0.483-0.368-0.766-0.6253-0.2996-0.2765-0.5568-0.5294-0.7717-0.7589-0.3115-0.3327-0.5341-0.6159-0.6677-0.8497-0.1411-0.247-0.2381-0.6924-0.291-1.3362-0.0318-0.3863-0.0476-0.844-0.0476-1.3732" style="font-variant-caps:normal;font-variant-east-asian:normal;font-variant-ligatures:normal;font-variant-numeric:normal;white-space:pre"/>
    <path d="m105.29 37.562v-2.7093-2.7093h-1.169-1.168v2.7093 2.7093h-1.168-1.169v-3.6237-3.6237c0-0.3824-0.01-0.7181-0.032-1.0072-0.032-0.4365-0.089-0.7669-0.171-0.991-0.07-0.2166-0.187-0.4584-0.35-0.7254-0.1267-0.2061-0.2808-0.4271-0.4627-0.6631 0 0 0.5077-0.3556 1.0157-0.7112l1.016-0.7112c0.203 0.1331 0.39 0.3303 0.561 0.5916 0.133 0.204 0.257 0.4471 0.371 0.7292 0.139 0.3383 0.24 0.7154 0.305 1.1313 0.056 0.3613 0.084 0.7518 0.084 1.1716v0.4911 0.4911h1.168 1.169v-2.2014-2.2013h1.168 1.169v5.9267 5.9266h-1.169-1.168" style="font-variant-caps:normal;font-variant-east-asian:normal;font-variant-ligatures:normal;font-variant-numeric:normal;white-space:pre"/>
    <path d="m115.72 32.787c0.075 0.1239 0.128 0.3231 0.158 0.5979 0.019 0.1761 0.028 0.3832 0.028 0.6213 0 0.2828-0.028 0.5454-0.083 0.7879-0.062 0.2705-0.159 0.5159-0.29 0.7361-0.135 0.196-0.361 0.4385-0.678 0.7275-0.213 0.1938-0.466 0.4085-0.761 0.6441-0.282 0.2215-0.536 0.4004-0.762 0.5367-0.36 0.218-0.648 0.3269-0.863 0.3269-0.352 0-0.731-0.1028-1.14-0.3086-0.314-0.1581-0.646-0.377-0.994-0.6566-0.374-0.3056-0.684-0.6248-0.931-0.9575-0.281-0.38-0.479-0.7777-0.593-1.193 0 0 0.47-0.3217 0.94-0.6435l0.94-0.6434c0.091 0.2689 0.21 0.5262 0.357 0.7719 0.143 0.2391 0.311 0.4672 0.506 0.6843 0.141 0.1565 0.266 0.2852 0.377 0.3861 0.2 0.1829 0.351 0.2743 0.453 0.2743 0.089 0 0.18-0.0141 0.272-0.0424 0.083-0.0253 0.167-0.062 0.253-0.11 0.087-0.0511 0.164-0.1023 0.233-0.1534 0.082-0.0618 0.152-0.1235 0.207-0.1852 0.083-0.1024 0.143-0.2373 0.179-0.4047 0.027-0.1283 0.041-0.2756 0.041-0.442 0-0.1559-0.015-0.2876-0.044-0.3951-0.044-0.1571-0.119-0.2625-0.227-0.3161-0.136-0.1155-0.349-0.2534-0.64-0.4138-0.193-0.1062-0.42-0.2223-0.681-0.3482-0.315-0.155-0.62-0.3153-0.913-0.4812-0.306-0.1724-0.599-0.3507-0.881-0.5348-0.239-0.1604-0.44-0.3188-0.605-0.475-0.218-0.2066-0.372-0.4095-0.462-0.6087-0.08-0.1914-0.139-0.4132-0.175-0.6653-0.03-0.209-0.045-0.4388-0.045-0.6894 0-0.2712 0.028-0.5255 0.086-0.7628 0.062-0.2566 0.157-0.4934 0.286-0.7104 0.135-0.1957 0.361-0.4357 0.677-0.72 0.213-0.1915 0.467-0.403 0.762-0.6347 0.282-0.2253 0.535-0.4073 0.761-0.5461 0.361-0.2229 0.649-0.3344 0.865-0.3344 0.352 0 0.732 0.105 1.142 0.3151 0.314 0.1608 0.644 0.3831 0.992 0.667 0.375 0.301 0.685 0.6169 0.932 0.9475 0.28 0.3762 0.478 0.7716 0.592 1.1861l-0.94 0.652c-0.47 0.3259-0.94 0.6519-0.94 0.6519-0.091-0.2689-0.211-0.5262-0.357-0.7719-0.143-0.2391-0.312-0.4672-0.507-0.6844-0.141-0.1618-0.268-0.2946-0.381-0.3985-0.201-0.1859-0.357-0.2788-0.465-0.2788-0.086 0-0.176 0.0149-0.272 0.0446-0.08 0.0252-0.165 0.0612-0.253 0.1078-0.094 0.0498-0.18 0.1064-0.258 0.1698-0.081 0.0659-0.153 0.1391-0.216 0.2197-0.067 0.0862-0.113 0.2115-0.141 0.3758-0.019 0.1152-0.029 0.2496-0.029 0.4031 0 0.1623 0.023 0.3006 0.069 0.4151 0.056 0.1403 0.146 0.2446 0.27 0.313 0.112 0.0979 0.312 0.2304 0.602 0.3974 0.178 0.1028 0.389 0.2187 0.634 0.3477 0.623 0.3413 1.149 0.6584 1.579 0.9514 0.706 0.4822 1.151 0.8988 1.334 1.2499" style="font-variant-caps:normal;font-variant-east-asian:normal;font-variant-ligatures:normal;font-variant-numeric:normal;white-space:pre"/>
    <path d="m123.27 25.709v1.016 1.016h-1.101-1.1v4.9107 4.9106h-1.169-1.168v-4.9106-4.9107h-1.101-1.1v-1.016-1.016h3.369 3.37" style="font-variant-caps:normal;font-variant-east-asian:normal;font-variant-ligatures:normal;font-variant-numeric:normal;white-space:pre"/>
    <path d="m126.4 30.636v1.1769 1.1768h1.168 1.168v-1.1768-1.1769c0-0.33-5e-3 -0.614-0.017-0.8522-0.021-0.43-0.06-0.7104-0.118-0.8411-0.049-0.1157-0.117-0.2329-0.205-0.3518-0.075-0.1017-0.165-0.2046-0.269-0.3086-0.088-0.0968-0.171-0.1738-0.249-0.2311-0.113-0.083-0.216-0.1245-0.31-0.1245s-0.2 0.0418-0.317 0.1253c-0.081 0.0572-0.167 0.134-0.259 0.2303-0.099 0.1045-0.185 0.2078-0.258 0.3099-0.084 0.1184-0.15 0.2353-0.199 0.3505-0.058 0.1307-0.097 0.4111-0.118 0.8411-0.012 0.2382-0.017 0.5222-0.017 0.8522" style="font-variant-caps:normal;font-variant-east-asian:normal;font-variant-ligatures:normal;font-variant-numeric:normal;white-space:pre"/>
    <path d="m125.74 26.606c0.309-0.2831 0.59-0.5115 0.842-0.6854 0.401-0.2769 0.73-0.4153 0.987-0.4153s0.586 0.1384 0.987 0.4153c0.252 0.1739 0.533 0.4023 0.842 0.6854 0.329 0.3009 0.606 0.5801 0.832 0.8373 0.325 0.37 0.545 0.6949 0.658 0.9745 0.078 0.2053 0.131 0.5725 0.16 1.1017 0.018 0.3148 0.026 0.687 0.026 1.1166v3.4629 3.4628h-1.168-1.169v-1.27-1.27h-1.168-1.168v1.27 1.27h-1.169-1.168v-3.4628-3.4629c0-0.4296 8e-3 -0.8018 0.026-1.1166 0.029-0.5292 0.082-0.8964 0.16-1.1017 0.113-0.2796 0.333-0.6045 0.658-0.9745 0.226-0.2572 0.503-0.5364 0.832-0.8373" style="font-variant-caps:normal;font-variant-east-asian:normal;font-variant-ligatures:normal;font-variant-numeric:normal;white-space:pre"/>
    <path d="m134.68 30.84v0.8975 0.8974c0 0.3327 6e-3 0.6194 0.017 0.8603 0.021 0.4292 0.061 0.7126 0.118 0.85 0.05 0.1107 0.117 0.2265 0.203 0.3473 0.072 0.1008 0.157 0.2052 0.255 0.3131 0.094 0.0944 0.183 0.169 0.268 0.2239 0.118 0.0765 0.226 0.1148 0.324 0.1148 0.101 0 0.217-0.0418 0.35-0.1254 0.09-0.0572 0.188-0.1339 0.294-0.2302 0.114-0.1047 0.214-0.2049 0.297-0.3008 0.106-0.1213 0.188-0.2355 0.245-0.3427 0.038-0.1098 0.068-0.2492 0.088-0.4182 0.015-0.1263 0.025-0.2691 0.03-0.4285h-0.584-0.584v-0.9398-0.9398h1.685 1.685v2.9718 2.9718h-0.822-0.821s-0.051-0.2878-0.102-0.5757c-0.05-0.2879-0.101-0.5757-0.101-0.5757-0.285 0.3298-0.542 0.5994-0.772 0.8088-0.401 0.3639-0.719 0.5458-0.955 0.5458-0.233 0-0.552-0.1433-0.957-0.4299-0.243-0.172-0.517-0.3956-0.821-0.6707-0.327-0.3035-0.603-0.5835-0.828-0.8401-0.328-0.3735-0.549-0.6974-0.663-0.9718-0.078-0.1866-0.132-0.5534-0.161-1.1005-0.017-0.3134-0.025-0.686-0.025-1.1178v-0.8974-0.8975c0-0.5292 0.016-0.9869 0.048-1.3732 0.053-0.6438 0.15-1.0892 0.291-1.3361 0.133-0.2339 0.356-0.5171 0.668-0.8498 0.214-0.2294 0.472-0.4824 0.771-0.7589 0.283-0.2573 0.539-0.4657 0.766-0.6253 0.372-0.2605 0.67-0.3907 0.894-0.3907 0.355 0 0.74 0.1183 1.154 0.3549 0.31 0.1769 0.636 0.4198 0.979 0.7288 0.38 0.3422 0.694 0.6996 0.942 1.0722 0.275 0.4141 0.469 0.8469 0.582 1.2985 0 0-0.47 0.326-0.94 0.6519-0.469 0.326-0.939 0.652-0.939 0.652-0.091-0.3066-0.209-0.6018-0.354-0.8855-0.144-0.2805-0.314-0.5497-0.51-0.8079-0.137-0.1805-0.26-0.3297-0.369-0.4474-0.204-0.221-0.358-0.3315-0.461-0.3315-0.172 0-0.359 0.1034-0.562 0.3101-0.128 0.1314-0.262 0.3046-0.403 0.5196-0.096 0.1405-0.161 0.506-0.194 1.0966-0.017 0.3113-0.026 0.6852-0.026 1.1217" style="font-variant-caps:normal;font-variant-east-asian:normal;font-variant-ligatures:normal;font-variant-numeric:normal;white-space:pre"/>
   </g>
   <g fill-opacity=".3" stroke="#000" stroke-linejoin="round" stroke-opacity=".99772" stroke-width=".529">
    <path d="m133.52 30.84h1.162v0.8975h-1.162v-0.8975"/>
    <path d="m133.52 31.737h1.162v0.8974h-1.162v-0.8974"/>
    <path d="m133.52 32.635h1.162l0.017 0.8603h-1.162l-0.017-0.8603"/>
    <path d="m133.54 33.495h1.162l0.118 0.85h-1.162l-0.118-0.85"/>
    <path d="m133.66 34.345h1.162l0.203 0.3473h-1.162l-0.203-0.3473"/>
    <path d="m133.86 34.692h1.162l0.255 0.3131h-1.162l-0.255-0.3131"/>
    <path d="m134.12 35.005h1.162l0.268 0.2239h-1.162l-0.268-0.2239"/>
    <path d="m134.38 35.229h1.162l0.324 0.1148h-1.162l-0.324-0.1148"/>
    <path d="m134.71 35.344h1.162l0.35-0.1254h-1.162l-0.35 0.1254"/>
    <path d="m135.06 35.219h1.162l0.294-0.2302h-1.162l-0.294 0.2302"/>
    <path d="m135.35 34.988h1.162l0.297-0.3008h-1.162l-0.297 0.3008"/>
    <path d="m135.65 34.688h1.162l0.245-0.3427h-1.162l-0.245 0.3427"/>
    <path d="m135.89 34.345h1.162l0.088-0.4182h-1.162l-0.088 0.4182"/>
    <path d="m135.98 33.927h1.162l0.03-0.4285h-1.162l-0.03 0.4285"/>
    <path d="m136.01 33.498h1.162-1.746 0.584"/>
    <path d="m135.43 33.498h1.162-1.746 0.584"/>
    <path d="m134.84 33.498h1.162v-0.9398h-1.162v0.9398"/>
    <path d="m134.84 32.558h1.162v-0.9398h-1.162v0.9398"/>
    <path d="m134.84 31.619h2.847-2.847"/>
    <path d="m136.53 31.619h2.847-2.847"/>
    <path d="m138.21 31.619h1.162v2.9718h-1.162v-2.9718"/>
    <path d="m138.21 34.59h1.162v2.9718h-1.162v-2.9718"/>
    <path d="m138.21 37.562h1.162-1.984 0.822"/>
    <path d="m137.39 37.562h1.162-1.983 0.821"/>
    <path d="m136.57 37.562h1.162l-0.102-0.5757h-1.162l0.102 0.5757"/>
    <path d="m136.47 36.986h1.162l-0.101-0.5757h-1.162l0.101 0.5757"/>
    <path d="m136.37 36.411h1.162l-0.772 0.8088h-1.162l0.772-0.8088"/>
    <path d="m135.6 37.22h1.162l-0.955 0.5458h-1.162l0.955-0.5458"/>
    <path d="m134.64 37.765h1.162l-0.957-0.4299h-1.162l0.957 0.4299"/>
    <path d="m133.68 37.336h1.162l-0.821-0.6707h-1.162l0.821 0.6707"/>
    <path d="m132.86 36.665h1.162l-0.828-0.8401h-1.162l0.828 0.8401"/>
    <path d="m132.03 35.825h1.162l-0.663-0.9718h-1.162l0.663 0.9718"/>
    <path d="m131.37 34.853h1.162l-0.161-1.1005h-1.162l0.161 1.1005"/>
    <path d="m131.21 33.752h1.162l-0.025-1.1178h-1.162l0.025 1.1178"/>
    <path d="m131.18 32.635h1.162v-0.8974h-1.162v0.8974"/>
    <path d="m131.18 31.737h1.162v-0.8975h-1.162v0.8975"/>
    <path d="m131.18 30.84h1.162l0.048-1.3732h-1.162l-0.048 1.3732"/>
    <path d="m131.23 29.466h1.162l0.291-1.3361h-1.162l-0.291 1.3361"/>
    <path d="m131.52 28.13h1.162l0.668-0.8498h-1.162l-0.668 0.8498"/>
    <path d="m132.19 27.281h1.162l0.771-0.7589h-1.162l-0.771 0.7589"/>
    <path d="m132.96 26.522h1.162l0.766-0.6253h-1.162l-0.766 0.6253"/>
    <path d="m133.73 25.896h1.162l0.894-0.3907h-1.162l-0.894 0.3907"/>
    <path d="m134.62 25.506h1.162l1.154 0.3549h-1.162l-1.154-0.3549"/>
    <path d="m135.78 25.861h1.162l0.979 0.7288h-1.162l-0.979-0.7288"/>
    <path d="m136.76 26.589h1.162l0.942 1.0722h-1.162l-0.942-1.0722"/>
    <path d="m137.7 27.662h1.162l0.582 1.2985h-1.162l-0.582-1.2985"/>
    <path d="m138.28 28.96h1.162l-0.94 0.6519h-1.162l0.94-0.6519"/>
    <path d="m137.34 29.612h1.162l-0.939 0.652h-1.162l0.939-0.652"/>
    <path d="m136.4 30.264h1.162l-0.354-0.8855h-1.162l0.354 0.8855"/>
    <path d="m136.05 29.378h1.162l-0.51-0.8079h-1.162l0.51 0.8079"/>
    <path d="m135.54 28.571h1.162l-0.369-0.4474h-1.162l0.369 0.4474"/>
    <path d="m135.17 28.123h1.162l-0.461-0.3315h-1.162l0.461 0.3315"/>
    <path d="m134.71 27.792h1.162l-0.562 0.3101h-1.162l0.562-0.3101"/>
    <path d="m134.14 28.102h1.162l-0.403 0.5196h-1.162l0.403-0.5196"/>
    <path d="m133.74 28.621h1.162l-0.194 1.0966h-1.162l0.194-1.0966"/>
    <path d="m133.55 29.718h1.162l-0.026 1.1217h-1.162l0.026-1.1217"/>
    <path d="m133.52 30.84h1.162-1.162"/>
    <path d="m133.52 30.84h1.162-1.162"/>
    <path d="m133.52 30.84h1.162-1.162"/>
    <path d="m124.58 26.606h1.162l0.842-0.6854h-1.162l-0.842 0.6854"/>
    <path d="m125.42 25.921h1.162l0.987-0.4153h-1.162l-0.987 0.4153"/>
    <path d="m126.41 25.506h1.162l0.987 0.4153h-1.162l-0.987-0.4153"/>
    <path d="m127.4 25.921h1.162l0.842 0.6854h-1.162l-0.842-0.6854"/>
    <path d="m128.24 26.606h1.162l0.832 0.8373h-1.162l-0.832-0.8373"/>
    <path d="m129.07 27.444h1.162l0.658 0.9745h-1.162l-0.658-0.9745"/>
    <path d="m129.73 28.418h1.162l0.16 1.1017h-1.162l-0.16-1.1017"/>
    <path d="m129.89 29.52h1.162l0.026 1.1166h-1.162l-0.026-1.1166"/>
    <path d="m129.92 30.636h1.162v3.4629h-1.162v-3.4629"/>
    <path d="m129.92 34.099h1.162v3.4628h-1.162v-3.4628"/>
    <path d="m129.92 37.562h1.162-2.33 1.168"/>
    <path d="m128.75 37.562h1.162-2.331 1.169"/>
    <path d="m127.58 37.562h1.162v-1.27h-1.162v1.27"/>
    <path d="m127.58 36.292h1.162v-1.27h-1.162v1.27"/>
    <path d="m127.58 35.022h1.162-2.33 1.168"/>
    <path d="m126.41 35.022h1.162-2.33 1.168"/>
    <path d="m125.24 35.022h1.162v1.27h-1.162v-1.27"/>
    <path d="m125.24 36.292h1.162v1.27h-1.162v-1.27"/>
    <path d="m125.24 37.562h1.162-2.331 1.169"/>
    <path d="m124.07 37.562h1.162-2.33 1.168"/>
    <path d="m122.9 37.562h1.162v-3.4628h-1.162v3.4628"/>
    <path d="m122.9 34.099h1.162v-3.4629h-1.162v3.4629"/>
    <path d="m122.9 30.636h1.162l0.026-1.1166h-1.162l-0.026 1.1166"/>
    <path d="m122.93 29.52h1.162l0.16-1.1017h-1.162l-0.16 1.1017"/>
    <path d="m123.09 28.418h1.162l0.658-0.9745h-1.162l-0.658 0.9745"/>
    <path d="m123.75 27.444h1.162l0.832-0.8373h-1.162l-0.832 0.8373"/>
    <path d="m124.58 26.606h1.162-1.162"/>
    <path d="m124.58 26.606h1.162-1.162"/>
    <path d="m124.58 26.606h1.162-1.162"/>
    <path d="m125.24 30.636h1.162v1.1769h-1.162v-1.1769"/>
    <path d="m125.24 31.813h1.162v1.1768h-1.162v-1.1768"/>
    <path d="m125.24 32.99h2.33-2.33"/>
    <path d="m126.41 32.99h2.33-2.33"/>
    <path d="m127.58 32.99h1.162v-1.1768h-1.162v1.1768"/>
    <path d="m127.58 31.813h1.162v-1.1769h-1.162v1.1769"/>
    <path d="m127.58 30.636h1.162l-0.017-0.8522h-1.162l0.017 0.8522"/>
    <path d="m127.56 29.784h1.162l-0.118-0.8411h-1.162l0.118 0.8411"/>
    <path d="m127.44 28.943h1.162l-0.205-0.3518h-1.162l0.205 0.3518"/>
    <path d="m127.24 28.591h1.162l-0.269-0.3086h-1.162l0.269 0.3086"/>
    <path d="m126.97 28.283h1.162l-0.249-0.2311h-1.162l0.249 0.2311"/>
    <path d="m126.72 28.052h1.162l-0.31-0.1245h-1.162l0.31 0.1245"/>
    <path d="m126.41 27.927h1.162l-0.317 0.1253h-1.162l0.317-0.1253"/>
    <path d="m126.09 28.052h1.162l-0.259 0.2303h-1.162l0.259-0.2303"/>
    <path d="m125.83 28.283h1.162l-0.258 0.3099h-1.162l0.258-0.3099"/>
    <path d="m125.58 28.593h1.162l-0.199 0.3505h-1.162l0.199-0.3505"/>
    <path d="m125.38 28.943h1.162l-0.118 0.8411h-1.162l0.118-0.8411"/>
    <path d="m125.26 29.784h1.162l-0.017 0.8522h-1.162l0.017-0.8522"/>
    <path d="m125.24 30.636h1.162-1.162"/>
    <path d="m125.24 30.636h1.162-1.162"/>
    <path d="m125.24 30.636h1.162-1.162"/>
    <path d="m122.11 25.709h1.162v1.016h-1.162v-1.016"/>
    <path d="m122.11 26.725h1.162v1.016h-1.162v-1.016"/>
    <path d="m122.11 27.741h1.162-2.263 1.101"/>
    <path d="m121.01 27.741h1.162-2.262 1.1"/>
    <path d="m119.91 27.741h1.162v4.9107h-1.162v-4.9107"/>
    <path d="m119.91 32.652h1.162v4.9106h-1.162v-4.9106"/>
    <path d="m119.91 37.562h1.162-2.331 1.169"/>
    <path d="m118.74 37.562h1.162-2.33 1.168"/>
    <path d="m117.57 37.562h1.162v-4.9106h-1.162v4.9106"/>
    <path d="m117.57 32.652h1.162v-4.9107h-1.162v4.9107"/>
    <path d="m117.57 27.741h1.162-2.263 1.101"/>
    <path d="m116.47 27.741h1.162-2.262 1.1"/>
    <path d="m115.37 27.741h1.162v-1.016h-1.162v1.016"/>
    <path d="m115.37 26.725h1.162v-1.016h-1.162v1.016"/>
    <path d="m115.37 25.709h4.531-4.531"/>
    <path d="m118.74 25.709h4.532-4.532"/>
    <path d="m122.11 25.709h1.162-1.162"/>
    <path d="m114.56 32.787h1.162l0.158 0.5979h-1.162l-0.158-0.5979"/>
    <path d="m114.72 33.385h1.162l0.028 0.6213h-1.162l-0.028-0.6213"/>
    <path d="m114.74 34.006h1.162l-0.083 0.7879h-1.162l0.083-0.7879"/>
    <path d="m114.66 34.794h1.162l-0.29 0.7361h-1.162l0.29-0.7361"/>
    <path d="m114.37 35.53h1.162l-0.678 0.7275h-1.162l0.678-0.7275"/>
    <path d="m113.69 36.258h1.162l-0.761 0.6441h-1.162l0.761-0.6441"/>
    <path d="m112.93 36.902h1.162l-0.762 0.5367h-1.162l0.762-0.5367"/>
    <path d="m112.17 37.438h1.162l-0.863 0.3269h-1.162l0.863-0.3269"/>
    <path d="m111.31 37.765h1.162l-1.14-0.3086h-1.162l1.14 0.3086"/>
    <path d="m110.17 37.457h1.162l-0.994-0.6566h-1.162l0.994 0.6566"/>
    <path d="m109.17 36.8h1.162l-0.931-0.9575h-1.162l0.931 0.9575"/>
    <path d="m108.24 35.843h1.162l-0.593-1.193h-1.162l0.593 1.193"/>
    <path d="m107.65 34.65h1.162l0.94-0.6435h-1.162l-0.94 0.6435"/>
    <path d="m108.59 34.006h1.162l0.94-0.6434h-1.162l-0.94 0.6434"/>
    <path d="m109.53 33.363h1.162l0.357 0.7719h-1.162l-0.357-0.7719"/>
    <path d="m109.88 34.135h1.162l0.506 0.6843h-1.162l-0.506-0.6843"/>
    <path d="m110.39 34.819h1.162l0.377 0.3861h-1.162l-0.377-0.3861"/>
    <path d="m110.77 35.205h1.162l0.453 0.2743h-1.162l-0.453-0.2743"/>
    <path d="m111.22 35.479h1.162l0.272-0.0424h-1.162l-0.272 0.0424"/>
    <path d="m111.49 35.437h1.162l0.253-0.11h-1.162l-0.253 0.11"/>
    <path d="m111.75 35.327h1.162l0.233-0.1534h-1.162l-0.233 0.1534"/>
    <path d="m111.98 35.174h1.162l0.207-0.1852h-1.162l-0.207 0.1852"/>
    <path d="m112.19 34.988h1.162l0.179-0.4047h-1.162l-0.179 0.4047"/>
    <path d="m112.36 34.584h1.162l0.041-0.442h-1.162l-0.041 0.442"/>
    <path d="m112.41 34.142h1.162l-0.044-0.3951h-1.162l0.044 0.3951"/>
    <path d="m112.36 33.747h1.162l-0.227-0.3161h-1.162l0.227 0.3161"/>
    <path d="m112.14 33.43h1.162l-0.64-0.4138h-1.162l0.64 0.4138"/>
    <path d="m111.5 33.017h1.162l-0.681-0.3482h-1.162l0.681 0.3482"/>
    <path d="m110.81 32.668h1.162l-0.913-0.4812h-1.162l0.913 0.4812"/>
    <path d="m109.9 32.187h1.162l-0.881-0.5348h-1.162l0.881 0.5348"/>
    <path d="m109.02 31.652h1.162l-0.605-0.475h-1.162l0.605 0.475"/>
    <path d="m108.42 31.178h1.162l-0.462-0.6087h-1.162l0.462 0.6087"/>
    <path d="m107.95 30.569h1.162l-0.175-0.6653h-1.162l0.175 0.6653"/>
    <path d="m107.78 29.904h1.162l-0.045-0.6894h-1.162l0.045 0.6894"/>
    <path d="m107.73 29.214h1.162l0.086-0.7628h-1.162l-0.086 0.7628"/>
    <path d="m107.82 28.451h1.162l0.286-0.7104h-1.162l-0.286 0.7104"/>
    <path d="m108.1 27.741h1.162l0.677-0.72h-1.162l-0.677 0.72"/>
    <path d="m108.78 27.021h1.162l0.762-0.6347h-1.162l-0.762 0.6347"/>
    <path d="m109.54 26.386h1.162l0.761-0.5461h-1.162l-0.761 0.5461"/>
    <path d="m110.3 25.84h1.162l0.865-0.3344h-1.162l-0.865 0.3344"/>
    <path d="m111.17 25.506h1.162l1.142 0.3151h-1.162l-1.142-0.3151"/>
    <path d="m112.31 25.821h1.162l0.992 0.667h-1.162l-0.992-0.667"/>
    <path d="m113.3 26.488h1.162l0.932 0.9475h-1.162l-0.932-0.9475"/>
    <path d="m114.24 27.435h1.162l0.592 1.1861h-1.162l-0.592-1.1861"/>
    <path d="m114.83 28.621h1.162l-0.94 0.652h-1.162l0.94-0.652"/>
    <path d="m113.89 29.273h1.162l-0.94 0.6519h-1.162l0.94-0.6519"/>
    <path d="m112.95 29.925h1.162l-0.357-0.7719h-1.162l0.357 0.7719"/>
    <path d="m112.59 29.153h1.162l-0.507-0.6844h-1.162l0.507 0.6844"/>
    <path d="m112.08 28.469h1.162l-0.381-0.3985h-1.162l0.381 0.3985"/>
    <path d="m111.7 28.07h1.162l-0.465-0.2788h-1.162l0.465 0.2788"/>
    <path d="m111.24 27.792h1.162l-0.272 0.0446h-1.162l0.272-0.0446"/>
    <path d="m110.97 27.836h1.162l-0.253 0.1078h-1.162l0.253-0.1078"/>
    <path d="m110.71 27.944h1.162l-0.258 0.1698h-1.162l0.258-0.1698"/>
    <path d="m110.46 28.114h1.162l-0.216 0.2197h-1.162l0.216-0.2197"/>
    <path d="m110.24 28.334h1.162l-0.141 0.3758h-1.162l0.141-0.3758"/>
    <path d="m110.1 28.709h1.162l-0.029 0.4031h-1.162l0.029-0.4031"/>
    <path d="m110.07 29.112h1.162l0.069 0.4151h-1.162l-0.069-0.4151"/>
    <path d="m110.14 29.528h1.162l0.27 0.313h-1.162l-0.27-0.313"/>
    <path d="m110.41 29.841h1.162l0.602 0.3974h-1.162l-0.602-0.3974"/>
    <path d="m111.01 30.238h1.162l0.634 0.3477h-1.162l-0.634-0.3477"/>
    <path d="m111.64 30.586h1.162l1.579 0.9514h-1.162l-1.579-0.9514"/>
    <path d="m113.22 31.537h1.162l1.334 1.2499h-1.162l-1.334-1.2499"/>
    <path d="m114.56 32.787h1.162-1.162"/>
    <path d="m114.56 32.787h1.162-1.162"/>
    <path d="m114.56 32.787h1.162-1.162"/>
    <path d="m104.13 37.562h1.162v-2.7093h-1.162v2.7093"/>
    <path d="m104.13 34.853h1.162v-2.7093h-1.162v2.7093"/>
    <path d="m104.13 32.144h1.162-2.331 1.169"/>
    <path d="m102.96 32.144h1.162-2.33 1.168"/>
    <path d="m101.79 32.144h1.162v2.7093h-1.162v-2.7093"/>
    <path d="m101.79 34.853h1.162v2.7093h-1.162v-2.7093"/>
    <path d="m101.79 37.562h1.162-2.33 1.168"/>
    <path d="m100.62 37.562h1.162-2.3314 1.1694"/>
    <path d="m99.452 37.562h1.1624v-3.6237h-1.1624v3.6237"/>
    <path d="m99.452 33.938h1.1624v-3.6237h-1.1624v3.6237"/>
    <path d="m99.452 30.315h1.1624l-0.032-1.0072h-1.1624l0.032 1.0072"/>
    <path d="m99.42 29.308h1.1624l-0.171-0.991h-1.1624l0.171 0.991"/>
    <path d="m99.249 28.317h1.1624l-0.35-0.7254h-1.1624l0.35 0.7254"/>
    <path d="m98.899 27.591h1.1624l-0.4627-0.6631h-1.1624l0.4627 0.6631"/>
    <path d="m98.436 26.928h1.1624l1.0157-0.7112h-1.1624l-1.0157 0.7112"/>
    <path d="m99.452 26.217h1.1624l1.016-0.7112h-1.162l-1.0164 0.7112"/>
    <path d="m100.47 25.506h1.162l0.561 0.5916h-1.162l-0.561-0.5916"/>
    <path d="m101.03 26.097h1.162l0.371 0.7292h-1.162l-0.371-0.7292"/>
    <path d="m101.4 26.826h1.162l0.305 1.1313h-1.162l-0.305-1.1313"/>
    <path d="m101.7 27.958h1.162l0.084 1.1716h-1.162l-0.084-1.1716"/>
    <path d="m101.79 29.129h1.162v0.4911h-1.162v-0.4911"/>
    <path d="m101.79 29.62h1.162v0.4911h-1.162v-0.4911"/>
    <path d="m101.79 30.112h2.33-2.33"/>
    <path d="m102.96 30.112h2.331-2.331"/>
    <path d="m104.13 30.112h1.162v-2.2014h-1.162v2.2014"/>
    <path d="m104.13 27.91h1.162v-2.2013h-1.162v2.2013"/>
    <path d="m104.13 25.709h2.33-2.33"/>
    <path d="m105.29 25.709h2.331-2.331"/>
    <path d="m106.46 25.709h1.162v5.9267h-1.162v-5.9267"/>
    <path d="m106.46 31.636h1.162v5.9266h-1.162v-5.9266"/>
    <path d="m106.46 37.562h1.162-2.331 1.169"/>
    <path d="m105.29 37.562h1.162-2.33 1.168"/>
    <path d="m104.13 37.562h1.162-1.162"/>
    <path d="m90.579 32.431h1.1624v-0.7958h-1.1624v0.7958"/>
    <path d="m90.579 31.636h1.1624v-0.7959h-1.1624v0.7959"/>
    <path d="m90.579 30.84h1.1624l0.0476-1.3732h-1.1624l-0.0476 1.3732"/>
    <path d="m90.626 29.466h1.1624l0.291-1.3361h-1.1624l-0.291 1.3361"/>
    <path d="m90.918 28.13h1.1624l0.6677-0.8498h-1.1624l-0.6677 0.8498"/>
    <path d="m91.585 27.281h1.1624l0.7717-0.7589h-1.1624l-0.7717 0.7589"/>
    <path d="m92.357 26.522h1.1624l0.766-0.6253h-1.1624l-0.766 0.6253"/>
    <path d="m93.123 25.896h1.1624l0.8934-0.3907h-1.1624l-0.8934 0.3907"/>
    <path d="m94.016 25.506h1.1624l1.1547 0.3549h-1.1624l-1.1547-0.3549"/>
    <path d="m95.171 25.861h1.1624l0.9789 0.7288h-1.1624l-0.9789-0.7288"/>
    <path d="m96.15 26.589h1.1624l0.9429 1.0622h-1.1624l-0.9429-1.0622"/>
    <path d="m97.093 27.652h1.1624l0.5811 1.2916h-1.1624l-0.5811-1.2916"/>
    <path d="m97.674 28.943h1.1624l-0.9398 0.6519h-1.1624l0.9398-0.6519"/>
    <path d="m96.734 29.595h1.1624l-0.9398 0.6519h-1.1624l0.9398-0.6519"/>
    <path d="m95.794 30.247h1.1624l-0.353-0.8795h-1.1624l0.353 0.8795"/>
    <path d="m95.441 29.368h1.1624l-0.5106-0.7969h-1.1624l0.5106 0.7969"/>
    <path d="m94.931 28.571h1.1624l-0.3691-0.4474h-1.1624l0.3691 0.4474"/>
    <path d="m94.562 28.123h1.1624l-0.4606-0.3315h-1.1624l0.4606 0.3315"/>
    <path d="m94.101 27.792h1.1624l-0.5619 0.3101h-1.1624l0.5619-0.3101"/>
    <path d="m93.539 28.102h1.1624l-0.4033 0.5196h-1.1624l0.4033-0.5196"/>
    <path d="m93.136 28.621h1.1624l-0.1939 1.0966h-1.1624l0.1939-1.0966"/>
    <path d="m92.942 29.718h1.1624l-0.0262 1.1217h-1.1624l0.0262-1.1217"/>
    <path d="m92.916 30.84h1.1624v0.7959h-1.1624v-0.7959"/>
    <path d="m92.916 31.636h1.1624v0.7958h-1.1624v-0.7958"/>
    <path d="m92.916 32.431h1.1624l0.0249 1.1219h-1.1624l-0.0249-1.1219"/>
    <path d="m92.941 33.553h1.1624l0.1952 1.0964h-1.1624l-0.1952-1.0964"/>
    <path d="m93.136 34.65h1.1624l0.4033 0.5196h-1.1624l-0.4033-0.5196"/>
    <path d="m93.539 35.169h1.1624l0.5619 0.3101h-1.1624l-0.5619-0.3101"/>
    <path d="m94.101 35.479h1.1624l0.4533-0.2743h-1.1624l-0.4533 0.2743"/>
    <path d="m94.554 35.205h1.1624l0.3764-0.3861h-1.1624l-0.3764 0.3861"/>
    <path d="m94.931 34.819h1.1624l0.5072-0.7024h-1.1624l-0.5072 0.7024"/>
    <path d="m95.438 34.117h1.1624l0.3564-0.7877h-1.1624l-0.3564 0.7877"/>
    <path d="m95.794 33.329h1.1624l0.9398 0.6604h-1.1624l-0.9398-0.6604"/>
    <path d="m96.734 33.989h1.1624l0.9398 0.6604h-1.1624l-0.9398-0.6604"/>
    <path d="m97.674 34.65h1.1624l-0.5934 1.193h-1.1624l0.5934-1.193"/>
    <path d="m97.08 35.843h1.1624l-0.9306 0.9575h-1.1624l0.9306-0.9575"/>
    <path d="m96.15 36.8h1.1624l-0.9938 0.6566h-1.1624l0.9938-0.6566"/>
    <path d="m95.156 37.457h1.1624l-1.1398 0.3086h-1.1624l1.1398-0.3086"/>
    <path d="m94.016 37.765h1.1624l-0.8934-0.3907h-1.1624l0.8934 0.3907"/>
    <path d="m93.123 37.375h1.1624l-0.766-0.6253h-1.1624l0.766 0.6253"/>
    <path d="m92.357 36.749h1.1624l-0.7717-0.7589h-1.1624l0.7717 0.7589"/>
    <path d="m91.585 35.99h1.1624l-0.6677-0.8497h-1.1624l0.6677 0.8497"/>
    <path d="m90.918 35.141h1.1624l-0.291-1.3362h-1.1624l0.291 1.3362"/>
    <path d="m90.626 33.805h1.1624l-0.0476-1.3732h-1.1624l0.0476 1.3732"/>
    <path d="m90.579 32.431h1.1624-1.1624"/>
    <path d="m90.579 32.431h1.1624-1.1624"/>
    <path d="m90.579 32.431h1.1624-1.1624"/>
    <path d="m86.87 37.562h1.1624v-5.9266h-1.1624v5.9266"/>
    <path d="m86.87 31.636h1.1624v-5.9267h-1.1624v5.9267"/>
    <path d="m86.87 25.709h2.3308-2.3308"/>
    <path d="m88.039 25.709h2.3308-2.3308"/>
    <path d="m89.207 25.709h1.1624v5.9267h-1.1624v-5.9267"/>
    <path d="m89.207 31.636h1.1624v5.9266h-1.1624v-5.9266"/>
    <path d="m89.207 37.562h1.1624-2.3308 1.1684"/>
    <path d="m88.039 37.562h1.1624-2.3308 1.1684"/>
    <path d="m86.87 37.562h1.1624-1.1624"/>
    <path d="m81.452 30.349h2.678-2.678"/>
    <path d="m82.967 30.349h2.6779-2.6779"/>
    <path d="m84.483 30.349h1.1624v1.0245h-1.1624v-1.0245"/>
    <path d="m84.483 31.373h1.1624v1.0245h-1.1624v-1.0245"/>
    <path d="m84.483 32.398h1.1624-2.6779 1.5155"/>
    <path d="m82.967 32.398h1.1624-2.678 1.5156"/>
    <path d="m81.452 32.398h1.1624v1.5578h-1.1624v-1.5578"/>
    <path d="m81.452 33.955h1.1624v1.5579h-1.1624v-1.5579"/>
    <path d="m81.452 35.513h3.186-3.186"/>
    <path d="m83.475 35.513h3.1859-3.1859"/>
    <path d="m85.499 35.513h1.1624v1.0245h-1.1624v-1.0245"/>
    <path d="m85.499 36.538h1.1624v1.0244h-1.1624v-1.0244"/>
    <path d="m85.499 37.562h1.1624-4.3543 3.1919"/>
    <path d="m82.307 37.562h1.1624-4.3543 3.1919"/>
    <path d="m79.115 37.562h1.1624v-5.2154h-1.1624v5.2154"/>
    <path d="m79.115 32.347h1.1624v-5.2155h-1.1624v5.2155"/>
    <path d="m79.115 27.131h1.1624l1.1683-0.8128h-1.1624l-1.1683 0.8128"/>
    <path d="m80.283 26.318h1.1624l1.1684-0.8128h-1.1624l-1.1684 0.8128"/>
    <path d="m81.452 25.506h3.0505-3.0505"/>
    <path d="m83.34 25.506h3.0505-3.0505"/>
    <path d="m85.228 25.506h1.1624v1.0329h-1.1624v-1.0329"/>
    <path d="m85.228 26.539h1.1624v1.033h-1.1624v-1.033"/>
    <path d="m85.228 27.572h1.1624-2.7372 1.5748"/>
    <path d="m83.653 27.572h1.1624-2.7372 1.5748"/>
    <path d="m82.078 27.572h1.1624l-0.3133 0.2201h-1.1624l0.3133-0.2201"/>
    <path d="m81.765 27.792h1.1624l-0.3133 0.2201h-1.1624l0.3133-0.2201"/>
    <path d="m81.452 28.012h1.1624v1.1684h-1.1624v-1.1684"/>
    <path d="m81.452 29.18h1.1624v1.1684h-1.1624v-1.1684"/>
    <path d="m81.452 30.349h1.1624-1.1624"/>
    <path d="m72.274 26.437h1.1624l0.8804-0.5595h-1.1624l-0.8804 0.5595"/>
    <path d="m73.154 25.878h1.1624l0.9654-0.3718h-1.1624l-0.9654 0.3718"/>
    <path d="m74.12 25.506h1.1624l0.8093 0.344h-1.1624l-0.8093-0.344"/>
    <path d="m74.929 25.85h1.1624l0.6977 0.5535h-1.1624l-0.6977-0.5535"/>
    <path d="m75.627 26.403h1.1624l0.6738 0.597h-1.1624l-0.6738-0.597"/>
    <path d="m76.301 27h1.1624l0.6131 0.656h-1.1624l-0.6131-0.656"/>
    <path d="m76.914 27.656h1.1624l0.2005 0.4542h-1.1624l-0.2005-0.4542"/>
    <path d="m77.114 28.11h1.1624l0.0535 0.4941h-1.1624l-0.0535-0.4941"/>
    <path d="m77.168 28.604h1.1624l-0.0234 0.6993h-1.1624l0.0234-0.6993"/>
    <path d="m77.144 29.304h1.1624l-0.1628 0.6723h-1.1624l0.1628-0.6723"/>
    <path d="m76.982 29.976h1.1624l-0.5177 0.6622h-1.1624l0.5177-0.6622"/>
    <path d="m76.464 30.638h1.1624l-0.583 0.6078h-1.1624l0.583-0.6078"/>
    <path d="m75.881 31.246h1.1624l0.6981 0.7085h-1.1624l-0.6981-0.7085"/>
    <path d="m76.579 31.955h1.1624l0.5888 0.7986h-1.1624l-0.5888-0.7986"/>
    <path d="m77.168 32.753h1.1624l0.1834 1.0785h-1.1624l-0.1834-1.0785"/>
    <path d="m77.351 33.832h1.1624l0.1045 1.0889h-1.1624l-0.1045-1.0889"/>
    <path d="m77.456 34.921h1.1624l0.0998 1.3198h-1.1624l-0.0998-1.3198"/>
    <path d="m77.555 36.24h1.1624l0.0526 1.3218h-1.1624l-0.0526-1.3218"/>
    <path d="m77.608 37.562h1.1624-2.4324 1.27"/>
    <path d="m76.338 37.562h1.1624-2.4324 1.27"/>
    <path d="m75.068 37.562h1.1624l-0.0468-1.1944h-1.1624l0.0468 1.1944"/>
    <path d="m75.021 36.368h1.1624l-0.0886-1.1932h-1.1624l0.0886 1.1932"/>
    <path d="m74.933 35.175h1.1624l-0.1003-0.9908h-1.1624l0.1003 0.9908"/>
    <path d="m74.832 34.184h1.1624l-0.2045-0.9734h-1.1624l0.2045 0.9734"/>
    <path d="m74.628 33.21h1.1624l-0.165-0.3106h-1.1624l0.165 0.3106"/>
    <path d="m74.463 32.9h1.1624l-0.2076-0.2821h-1.1624l0.2076 0.2821"/>
    <path d="m74.255 32.618h1.1624-1.9159 0.7535"/>
    <path d="m73.502 32.618h1.1624-1.9159 0.7535"/>
    <path d="m72.748 32.618h1.1624v2.4723h-1.1624v-2.4723"/>
    <path d="m72.748 35.09h1.1624v2.4722h-1.1624v-2.4722"/>
    <path d="m72.748 37.562h1.1624-2.3308 1.1684"/>
    <path d="m71.58 37.562h1.1624-2.3308 1.1684"/>
    <path d="m70.411 37.562h1.1624v-3.7084h-1.1624v3.7084"/>
    <path d="m70.411 33.854h1.1624v-3.7084h-1.1624v3.7084"/>
    <path d="m70.411 30.145h1.1624l-0.0321-0.9565h-1.1624l0.0321 0.9565"/>
    <path d="m70.379 29.189h1.1624l-0.1711-0.94h-1.1624l0.1711 0.94"/>
    <path d="m70.208 28.249h1.1624l-0.354-0.6925h-1.1624l0.354 0.6925"/>
    <path d="m69.854 27.556h1.1624l-0.4588-0.6283h-1.1624l0.4588 0.6283"/>
    <path d="m69.395 26.928h1.1624l1.016-0.7112h-1.1624l-1.016 0.7112"/>
    <path d="m70.411 26.217h1.1624l1.016-0.7112h-1.1624l-1.016 0.7112"/>
    <path d="m71.427 25.506h1.1624l0.4826 0.4106h-1.1624l-0.4826-0.4106"/>
    <path d="m71.91 25.916h1.1624l0.364 0.5207h-1.1624l-0.364-0.5207"/>
    <path d="m72.274 26.437h1.1624-1.1624"/>
    <path d="m72.274 26.437h1.1624-1.1624"/>
    <path d="m72.274 26.437h1.1624-1.1624"/>
    <path d="m72.748 29.333h1.1624v0.652h-1.1624v-0.652"/>
    <path d="m72.748 29.985h1.1624v0.6519h-1.1624v-0.6519"/>
    <path d="m72.748 30.636h1.4926-1.4926"/>
    <path d="m73.078 30.636h1.4926-1.4926"/>
    <path d="m73.409 30.636h1.1624l0.3342-0.1348h-1.1624l-0.3342 0.1348"/>
    <path d="m73.743 30.502h1.1624l0.2754-0.2377h-1.1624l-0.2754 0.2377"/>
    <path d="m74.018 30.264h1.1624l0.2661-0.2933h-1.1624l-0.2661 0.2933"/>
    <path d="m74.284 29.971h1.1624l0.208-0.3333h-1.1624l-0.208 0.3333"/>
    <path d="m74.492 29.637h1.1624l0.0884-0.273h-1.1624l-0.0884 0.273"/>
    <path d="m74.581 29.364h1.1624l0.0301-0.2858h-1.1624l-0.0301 0.2858"/>
    <path d="m74.611 29.079h1.1624l-0.0273-0.261h-1.1624l0.0273 0.261"/>
    <path d="m74.584 28.818h1.1624l-0.0912-0.247h-1.1624l0.0912 0.247"/>
    <path d="m74.492 28.571h1.1624l-0.1391-0.2703h-1.1624l0.1391 0.2703"/>
    <path d="m74.353 28.3h1.1624l-0.1657-0.2546h-1.1624l0.1657 0.2546"/>
    <path d="m74.188 28.046h1.1624l-0.1443-0.1768h-1.1624l0.1443 0.1768"/>
    <path d="m74.043 27.869h1.1624l-0.1944-0.1111h-1.1624l0.1944 0.1111"/>
    <path d="m73.849 27.758h1.1624l-0.5824 0.0682h-1.1624l0.5824-0.0682"/>
    <path d="m73.266 27.826h1.1624l-0.569 0.152h-1.1624l0.569-0.152"/>
    <path d="m72.697 27.978h1.1624l0.0384 0.6768h-1.1624l-0.0384-0.6768"/>
    <path d="m72.736 28.655h1.1624l0.0124 0.6778h-1.1624l-0.0124-0.6778"/>
    <path d="m72.748 29.333h1.1624-1.1624"/>
    <path d="m72.748 29.333h1.1624-1.1624"/>
    <path d="m72.748 29.333h1.1624-1.1624"/>
    <path d="m127.3 7.9349 1.162 1e-5v1.016l-1.162-1e-5v-1.016"/>
    <path d="m127.3 8.9509 1.162 1e-5v1.016l-1.162-1e-5v-1.016"/>
    <path d="m127.3 9.9669 1.162 1e-5h-1.101l-1.162-1e-5h1.101"/>
    <path d="m126.2 9.9669 1.162 1e-5h-1.1l-1.162-1e-5h1.1"/>
    <path d="m125.1 9.9669 1.162 1e-5v4.9106h-1.162v-4.9106"/>
    <path d="m125.1 14.878h1.162v4.9107h-1.162v-4.9107"/>
    <path d="m125.1 19.788h1.162-2.331 1.169"/>
    <path d="m123.93 19.788h1.162-2.33 1.168"/>
    <path d="m122.76 19.788h1.162v-4.9107h-1.162v4.9107"/>
    <path d="m122.76 14.878h1.162v-4.9106l-1.162-1e-5v4.9106"/>
    <path d="m122.76 9.9669 1.162 1e-5h-1.101l-1.162-1e-5h1.101"/>
    <path d="m121.66 9.9669 1.162 1e-5h-1.1l-1.162-1e-5h1.1"/>
    <path d="m120.56 9.9669 1.162 1e-5v-1.016l-1.162-1e-5v1.016"/>
    <path d="m120.56 8.9509 1.162 1e-5v-1.016l-1.162-1e-5v1.016"/>
    <path d="m120.56 7.9349 1.162 1e-5h3.369l-1.162-1e-5h-3.369"/>
    <path d="m123.93 7.9349 1.162 1e-5h3.37l-1.162-1e-5h-3.37"/>
    <path d="m127.3 7.9349 1.162 1e-5 -1.162-1e-5"/>
    <path d="m115.89 12.575h2.678-2.678"/>
    <path d="m117.4 12.575h2.677-2.677"/>
    <path d="m118.92 12.575h1.162v1.0245h-1.162v-1.0245"/>
    <path d="m118.92 13.599h1.162v1.0244h-1.162v-1.0244"/>
    <path d="m118.92 14.624h1.162-2.677 1.515"/>
    <path d="m117.4 14.624h1.162-2.678 1.516"/>
    <path d="m115.89 14.624h1.162v1.5579h-1.162v-1.5579"/>
    <path d="m115.89 16.181h1.162v1.5579h-1.162v-1.5579"/>
    <path d="m115.89 17.739h3.186-3.186"/>
    <path d="m117.91 17.739h3.185-3.185"/>
    <path d="m119.93 17.739h1.162v1.0244h-1.162v-1.0244"/>
    <path d="m119.93 18.764h1.162v1.0245h-1.162v-1.0245"/>
    <path d="m119.93 19.788h1.162-4.354 3.192"/>
    <path d="m116.74 19.788h1.162-4.354 3.192"/>
    <path d="m113.55 19.788h1.162v-5.2155h-1.162v5.2155"/>
    <path d="m113.55 14.573h1.162v-5.2154l-1.162-1e-5v5.2154"/>
    <path d="m113.55 9.3573 1.162 1e-5 1.169-0.8128-1.162-1e-5 -1.169 0.8128"/>
    <path d="m114.72 8.5445 1.162 1e-5 1.168-0.8128-1.162-1e-5 -1.168 0.8128"/>
    <path d="m115.89 7.7317 1.162 1e-5h1.888l-1.162-1e-5h-1.888"/>
    <path d="m117.77 7.7317 1.162 1e-5h1.888l-1.162-1e-5h-1.888"/>
    <path d="m119.66 7.7317 1.162 1e-5v1.0329l-1.162-1e-5v-1.0329"/>
    <path d="m119.66 8.7646 1.162 1e-5v1.0329l-1.162-1e-5v-1.0329"/>
    <path d="m119.66 9.7975 1.162 1e-5h-1.575l-1.162-1e-5h1.575"/>
    <path d="m118.09 9.7975 1.162 1e-5h-1.574l-1.162-1e-5h1.574"/>
    <path d="m116.51 9.7975 1.162 1e-5 -0.314 0.22017h-1.162l0.314-0.22018"/>
    <path d="m116.2 10.018h1.162l-0.313 0.2201h-1.162l0.313-0.2201"/>
    <path d="m115.89 10.238h1.162v1.1684h-1.162v-1.1684"/>
    <path d="m115.89 11.406h1.162v1.1684h-1.162v-1.1684"/>
    <path d="m115.89 12.575h1.162-1.162"/>
    <path d="m106.71 8.663 1.162 1e-5 0.881-0.55953-1.162-1e-5 -0.881 0.55953"/>
    <path d="m107.59 8.1035 1.162 1e-5 0.965-0.3718-1.162-1e-5 -0.965 0.3718"/>
    <path d="m108.55 7.7317 1.162 1e-5 0.809 0.34403-1.162-1e-5 -0.809-0.34403"/>
    <path d="m109.36 8.0757 1.162 1e-5 0.698 0.55344-1.162-1e-5 -0.698-0.55344"/>
    <path d="m110.06 8.6291 1.162 1e-5 0.674 0.59703-1.162-1e-5 -0.674-0.59703"/>
    <path d="m110.74 9.2262 1.162 1e-5 0.613 0.65603-1.162-1e-5 -0.613-0.65603"/>
    <path d="m111.35 9.8822 1.162 1e-5 0.2 0.4542h-1.162l-0.2-0.45421"/>
    <path d="m111.55 10.336h1.162l0.054 0.4941h-1.162l-0.054-0.4941"/>
    <path d="m111.6 10.83h1.162l-0.024 0.6993h-1.162l0.024-0.6993"/>
    <path d="m111.58 11.53h1.162l-0.162 0.6723h-1.162l0.162-0.6723"/>
    <path d="m111.42 12.202h1.162l-0.518 0.6622h-1.162l0.518-0.6622"/>
    <path d="m110.9 12.864h1.162l-0.583 0.6078h-1.162l0.583-0.6078"/>
    <path d="m110.32 13.472h1.162l0.698 0.7085h-1.162l-0.698-0.7085"/>
    <path d="m111.01 14.181h1.162l0.589 0.7985h-1.162l-0.589-0.7985"/>
    <path d="m111.6 14.979h1.162l0.183 1.0786h-1.162l-0.183-1.0786"/>
    <path d="m111.78 16.058h1.162l0.105 1.0889h-1.162l-0.105-1.0889"/>
    <path d="m111.89 17.147h1.162l0.1 1.3197h-1.162l-0.1-1.3197"/>
    <path d="m111.99 18.466h1.162l0.052 1.3219h-1.162l-0.052-1.3219"/>
    <path d="m112.04 19.788h1.162-2.432 1.27"/>
    <path d="m110.77 19.788h1.162-2.432 1.27"/>
    <path d="m109.5 19.788h1.162l-0.047-1.1944h-1.162l0.047 1.1944"/>
    <path d="m109.46 18.594h1.162l-0.088-1.1932h-1.162l0.088 1.1932"/>
    <path d="m109.37 17.401h1.162l-0.101-0.9908h-1.162l0.101 0.9908"/>
    <path d="m109.27 16.41h1.162l-0.204-0.9735h-1.162l0.204 0.9735"/>
    <path d="m109.06 15.436h1.162l-0.165-0.3105h-1.162l0.165 0.3105"/>
    <path d="m108.9 15.126h1.162l-0.208-0.2821h-1.162l0.208 0.2821"/>
    <path d="m108.69 14.844h1.162-1.915 0.753"/>
    <path d="m107.94 14.844h1.162-1.916 0.754"/>
    <path d="m107.18 14.844h1.162v2.4722h-1.162v-2.4722"/>
    <path d="m107.18 17.316h1.162v2.4723h-1.162v-2.4723"/>
    <path d="m107.18 19.788h1.162-2.33 1.168"/>
    <path d="m106.01 19.788h1.162-2.33 1.168"/>
    <path d="m104.85 19.788h1.162v-3.7084h-1.162v3.7084"/>
    <path d="m104.85 16.08h1.162v-3.7084h-1.162v3.7084"/>
    <path d="m104.85 12.371h1.162l-0.033-0.9566h-1.162l0.033 0.9566"/>
    <path d="m104.81 11.415h1.162l-0.171-0.9399h-1.162l0.171 0.9399"/>
    <path d="m104.64 10.475h1.162l-0.354-0.69256-1.162-1e-5 0.354 0.69257"/>
    <path d="m104.29 9.7823 1.162 1e-5 -0.458-0.62827-1.162-1e-5 0.458 0.62827"/>
    <path d="m103.83 9.1541 1.162 1e-5 1.016-0.7112-1.162-1e-5 -1.016 0.7112"/>
    <path d="m104.85 8.4429 1.162 1e-5 1.016-0.7112-1.162-1e-5 -1.016 0.7112"/>
    <path d="m105.86 7.7317 1.162 1e-5 0.482 0.41063-1.162-1e-5 -0.482-0.41063"/>
    <path d="m106.34 8.1423 1.162 1e-5 0.364 0.5207-1.162-1e-5 -0.364-0.5207"/>
    <path d="m106.71 8.663 1.162 1e-5 -1.162-1e-5"/>
    <path d="m106.71 8.663 1.162 1e-5 -1.162-1e-5"/>
    <path d="m106.71 8.663 1.162 1e-5 -1.162-1e-5"/>
    <path d="m107.18 11.559h1.162v0.6519h-1.162v-0.6519"/>
    <path d="m107.18 12.21h1.162v0.652h-1.162v-0.652"/>
    <path d="m107.18 12.862h1.493-1.493"/>
    <path d="m107.51 12.862h1.492-1.492"/>
    <path d="m107.84 12.862h1.162l0.334-0.1348h-1.162l-0.334 0.1348"/>
    <path d="m108.18 12.728h1.162l0.275-0.2378h-1.162l-0.275 0.2378"/>
    <path d="m108.45 12.49h1.162l0.266-0.2932h-1.162l-0.266 0.2932"/>
    <path d="m108.72 12.197h1.162l0.208-0.3333h-1.162l-0.208 0.3333"/>
    <path d="m108.93 11.863h1.162l0.089-0.273h-1.162l-0.089 0.273"/>
    <path d="m109.02 11.59h1.162l0.03-0.2858h-1.162l-0.03 0.2858"/>
    <path d="m109.04 11.305h1.162l-0.027-0.261h-1.162l0.027 0.261"/>
    <path d="m109.02 11.044h1.162l-0.092-0.247h-1.162l0.092 0.247"/>
    <path d="m108.93 10.797h1.162l-0.139-0.2703h-1.162l0.139 0.2703"/>
    <path d="m108.79 10.526h1.162l-0.165-0.2546h-1.162l0.165 0.2546"/>
    <path d="m108.62 10.272h1.162l-0.145-0.1769h-1.162l0.145 0.1769"/>
    <path d="m108.48 10.095h1.162l-0.194-0.111-1.162-1e-5 0.194 0.11101"/>
    <path d="m108.28 9.9838 1.162 1e-5 -0.582 0.0682h-1.162l0.582-0.06821"/>
    <path d="m107.7 10.052h1.162l-0.569 0.1519h-1.162l0.569-0.1519"/>
    <path d="m107.13 10.204h1.162l0.038 0.6768h-1.162l-0.038-0.6768"/>
    <path d="m107.17 10.881h1.162l0.012 0.6779h-1.162l-0.012-0.6779"/>
    <path d="m107.18 11.559h1.162-1.162"/>
    <path d="m107.18 11.559h1.162-1.162"/>
    <path d="m107.18 11.559h1.162-1.162"/>
    <path d="m95.972 14.657h1.1624v-0.7959h-1.1624v0.7959"/>
    <path d="m95.972 13.862h1.1624v-0.7958h-1.1624v0.7958"/>
    <path d="m95.972 13.066h1.1624l0.0476-1.3732h-1.1624l-0.0476 1.3732"/>
    <path d="m96.02 11.692h1.1624l0.2911-1.3362h-1.1624l-0.2911 1.3362"/>
    <path d="m96.311 10.356h1.1624l0.6677-0.8497-1.1624-1e-5 -0.6677 0.84971"/>
    <path d="m96.978 9.5066 1.1624 1e-5 0.7716-0.75893-1.1624-1e-5 -0.7716 0.75893"/>
    <path d="m97.75 8.7477 1.1624 1e-5 0.766-0.6253-1.1624-1e-5 -0.766 0.6253"/>
    <path d="m98.516 8.1224 1.1624 1e-5 0.8935-0.3907-1.1624-1e-5 -0.8935 0.3907"/>
    <path d="m99.41 7.7317 1.1624 1e-5 1.155 0.35491-1.162-1e-5 -1.1554-0.35491"/>
    <path d="m100.56 8.0866 1.162 1e-5 0.979 0.72882-1.162-1e-5 -0.979-0.72882"/>
    <path d="m101.54 8.8154 1.162 1e-5 0.942 1.0622-1.162-1e-5 -0.942-1.0622"/>
    <path d="m102.49 9.8776 1.162 1e-5 0.582 1.2915h-1.162l-0.582-1.2915"/>
    <path d="m103.07 11.169h1.162l-0.94 0.652h-1.162l0.94-0.652"/>
    <path d="m102.13 11.821h1.162l-0.94 0.6519h-1.162l0.94-0.6519"/>
    <path d="m101.19 12.473h1.162l-0.353-0.8796h-1.162l0.353 0.8796"/>
    <path d="m100.84 11.593h1.162l-0.511-0.7968h-1.162l0.511 0.7968"/>
    <path d="m100.32 10.797h1.162l-0.369-0.4475h-1.1624l0.3694 0.4475"/>
    <path d="m99.955 10.349h1.1624l-0.46-0.3314h-1.1624l0.46 0.3314"/>
    <path d="m99.495 10.018h1.1624l-0.562 0.3101h-1.1624l0.562-0.3101"/>
    <path d="m98.933 10.328h1.1624l-0.4036 0.5196h-1.1624l0.4036-0.5196"/>
    <path d="m98.529 10.847h1.1624l-0.1939 1.0965h-1.1624l0.1939-1.0965"/>
    <path d="m98.335 11.944h1.1624l-0.0262 1.1218h-1.1624l0.0262-1.1218"/>
    <path d="m98.309 13.066h1.1624v0.7958h-1.1624v-0.7958"/>
    <path d="m98.309 13.862h1.1624v0.7959h-1.1624v-0.7959"/>
    <path d="m98.309 14.657h1.1624l0.025 1.1219h-1.1624l-0.025-1.1219"/>
    <path d="m98.334 15.779h1.1624l0.1951 1.0964h-1.1624l-0.1951-1.0964"/>
    <path d="m98.529 16.876h1.1624l0.4036 0.5196h-1.1624l-0.4036-0.5196"/>
    <path d="m98.933 17.395h1.1624l0.562 0.3101h-1.1624l-0.562-0.3101"/>
    <path d="m99.495 17.705h1.1624l0.453-0.2744h-1.1624l-0.453 0.2744"/>
    <path d="m99.948 17.431h1.1624l0.376-0.386h-1.162l-0.3764 0.386"/>
    <path d="m100.32 17.045h1.162l0.508-0.7025h-1.162l-0.508 0.7025"/>
    <path d="m100.83 16.342h1.162l0.356-0.7876h-1.162l-0.356 0.7876"/>
    <path d="m101.19 15.555h1.162l0.94 0.6604h-1.162l-0.94-0.6604"/>
    <path d="m102.13 16.215h1.162l0.94 0.6604h-1.162l-0.94-0.6604"/>
    <path d="m103.07 16.876h1.162l-0.594 1.193h-1.162l0.594-1.193"/>
    <path d="m102.47 18.069h1.162l-0.93 0.9575h-1.162l0.93-0.9575"/>
    <path d="m101.54 19.026h1.162l-0.994 0.6566h-1.162l0.994-0.6566"/>
    <path d="m100.55 19.683h1.162l-1.14 0.3086h-1.1624l1.1404-0.3086"/>
    <path d="m99.41 19.991h1.1624l-0.8935-0.3907h-1.1624l0.8935 0.3907"/>
    <path d="m98.516 19.601h1.1624l-0.766-0.6253h-1.1624l0.766 0.6253"/>
    <path d="m97.75 18.975h1.1624l-0.7716-0.7589h-1.1624l0.7716 0.7589"/>
    <path d="m96.978 18.216h1.1624l-0.6677-0.8498h-1.1624l0.6677 0.8498"/>
    <path d="m96.311 17.367h1.1624l-0.2911-1.3361h-1.1624l0.2911 1.3361"/>
    <path d="m96.02 16.031h1.1624l-0.0476-1.3732h-1.1624l0.0476 1.3732"/>
    <path d="m95.972 14.657h1.1624-1.1624"/>
    <path d="m95.972 14.657h1.1624-1.1624"/>
    <path d="m95.972 14.657h1.1624-1.1624"/>
    <path d="m91.078 12.575h2.6779-2.6779"/>
    <path d="m92.594 12.575h2.6779-2.6779"/>
    <path d="m94.109 12.575h1.1624v1.0245h-1.1624v-1.0245"/>
    <path d="m94.109 13.599h1.1624v1.0244h-1.1624v-1.0244"/>
    <path d="m94.109 14.624h1.1624-2.6779 1.5155"/>
    <path d="m92.594 14.624h1.1624-2.6779 1.5155"/>
    <path d="m91.078 14.624h1.1624v1.5579h-1.1624v-1.5579"/>
    <path d="m91.078 16.181h1.1624v1.5579h-1.1624v-1.5579"/>
    <path d="m91.078 17.739h3.1859-3.1859"/>
    <path d="m93.102 17.739h3.1859-3.1859"/>
    <path d="m95.125 17.739h1.1624v1.0244h-1.1624v-1.0244"/>
    <path d="m95.125 18.764h1.1624v1.0245h-1.1624v-1.0245"/>
    <path d="m95.125 19.788h1.1624-4.3543 3.1919"/>
    <path d="m91.934 19.788h1.1624-4.3543 3.1919"/>
    <path d="m88.742 19.788h1.1624v-5.2155h-1.1624v5.2155"/>
    <path d="m88.742 14.573h1.1624v-5.2154l-1.1624-1e-5v5.2154"/>
    <path d="m88.742 9.3573 1.1624 1e-5 1.1684-0.8128-1.1624-1e-5 -1.1684 0.8128"/>
    <path d="m89.91 8.5445 1.1624 1e-5 1.1684-0.8128-1.1624-1e-5 -1.1684 0.8128"/>
    <path d="m91.078 7.7317 1.1624 1e-5h1.888l-1.1624-1e-5h-1.888"/>
    <path d="m92.966 7.7317 1.1624 1e-5h1.8881l-1.1624-1e-5h-1.8881"/>
    <path d="m94.854 7.7317 1.1624 1e-5v1.0329l-1.1624-1e-5v-1.0329"/>
    <path d="m94.854 8.7646 1.1624 1e-5v1.0329l-1.1624-1e-5v-1.0329"/>
    <path d="m94.854 9.7975 1.1624 1e-5h-1.5748l-1.1624-1e-5h1.5748"/>
    <path d="m93.28 9.7975 1.1624 1e-5h-1.5748l-1.1624-1e-5h1.5748"/>
    <path d="m91.705 9.7975 1.1624 1e-5 -0.3132 0.22017h-1.1624l0.3132-0.22018"/>
    <path d="m91.392 10.018h1.1624l-0.3133 0.2201h-1.1624l0.3133-0.2201"/>
    <path d="m91.078 10.238h1.1624v1.1684h-1.1624v-1.1684"/>
    <path d="m91.078 11.406h1.1624v1.1684h-1.1624v-1.1684"/>
    <path d="m91.078 12.575h1.1624-1.1624"/>
    <path d="m87.285 15.013h1.1624l0.1579 0.5978h-1.1624l-0.1579-0.5978"/>
    <path d="m87.443 15.611h1.1624l0.0284 0.6214h-1.1624l-0.0284-0.6214"/>
    <path d="m87.472 16.232h1.1624l-0.0832 0.7878h-1.1624l0.0832-0.7878"/>
    <path d="m87.388 17.02h1.1624l-0.2893 0.7362h-1.1624l0.2893-0.7362"/>
    <path d="m87.099 17.756h1.1624l-0.6786 0.7275h-1.1624l0.6786-0.7275"/>
    <path d="m86.42 18.484h1.1624l-0.7607 0.6441h-1.1624l0.7607-0.6441"/>
    <path d="m85.66 19.128h1.1624l-0.7618 0.5367h-1.1624l0.7618-0.5367"/>
    <path d="m84.898 19.664h1.1624l-0.8638 0.3269h-1.1624l0.8638-0.3269"/>
    <path d="m84.034 19.991h1.1624l-1.1399-0.3086h-1.1624l1.1399 0.3086"/>
    <path d="m82.894 19.683h1.1624l-0.9937-0.6566h-1.1624l0.9937 0.6566"/>
    <path d="m81.901 19.026h1.1624l-0.9306-0.9575h-1.1624l0.9306 0.9575"/>
    <path d="m80.97 18.069h1.1624l-0.5934-1.193h-1.1624l0.5934 1.193"/>
    <path d="m80.377 16.876h1.1624l0.9398-0.6435h-1.1624l-0.9398 0.6435"/>
    <path d="m81.316 16.232h1.1624l0.9398-0.6435h-1.1624l-0.9398 0.6435"/>
    <path d="m82.256 15.589h1.1624l0.3572 0.772h-1.1624l-0.3572-0.772"/>
    <path d="m82.613 16.361h1.1624l0.5064 0.6843h-1.1624l-0.5064-0.6843"/>
    <path d="m83.12 17.045h1.1624l0.3764 0.386h-1.1624l-0.3764-0.386"/>
    <path d="m83.496 17.431h1.1624l0.4533 0.2744h-1.1624l-0.4533-0.2744"/>
    <path d="m83.95 17.705h1.1624l0.2726-0.0424h-1.1624l-0.2726 0.0424"/>
    <path d="m84.222 17.663h1.1624l0.2523-0.11h-1.1624l-0.2523 0.11"/>
    <path d="m84.474 17.553h1.1624l0.2331-0.1535h-1.1624l-0.2331 0.1535"/>
    <path d="m84.708 17.4h1.1624l0.2072-0.1852h-1.1624l-0.2072 0.1852"/>
    <path d="m84.915 17.214h1.1624l0.1787-0.4047h-1.1624l-0.1787 0.4047"/>
    <path d="m85.093 16.81h1.1624l0.0414-0.4419h-1.1624l-0.0414 0.4419"/>
    <path d="m85.135 16.368h1.1624l-0.0447-0.3952h-1.1624l0.0447 0.3952"/>
    <path d="m85.09 15.972h1.1624l-0.2262-0.316h-1.1624l0.2262 0.316"/>
    <path d="m84.864 15.656h1.1624l-0.6403-0.4138h-1.1624l0.6403 0.4138"/>
    <path d="m84.224 15.243h1.1624l-0.6805-0.3482h-1.1624l0.6805 0.3482"/>
    <path d="m83.543 14.894h1.1624l-0.9138-0.4812h-1.1624l0.9138 0.4812"/>
    <path d="m82.629 14.413h1.1624l-0.8811-0.5348h-1.1624l0.8811 0.5348"/>
    <path d="m81.748 13.878h1.1624l-0.6048-0.4751h-1.1624l0.6048 0.4751"/>
    <path d="m81.143 13.403h1.1624l-0.462-0.6087h-1.1624l0.462 0.6087"/>
    <path d="m80.681 12.795h1.1624l-0.175-0.6653h-1.1624l0.175 0.6653"/>
    <path d="m80.506 12.129h1.1624l-0.0452-0.6893h-1.1624l0.0452 0.6893"/>
    <path d="m80.461 11.44h1.1624l0.086-0.7628h-1.1624l-0.086 0.7628"/>
    <path d="m80.547 10.677h1.1624l0.2866-0.71043-1.1624-1e-5 -0.2866 0.71044"/>
    <path d="m80.834 9.9669 1.1624 1e-5 0.677-0.72005-1.1624-1e-5 -0.677 0.72005"/>
    <path d="m81.511 9.2468 1.1624 1e-5 0.7623-0.63462-1.1624-1e-5 -0.7623 0.63462"/>
    <path d="m82.273 8.6122 1.1624 1e-5 0.76-0.54618-1.1624-1e-5 -0.76 0.54618"/>
    <path d="m83.033 8.066 1.1624 1e-5 0.8656-0.33435-1.1624-1e-5 -0.8656 0.33435"/>
    <path d="m83.899 7.7317 1.1624 1e-5 1.1419 0.31508-1.1624-1e-5 -1.1419-0.31508"/>
    <path d="m85.041 8.0467 1.1624 1e-5 0.9917 0.66705-1.1624-1e-5 -0.9917-0.66705"/>
    <path d="m86.032 8.7138 1.1624 1e-5 0.9321 0.94745-1.1624-1e-5 -0.9321-0.94745"/>
    <path d="m86.964 9.6612 1.1624 1e-5 0.5919 1.1862h-1.1624l-0.5919-1.1862"/>
    <path d="m87.556 10.847h1.1624l-0.9398 0.6519h-1.1624l0.9398-0.6519"/>
    <path d="m86.616 11.499h1.1624l-0.9398 0.652h-1.1624l0.9398-0.652"/>
    <path d="m85.677 12.151h1.1624l-0.3573-0.772h-1.1624l0.3573 0.772"/>
    <path d="m85.319 11.379h1.1624l-0.5063-0.6843h-1.1624l0.5063 0.6843"/>
    <path d="m84.813 10.695h1.1624l-0.3813-0.3985h-1.1624l0.3813 0.3985"/>
    <path d="m84.432 10.296h1.1624l-0.4654-0.2788h-1.1624l0.4654 0.2788"/>
    <path d="m83.966 10.018h1.1624l-0.2703 0.0443h-1.1624l0.2703-0.0443"/>
    <path d="m83.696 10.062h1.1624l-0.2546 0.1081h-1.1624l0.2546-0.1081"/>
    <path d="m83.442 10.17h1.1624l-0.2578 0.1697h-1.1624l0.2578-0.1697"/>
    <path d="m83.184 10.34h1.1624l-0.2163 0.2197h-1.1624l0.2163-0.2197"/>
    <path d="m82.967 10.56h1.1624l-0.1406 0.3759h-1.1624l0.1406-0.3759"/>
    <path d="m82.827 10.935h1.1624l-0.0288 0.4031h-1.1624l0.0288-0.4031"/>
    <path d="m82.798 11.338h1.1624l0.0684 0.415h-1.1624l-0.0684-0.415"/>
    <path d="m82.866 11.754h1.1624l0.2703 0.3131h-1.1624l-0.2703-0.3131"/>
    <path d="m83.137 12.067h1.1624l0.6016 0.3974h-1.1624l-0.6016-0.3974"/>
    <path d="m83.738 12.464h1.1624l0.6345 0.3477h-1.1624l-0.6345-0.3477"/>
    <path d="m84.373 12.812h1.1624l1.5785 0.9513h-1.1624l-1.5785-0.9513"/>
    <path d="m85.951 13.763h1.1624l1.334 1.25h-1.1624l-1.334-1.25"/>
    <path d="m87.285 15.013h1.1624-1.1624"/>
    <path d="m87.285 15.013h1.1624-1.1624"/>
    <path d="m87.285 15.013h1.1624-1.1624"/>
   </g>
  </g>
  <g fill="#fff">
   <path d="m87.285 15.013c0.0757 0.1238 0.1283 0.3231 0.1579 0.5978 0.0189 0.1761 0.0284 0.3833 0.0284 0.6214 0 0.2828-0.0277 0.5454-0.0832 0.7878-0.0619 0.2705-0.1583 0.5159-0.2893 0.7362-0.1352 0.196-0.3614 0.4385-0.6786 0.7275-0.2126 0.1938-0.4662 0.4085-0.7607 0.6441-0.2824 0.2215-0.5363 0.4004-0.7618 0.5367-0.3606 0.2179-0.6485 0.3269-0.8638 0.3269-0.3511 0-0.7311-0.1029-1.1399-0.3086-0.3142-0.1581-0.6454-0.377-0.9937-0.6566-0.3742-0.3057-0.6844-0.6248-0.9306-0.9575-0.2813-0.38-0.4791-0.7777-0.5934-1.193 0 0 0.4699-0.3218 0.9398-0.6435s0.9398-0.6435 0.9398-0.6435c0.0915 0.2689 0.2106 0.5263 0.3572 0.772 0.1427 0.2391 0.3115 0.4672 0.5064 0.6843 0.1404 0.1565 0.2659 0.2852 0.3764 0.386 0.2003 0.1829 0.3514 0.2744 0.4533 0.2744 0.0893 0 0.1802-0.0141 0.2726-0.0424 0.0828-0.0253 0.1669-0.062 0.2523-0.11 0.087-0.0512 0.1647-0.1023 0.2331-0.1535 0.0826-0.0617 0.1516-0.1234 0.2072-0.1852 0.0831-0.1023 0.1427-0.2372 0.1787-0.4047 0.0276-0.1282 0.0414-0.2755 0.0414-0.4419 0-0.156-0.0149-0.2877-0.0447-0.3952-0.0436-0.1571-0.119-0.2624-0.2262-0.316-0.1358-0.1155-0.3493-0.2534-0.6403-0.4138-0.1928-0.1062-0.4196-0.2223-0.6805-0.3482-0.3155-0.155-0.6201-0.3154-0.9138-0.4812-0.3054-0.1724-0.5992-0.3507-0.8811-0.5348-0.2383-0.1605-0.4398-0.3188-0.6048-0.4751-0.218-0.2065-0.3721-0.4094-0.462-0.6087-0.0803-0.1914-0.1386-0.4131-0.175-0.6653-0.0301-0.2089-0.0452-0.4387-0.0452-0.6893 0-0.2712 0.0287-0.5255 0.086-0.7628 0.062-0.2566 0.1575-0.4934 0.2866-0.71043 0.13489-0.19566 0.36059-0.43568 0.67699-0.72005 0.2129-0.19143 0.4671-0.40298 0.7623-0.63462 0.2816-0.22529 0.535-0.40735 0.76-0.54618 0.3614-0.2229 0.6499-0.33435 0.8656-0.33435 0.3517 0 0.7323 0.10503 1.1419 0.31508 0.3136 0.16081 0.6442 0.38315 0.9917 0.66705 0.3749 0.301 0.6856 0.61682 0.9321 0.94745 0.2804 0.37615 0.4777 0.77155 0.5919 1.1861 0 0-0.4699 0.326-0.9398 0.6519l-0.9398 0.652c-0.0916-0.269-0.2107-0.5263-0.3573-0.772-0.1427-0.2391-0.3115-0.4672-0.5063-0.6843-0.1416-0.1618-0.2687-0.2947-0.3813-0.3985-0.2016-0.1859-0.3567-0.2788-0.4654-0.2788-0.0852 0-0.1753 0.0147-0.2703 0.0443-0.0813 0.0252-0.1662 0.0612-0.2546 0.1081-0.0941 0.0498-0.18 0.1064-0.2578 0.1697-0.0809 0.0659-0.153 0.1392-0.2163 0.2197-0.0664 0.0863-0.1133 0.2116-0.1406 0.3759-0.0192 0.1152-0.0288 0.2495-0.0288 0.4031 0 0.1622 0.0228 0.3006 0.0684 0.415 0.0558 0.1403 0.1459 0.2447 0.2703 0.3131 0.1118 0.0978 0.3124 0.2303 0.6016 0.3974 0.1779 0.1028 0.3895 0.2187 0.6345 0.3477 0.6229 0.3413 1.1491 0.6584 1.5785 0.9513 0.7068 0.4822 1.1515 0.8989 1.334 1.25" style="font-variant-caps:normal;font-variant-east-asian:normal;font-variant-ligatures:normal;font-variant-numeric:normal;white-space:pre"/>
   <path d="m91.078 12.575h1.5155 1.5155v1.0245 1.0244h-1.5155-1.5155v1.5579 1.5579h2.0235 2.0235v1.0244 1.0245h-3.1919-3.1919v-5.2155-5.2154l1.1684-0.8128c0.5842-0.4064 1.1684-0.8128 1.1684-0.8128h1.888 1.8881v1.0329 1.0329h-1.5748-1.5748s-0.1566 0.11007-0.3132 0.22017c-0.1567 0.11-0.3133 0.2201-0.3133 0.2201v1.1684 1.1684" style="font-variant-caps:normal;font-variant-east-asian:normal;font-variant-ligatures:normal;font-variant-numeric:normal;white-space:pre"/>
   <path d="m95.972 14.657v-0.7959-0.7958c0-0.5292 0.0159-0.9869 0.0476-1.3732 0.0529-0.6438 0.15-1.0892 0.2911-1.3362 0.1336-0.2338 0.3562-0.51704 0.6677-0.8497 0.2149-0.22947 0.4721-0.48244 0.7716-0.75893 0.283-0.25731 0.5384-0.46574 0.766-0.6253 0.37148-0.26047 0.66948-0.3907 0.89348-0.3907 0.355 0 0.74001 0.1183 1.155 0.35491 0.309 0.17685 0.63599 0.41979 0.979 0.72882 0.37999 0.33754 0.694 0.69161 0.94199 1.0622 0.27501 0.41029 0.469 0.84079 0.582 1.2915l-0.94 0.652c-0.47 0.3259-0.94 0.6519-0.94 0.6519-0.091-0.306-0.208-0.5992-0.353-0.8796-0.144-0.2782-0.31399-0.5438-0.51099-0.7968-0.137-0.1805-0.26001-0.3297-0.36901-0.4475-0.204-0.2209-0.357-0.3314-0.46-0.3314-0.173 0-0.36 0.1033-0.562 0.3101-0.1287 0.1314-0.2632 0.3046-0.4036 0.5196-0.0961 0.1404-0.1607 0.5059-0.1939 1.0965-0.01749 0.3114-0.02619 0.6853-0.02619 1.1218v0.7958 0.7959c0 0.4374 0.0083 0.8113 0.025 1.1219 0.0328 0.6111 0.0978 0.9766 0.1951 1.0964 0.1404 0.2149 0.2749 0.3882 0.4036 0.5196 0.202 0.2067 0.389 0.3101 0.562 0.3101 0.101 0 0.253-0.0915 0.453-0.2744 0.11001-0.1008 0.236-0.2295 0.376-0.386 0.196-0.2231 0.365-0.4573 0.508-0.7025 0.146-0.251 0.265-0.5135 0.356-0.7876l1.88 1.3208c-0.115 0.4153-0.313 0.813-0.594 1.193-0.246 0.3327-0.556 0.6518-0.93 0.9575-0.349 0.2796-0.68 0.4985-0.994 0.6566-0.409 0.2057-0.789 0.3086-1.14 0.3086-0.224 0-0.522-0.1303-0.8935-0.3907-0.2276-0.1596-0.483-0.368-0.766-0.6253-0.2995-0.2765-0.5567-0.5295-0.7716-0.7589-0.3115-0.3327-0.5341-0.616-0.6677-0.8498-0.1411-0.2469-0.2382-0.6923-0.2911-1.3361-0.0317-0.3863-0.0476-0.844-0.0476-1.3732" style="font-variant-caps:normal;font-variant-east-asian:normal;font-variant-ligatures:normal;font-variant-numeric:normal;white-space:pre"/>
   <path d="m106.71 8.663c0.333-0.22859 0.626-0.4151 0.881-0.55953 0.436-0.24786 0.758-0.3718 0.965-0.3718 0.203 0 0.472 0.11468 0.809 0.34403 0.207 0.14109 0.44 0.32556 0.698 0.55344 0.262 0.22357 0.487 0.42258 0.674 0.59703 0.304 0.28359 0.508 0.50226 0.613 0.65603 0.092 0.1283 0.158 0.2796 0.2 0.4542 0.036 0.148 0.054 0.3127 0.054 0.4941 0 0.2721-8e-3 0.5052-0.024 0.6993-0.028 0.3534-0.082 0.5775-0.162 0.6723-0.133 0.2014-0.305 0.4221-0.518 0.6622-0.169 0.1904-0.363 0.393-0.583 0.6078 0.274 0.2602 0.506 0.4964 0.698 0.7085 0.291 0.3215 0.487 0.5877 0.589 0.7985 0.059 0.1542 0.12 0.5137 0.183 1.0786 0.034 0.3036 0.069 0.6666 0.105 1.0889 0.042 0.4937 0.075 0.9336 0.1 1.3197 0.035 0.5497 0.052 0.9903 0.052 1.3219h-1.27-1.27c0-0.2987-0.015-0.6968-0.047-1.1944-0.022-0.3489-0.051-0.7466-0.088-1.1932-0.032-0.3842-0.066-0.7145-0.10099-0.9908-0.063-0.5032-0.131-0.8277-0.204-0.9735-0.05-0.1102-0.105-0.2137-0.165-0.3105-0.063-0.1015-0.133-0.1955-0.208-0.2821h-0.753-0.75401v2.4722 2.4723h-1.168-1.168v-3.7084-3.7084c0-0.3634-0.011-0.6823-0.033-0.9566-0.032-0.4157-0.089-0.7291-0.171-0.9399-0.07-0.2054-0.188-0.4362-0.354-0.69256-0.125-0.1947-0.278-0.40413-0.458-0.62827l1.016-0.7112c0.508-0.3556 1.016-0.7112 1.016-0.7112 0.18 0.11853 0.341 0.25541 0.482 0.41063 0.141 0.15523 0.263 0.32879 0.364 0.5207" style="font-variant-caps:normal;font-variant-east-asian:normal;font-variant-ligatures:normal;font-variant-numeric:normal;white-space:pre"/>
  </g>
  <path d="m107.18 11.559v0.6519 0.652h0.33101 0.32999c0.095 0 0.20601-0.045 0.33401-0.1348 0.085-0.0596 0.176-0.1388 0.275-0.2378 0.105-0.1047 0.194-0.2025 0.266-0.2932 0.1-0.1243 0.169-0.2354 0.208-0.3333 0.04-0.0896 0.069-0.1806 0.089-0.273 0.02-0.0938 0.03-0.1891 0.03-0.2858 0-0.0922-9e-3 -0.1792-0.027-0.261-0.02-0.0884-0.05-0.1708-0.092-0.247-0.036-0.0852-0.082-0.1753-0.139-0.2703-0.048-0.0813-0.103-0.1662-0.165-0.2546-0.052-0.0727-0.1-0.1317-0.145-0.1769-0.073-0.074-0.138-0.111-0.194-0.111-0.17 0-0.364 0.0227-0.582 0.0682-0.175 0.0362-0.364 0.0869-0.569 0.1519 0.017 0.2227 0.029 0.4483 0.038 0.6768 8e-3 0.2232 0.012 0.4492 0.012 0.6779" style="font-variant-caps:normal;font-variant-east-asian:normal;font-variant-ligatures:normal;font-variant-numeric:normal;white-space:pre"/>
  <g fill="#fff">
   <path d="m115.89 12.575h1.516 1.515v1.0245 1.0244h-1.515-1.516v1.5579 1.5579h2.024 2.023v1.0244 1.0245h-3.192-3.192v-5.2155-5.2154s0.584-0.4064 1.169-0.8128c0.584-0.4064 1.168-0.8128 1.168-0.8128h1.888 1.888v1.0329 1.0329h-1.575-1.574s-0.157 0.11007-0.314 0.22017c-0.156 0.11-0.313 0.2201-0.313 0.2201v1.1684 1.1684" style="font-variant-caps:normal;font-variant-east-asian:normal;font-variant-ligatures:normal;font-variant-numeric:normal;white-space:pre"/>
   <path d="m127.3 7.9349v1.016 1.016h-1.101-1.1v4.9106 4.9107h-1.169-1.168v-4.9107-4.9106h-1.101-1.1v-1.016-1.016h3.369 3.37" style="font-variant-caps:normal;font-variant-east-asian:normal;font-variant-ligatures:normal;font-variant-numeric:normal;white-space:pre"/>
   <path d="m72.274 26.437c0.3325-0.2285 0.626-0.4151 0.8804-0.5595 0.4367-0.2479 0.7585-0.3718 0.9654-0.3718 0.2026 0 0.4724 0.1147 0.8093 0.344 0.2072 0.1411 0.4397 0.3256 0.6977 0.5535 0.2623 0.2235 0.4869 0.4226 0.6738 0.597 0.3039 0.2836 0.5083 0.5023 0.6131 0.656 0.0917 0.1283 0.1585 0.2797 0.2005 0.4542 0.0357 0.1481 0.0535 0.3128 0.0535 0.4941 0 0.2721-0.0078 0.5052-0.0234 0.6993-0.0284 0.3535-0.0827 0.5776-0.1628 0.6723-0.1322 0.2014-0.3048 0.4222-0.5177 0.6622-0.1689 0.1905-0.3632 0.3931-0.583 0.6078 0.2737 0.2602 0.5064 0.4964 0.6981 0.7085 0.2905 0.3215 0.4868 0.5877 0.5888 0.7986 0.0588 0.1541 0.1199 0.5137 0.1834 1.0785 0.0342 0.3037 0.069 0.6666 0.1045 1.0889 0.0419 0.4937 0.0752 0.9337 0.0998 1.3198 0.0351 0.5496 0.0526 0.9903 0.0526 1.3218h-1.27-1.27c0-0.2986-0.0156-0.6968-0.0468-1.1944-0.0219-0.3488-0.0514-0.7466-0.0886-1.1932-0.0321-0.3842-0.0655-0.7144-0.1003-0.9908-0.0635-0.5032-0.1317-0.8277-0.2045-0.9734-0.0497-0.1103-0.1046-0.2138-0.165-0.3106-0.0633-0.1014-0.1325-0.1955-0.2076-0.2821h-0.7535-0.7535v2.4723 2.4722h-1.1684-1.1684v-3.7084-3.7084c0-0.3634-0.0107-0.6823-0.0321-0.9565-0.0325-0.4158-0.0895-0.7291-0.1711-0.94-0.0706-0.2053-0.1886-0.4362-0.354-0.6925-0.1256-0.1947-0.2785-0.4041-0.4588-0.6283l2.032-1.4224c0.1806 0.1185 0.3414 0.2554 0.4826 0.4106 0.1411 0.1553 0.2624 0.3288 0.364 0.5207" style="font-variant-caps:normal;font-variant-east-asian:normal;font-variant-ligatures:normal;font-variant-numeric:normal;white-space:pre"/>
  </g>
  <path d="m72.748 29.333v0.652 0.6519h0.3302 0.3302c0.095 0 0.2064-0.0449 0.3342-0.1348 0.0846-0.0595 0.1764-0.1388 0.2754-0.2377 0.1047-0.1048 0.1934-0.2026 0.2661-0.2933 0.0995-0.1243 0.1688-0.2354 0.208-0.3333 0.0392-0.0896 0.0687-0.1806 0.0884-0.273 0.0201-0.0938 0.0301-0.1891 0.0301-0.2858 0-0.0922-0.0091-0.1792-0.0273-0.261-0.0198-0.0884-0.0502-0.1707-0.0912-0.247-0.0365-0.0852-0.0829-0.1753-0.1391-0.2703-0.048-0.0813-0.1033-0.1661-0.1657-0.2546-0.0513-0.0727-0.0994-0.1317-0.1443-0.1768-0.0735-0.074-0.1383-0.1111-0.1944-0.1111-0.1696 0-0.3638 0.0228-0.5824 0.0682-0.1742 0.0363-0.3638 0.0869-0.569 0.152 0.0171 0.2227 0.0299 0.4483 0.0384 0.6768 0.0082 0.2232 0.0124 0.4491 0.0124 0.6778" style="font-variant-caps:normal;font-variant-east-asian:normal;font-variant-ligatures:normal;font-variant-numeric:normal;white-space:pre"/>
  <g fill="#fff">
   <path d="m81.452 30.349h1.5156 1.5155v1.0245 1.0245h-1.5155-1.5156v1.5578 1.5579h2.0236 2.0235v1.0245 1.0244h-3.1919-3.1919v-5.2154-5.2155s0.5842-0.4064 1.1683-0.8128l1.1684-0.8128h1.8881 1.8881v1.0329 1.033h-1.5748-1.5748s-0.1567 0.11-0.3133 0.2201-0.3133 0.2201-0.3133 0.2201v1.1684 1.1684" style="font-variant-caps:normal;font-variant-east-asian:normal;font-variant-ligatures:normal;font-variant-numeric:normal;white-space:pre"/>
   <path d="m86.87 37.562v-5.9266-5.9267h1.1684 1.1684v5.9267 5.9266h-1.1684-1.1684" style="font-variant-caps:normal;font-variant-east-asian:normal;font-variant-ligatures:normal;font-variant-numeric:normal;white-space:pre"/>
   <path d="m90.579 32.431v-0.7958-0.7959c0-0.5292 0.0158-0.9869 0.0476-1.3732 0.0529-0.6438 0.1499-1.0892 0.291-1.3361 0.1336-0.2339 0.3562-0.5171 0.6677-0.8498 0.2149-0.2294 0.4721-0.4824 0.7717-0.7589 0.283-0.2573 0.5383-0.4657 0.766-0.6253 0.3716-0.2605 0.6694-0.3907 0.8934-0.3907 0.3553 0 0.7402 0.1183 1.1547 0.3549 0.3098 0.1769 0.6361 0.4198 0.9789 0.7288 0.3804 0.3376 0.6947 0.6917 0.9429 1.0622 0.2747 0.4103 0.4684 0.8408 0.5811 1.2916 0 0-0.4699 0.3259-0.9398 0.6519s-0.9398 0.6519-0.9398 0.6519c-0.0906-0.306-0.2083-0.5991-0.353-0.8795-0.1436-0.2782-0.3138-0.5439-0.5106-0.7969-0.1373-0.1805-0.2604-0.3297-0.3691-0.4474-0.204-0.221-0.3575-0.3315-0.4606-0.3315-0.1725 0-0.3598 0.1034-0.5619 0.3101-0.1285 0.1314-0.2629 0.3046-0.4033 0.5196-0.0961 0.1405-0.1607 0.506-0.1939 1.0966-0.0175 0.3113-0.0262 0.6852-0.0262 1.1217v0.7959 0.7958c0 0.4374 0.0083 0.8114 0.0249 1.1219 0.0328 0.6112 0.0979 0.9766 0.1952 1.0964 0.1404 0.215 0.2748 0.3882 0.4033 0.5196 0.2021 0.2068 0.3894 0.3101 0.5619 0.3101 0.1018 0 0.253-0.0914 0.4533-0.2743 0.1105-0.1009 0.236-0.2296 0.3764-0.3861 0.1953-0.2231 0.3643-0.4573 0.5072-0.7024 0.1462-0.251 0.265-0.5136 0.3564-0.7877 0 0 0.4699 0.3302 0.9398 0.6604 0.4699 0.3302 0.9398 0.6604 0.9398 0.6604-0.1144 0.4153-0.3122 0.813-0.5934 1.193-0.2463 0.3327-0.5564 0.6519-0.9306 0.9575-0.3483 0.2796-0.6796 0.4985-0.9938 0.6566-0.4088 0.2058-0.7887 0.3086-1.1398 0.3086-0.224 0-0.5218-0.1302-0.8934-0.3907-0.2277-0.1595-0.483-0.368-0.766-0.6253-0.2996-0.2765-0.5568-0.5294-0.7717-0.7589-0.3115-0.3327-0.5341-0.6159-0.6677-0.8497-0.1411-0.247-0.2381-0.6924-0.291-1.3362-0.0318-0.3863-0.0476-0.844-0.0476-1.3732" style="font-variant-caps:normal;font-variant-east-asian:normal;font-variant-ligatures:normal;font-variant-numeric:normal;white-space:pre"/>
   <path d="m104.13 37.562v-2.7093-2.7093h-1.169-1.168v2.7093 2.7093h-1.168-1.169v-3.6237-3.6237c0-0.3824-0.01-0.7181-0.032-1.0072-0.032-0.4365-0.089-0.7669-0.171-0.991-0.07-0.2166-0.187-0.4584-0.35-0.7254-0.1267-0.2061-0.2808-0.4271-0.4627-0.6631 0 0 0.5077-0.3556 1.0157-0.7112s1.016-0.7112 1.016-0.7112c0.203 0.1331 0.39 0.3303 0.561 0.5916 0.133 0.204 0.257 0.4471 0.371 0.7292 0.139 0.3383 0.24 0.7154 0.305 1.1313 0.056 0.3613 0.084 0.7518 0.084 1.1716v0.4911 0.4911h1.168 1.169v-2.2014-2.2013h1.168 1.169v5.9267 5.9266h-1.169-1.168" style="font-variant-caps:normal;font-variant-east-asian:normal;font-variant-ligatures:normal;font-variant-numeric:normal;white-space:pre"/>
   <path d="m114.56 32.787c0.075 0.1239 0.128 0.3231 0.158 0.5979 0.019 0.1761 0.028 0.3832 0.028 0.6213 0 0.2828-0.028 0.5454-0.083 0.7879-0.062 0.2705-0.159 0.5159-0.29 0.7361-0.135 0.196-0.361 0.4385-0.678 0.7275-0.213 0.1938-0.466 0.4085-0.761 0.6441-0.282 0.2215-0.536 0.4004-0.762 0.5367-0.36 0.218-0.648 0.3269-0.863 0.3269-0.352 0-0.731-0.1028-1.14-0.3086-0.314-0.1581-0.646-0.377-0.994-0.6566-0.374-0.3056-0.684-0.6248-0.931-0.9575-0.281-0.38-0.479-0.7777-0.593-1.193 0 0 0.47-0.3217 0.94-0.6435l0.94-0.6434c0.091 0.2689 0.21 0.5262 0.357 0.7719 0.143 0.2391 0.311 0.4672 0.506 0.6843 0.141 0.1565 0.266 0.2852 0.377 0.3861 0.2 0.1829 0.351 0.2743 0.453 0.2743 0.089 0 0.18-0.0141 0.272-0.0424 0.083-0.02529 0.167-0.062 0.253-0.11 0.087-0.0511 0.164-0.1023 0.233-0.1534 0.082-0.0618 0.152-0.1235 0.207-0.1852 0.083-0.1024 0.143-0.2373 0.179-0.4047 0.027-0.1283 0.041-0.2756 0.041-0.442 0-0.1559-0.015-0.2876-0.044-0.3951-0.044-0.1571-0.119-0.2625-0.227-0.3161-0.136-0.1155-0.349-0.2534-0.64-0.4138-0.193-0.1062-0.42-0.2223-0.681-0.3482-0.315-0.155-0.62-0.3153-0.913-0.4812-0.306-0.1724-0.599-0.3507-0.881-0.5348-0.239-0.1604-0.44-0.3188-0.605-0.475-0.218-0.2066-0.372-0.4095-0.462-0.6087-0.08-0.1914-0.139-0.4132-0.175-0.6653-0.03-0.209-0.045-0.4388-0.045-0.6894 0-0.2712 0.028-0.5255 0.086-0.7628 0.062-0.2566 0.157-0.4934 0.286-0.7104 0.135-0.1957 0.361-0.4357 0.677-0.72 0.213-0.1915 0.467-0.403 0.762-0.6347 0.282-0.2253 0.535-0.4073 0.761-0.5461 0.361-0.2229 0.649-0.3344 0.865-0.3344 0.352 0 0.732 0.105 1.142 0.3151 0.314 0.1608 0.644 0.3831 0.992 0.667 0.375 0.301 0.685 0.6169 0.932 0.9475 0.28 0.3762 0.478 0.7716 0.592 1.1861l-0.94 0.652c-0.47 0.3259-0.94 0.6519-0.94 0.6519-0.091-0.2689-0.211-0.5262-0.357-0.7719-0.143-0.2391-0.312-0.4672-0.507-0.6844-0.141-0.1618-0.268-0.2946-0.381-0.3985-0.201-0.1859-0.357-0.2788-0.465-0.2788-0.086 0-0.176 0.0149-0.272 0.0446-0.08 0.0252-0.165 0.0612-0.253 0.1078-0.094 0.0498-0.18 0.1064-0.258 0.1698-0.081 0.0659-0.153 0.1391-0.216 0.2197-0.067 0.0862-0.113 0.2115-0.141 0.3758-0.019 0.1152-0.029 0.2496-0.029 0.4031 0 0.1623 0.023 0.3006 0.069 0.4151 0.056 0.1403 0.146 0.2446 0.27 0.313 0.112 0.0979 0.312 0.2304 0.602 0.3974 0.178 0.1028 0.389 0.2187 0.634 0.3477 0.623 0.3413 1.149 0.6584 1.579 0.9514 0.706 0.4822 1.151 0.8988 1.334 1.2499" style="font-variant-caps:normal;font-variant-east-asian:normal;font-variant-ligatures:normal;font-variant-numeric:normal;white-space:pre"/>
   <path d="m122.11 25.709v1.016 1.016h-1.101-1.1v4.9107 4.9106h-1.169-1.168v-4.9106-4.9107h-1.101-1.1v-1.016-1.016h3.369 3.37" style="font-variant-caps:normal;font-variant-east-asian:normal;font-variant-ligatures:normal;font-variant-numeric:normal;white-space:pre"/>
   <path d="m124.58 26.606c0.309-0.2831 0.59-0.5115 0.842-0.6854 0.401-0.2769 0.73-0.4153 0.987-0.4153s0.586 0.1384 0.987 0.4153c0.252 0.1739 0.533 0.4023 0.842 0.6854 0.329 0.3009 0.606 0.5801 0.832 0.8373 0.325 0.37 0.545 0.6949 0.658 0.9745 0.078 0.2053 0.131 0.5725 0.16 1.1017 0.018 0.3148 0.026 0.687 0.026 1.1166v3.4629 3.4628h-1.168-1.169v-1.27-1.27h-1.168-1.168v1.27 1.27h-1.169-1.168v-3.4628-3.4629c0-0.4296 8e-3 -0.8018 0.026-1.1166 0.029-0.5292 0.082-0.8964 0.16-1.1017 0.113-0.2796 0.333-0.6045 0.658-0.9745 0.226-0.2572 0.503-0.5364 0.832-0.8373" style="font-variant-caps:normal;font-variant-east-asian:normal;font-variant-ligatures:normal;font-variant-numeric:normal;white-space:pre"/>
  </g>
  <path d="m125.24 30.636v1.1769 1.1768h1.168 1.168v-1.1768-1.1769c0-0.33-5e-3 -0.614-0.017-0.8522-0.021-0.43-0.06-0.7104-0.118-0.8411-0.049-0.1157-0.117-0.2329-0.205-0.3518-0.075-0.1017-0.165-0.2046-0.269-0.3086-0.088-0.0968-0.171-0.1738-0.249-0.2311-0.113-0.083-0.216-0.1245-0.31-0.1245s-0.2 0.0418-0.317 0.1253c-0.081 0.0572-0.167 0.134-0.25901 0.2303-0.099 0.1045-0.18499 0.2078-0.25799 0.3099-0.084 0.1184-0.15 0.2353-0.199 0.3505-0.058 0.1307-0.097 0.4111-0.118 0.8411-0.012 0.2382-0.017 0.5222-0.017 0.8522" style="font-variant-caps:normal;font-variant-east-asian:normal;font-variant-ligatures:normal;font-variant-numeric:normal;white-space:pre"/>
  <path d="m133.52 30.84v0.8975 0.8974c0 0.3327 6e-3 0.6194 0.017 0.8603 0.021 0.4292 0.061 0.7126 0.118 0.85 0.05 0.1107 0.117 0.2265 0.203 0.3473 0.072 0.1008 0.157 0.2052 0.255 0.3131 0.094 0.0944 0.183 0.169 0.268 0.2239 0.118 0.0765 0.226 0.1148 0.324 0.1148 0.101 0 0.217-0.0418 0.35-0.1254 0.09-0.0572 0.188-0.1339 0.294-0.2302 0.114-0.1047 0.214-0.2049 0.297-0.3008 0.106-0.1213 0.188-0.2355 0.245-0.3427 0.038-0.1098 0.068-0.2492 0.088-0.4182 0.015-0.1263 0.025-0.2691 0.03-0.4285h-0.584-0.584v-0.9398-0.9398h1.685 1.685v2.9718 2.9718h-0.822-0.821s-0.051-0.2878-0.102-0.5757c-0.05-0.2879-0.101-0.5757-0.101-0.5757-0.285 0.3298-0.542 0.5994-0.772 0.8088-0.401 0.3639-0.719 0.5458-0.955 0.5458-0.233 0-0.552-0.1433-0.957-0.4299-0.243-0.172-0.517-0.3956-0.821-0.6707-0.327-0.3035-0.603-0.5835-0.828-0.8401-0.328-0.3735-0.549-0.6974-0.663-0.9718-0.078-0.1866-0.132-0.5534-0.161-1.1005-0.017-0.3134-0.025-0.686-0.025-1.1178v-0.8974-0.8975c0-0.5292 0.016-0.9869 0.048-1.3732 0.053-0.6438 0.15-1.0892 0.291-1.3361 0.133-0.2339 0.356-0.5171 0.668-0.8498 0.214-0.2294 0.472-0.4824 0.771-0.7589 0.283-0.2573 0.539-0.4657 0.766-0.6253 0.372-0.2605 0.67-0.3907 0.894-0.3907 0.355 0 0.74 0.1183 1.154 0.3549 0.31 0.1769 0.636 0.4198 0.979 0.7288 0.38 0.3422 0.694 0.6996 0.942 1.0722 0.275 0.4141 0.469 0.8469 0.582 1.2985 0 0-0.47 0.326-0.94 0.6519-0.469 0.326-0.939 0.652-0.939 0.652-0.091-0.3066-0.209-0.6018-0.354-0.8855-0.144-0.2805-0.314-0.5497-0.51-0.8079-0.137-0.1805-0.26-0.3297-0.369-0.4474-0.204-0.221-0.358-0.3315-0.461-0.3315-0.172 0-0.359 0.1034-0.562 0.3101-0.128 0.1314-0.262 0.3046-0.403 0.5196-0.096 0.1405-0.161 0.506-0.194 1.0966-0.017 0.3113-0.026 0.6852-0.026 1.1217" fill="#fff" style="font-variant-caps:normal;font-variant-east-asian:normal;font-variant-ligatures:normal;font-variant-numeric:normal;white-space:pre"/>
 </g>
</svg>
