<?xml version="1.0" encoding="UTF-8"?>
<svg width="512" height="512" version="1.1" viewBox="0 0 135.47 135.47" xmlns="http://www.w3.org/2000/svg" xmlns:cc="http://creativecommons.org/ns#" xmlns:dc="http://purl.org/dc/elements/1.1/" xmlns:rdf="http://www.w3.org/1999/02/22-rdf-syntax-ns#">
 <metadata>
  <rdf:RDF>
   <cc:Work rdf:about="">
    <dc:format>image/svg+xml</dc:format>
    <dc:type rdf:resource="http://purl.org/dc/dcmitype/StillImage"/>
   </cc:Work>
  </rdf:RDF>
 </metadata>
 <g transform="matrix(.5307 .5307 -.5307 .5307 71.076 -7.4136)" display="none">
  <path d="m67.569 10.052s-6.7881 12.564-6.6112 34.812c0.59426 0.0071 3.7721-0.05689 6.6112-0.07092 2.8391 0.01403 6.0169 0.07798 6.6112 0.07092 0.17687-22.249-6.6112-34.812-6.6112-34.812z" fill="#fff"/>
  <path transform="scale(.26458)" d="m290 471h-74v10h80v-10z" fill="#002838"/>
  <path transform="scale(.26458)" d="m222 466v5h68v-5z" fill="#61c8d9"/>
  <path transform="scale(.26458)" d="m231 175v40l-15 33.48v211.52l6 6h68l6-6v-211.52l-15-33.48v-40h-25z" fill="#002838"/>
 </g>
 <path d="m92.464 47.854c-17.139 0.15194-34.286-0.0814-51.419 0.22602-3.4186 0.50714-5.7974 3.9838-5.7764 7.3158 0.18439 4.0015 0.04959 8.0165 0.0764 12.024-5e-3 5.0016-0.0082 10.014 0.27351 15.005 0.97729 3.5392 4.9516 5.6791 8.4807 5.0922 16.741-0.01554 33.482 0.03624 50.222-0.11918 3.84-0.61999 6.4254-4.8062 5.7703-8.5432-0.0371-8.533 0.12314-17.076-0.20158-25.602-0.74064-3.2797-4.149-5.5229-7.4259-5.3991z" fill="#002838" opacity=".999" stroke="#002838" stroke-linejoin="round" stroke-width="2.8038"/>
 <rect x="38.043" y="50.606" width="59.358" height="34.22" rx="4.3053" ry="4.3053" fill-opacity="0" opacity=".999" stroke="#2d9eb3" stroke-linejoin="round" stroke-width="2.8039"/>
 <g transform="matrix(1.936 -2.55e-8 2.55e-8 1.936 -63.374 -26.236)" fill="#fff" stroke-width="2.0759" style="shape-inside:url(#rect841);white-space:pre" aria-label="FIRED">
  <path d="m56.465 55.078v-4.2227q0-1.3017 0.21167-1.6722 0.21167-0.37042 0.89958-1.0054 0.6985-0.635 1.0372-0.635 0.46566 0 1.1536 0.37042 0.68791 0.37042 1.0266 0.83608l-1.1747 0.81491q-0.59266-0.59266-0.9525-0.59266-0.13758 0-0.3175 0.17992-0.17992 0.16933-0.30692 0.37042-0.11642 0.1905-0.11642 0.98425v0.24342h1.8944v1.2806h-1.8944v3.048z"/>
  <path d="m61.365 55.078v-7.4083h1.4605v7.4083z"/>
  <path d="m65.323 48.125q0.84666-0.58208 1.1536-0.58208 0.30692 0 0.94191 0.56092 0.64558 0.55033 0.80433 0.78316 0.15875 0.22225 0.15875 0.59266 0 0.71966-0.11642 0.85725-0.22225 0.33866-0.68791 0.79375 0.64558 0.61383 0.80433 0.94191 0.08467 0.22225 0.17992 1.3547 0.09525 1.1218 0.09525 1.651h-1.5875q0-0.47625-0.08467-1.4922t-0.1905-1.2277q-0.09525-0.21167-0.23283-0.37042h-0.94191v3.0903h-1.4605v-4.6355q0-0.85725-0.127-1.1853-0.11642-0.33866-0.508-0.8255l1.27-0.889q0.33867 0.22225 0.52916 0.58208zm0.29633 1.8097v0.81491h0.41275q0.14817 0 0.381-0.23283 0.23283-0.23283 0.29633-0.39158 0.07408-0.16933 0.07408-0.34925t-0.07408-0.3175q-0.0635-0.14817-0.1905-0.32808-0.127-0.17992-0.21167-0.17992-0.28575 0-0.71966 0.13758 0.03175 0.41275 0.03175 0.84666z"/>
  <path d="m71.059 50.57h1.8944v1.2806h-1.8944v1.9473h2.5294v1.2806h-3.9899v-6.5193l1.4605-1.016h2.3601v1.2912h-1.9685l-0.39158 0.27517z"/>
  <path d="m75.748 48.093q0.6985-0.55033 1.0583-0.55033 0.35983 0 1.1112 0.6985 0.762 0.68792 0.94191 1.1218 0.11642 0.27517 0.11642 1.3864v1.2488q0 1.1112-0.11642 1.3864-0.1905 0.41275-0.92075 1.0583-0.73025 0.635-1.1536 0.635h-2.1907v-4.5297q0-0.85725-0.127-1.2065-0.11642-0.34925-0.508-0.8255l1.397-0.97366q0.22225 0.16933 0.39158 0.55033zm1.0372 0.96308q-0.30692 0-0.762 0.20108 0.03175 0.22225 0.03175 0.67733v3.8629h0.73025q0.14817 0 0.34925-0.21167 0.21167-0.22225 0.29633-0.41275 0.08467-0.20108 0.08467-1.0689v-1.3547q0-0.86783-0.08467-1.0583-0.08467-0.20108-0.29633-0.41275-0.20108-0.22225-0.34925-0.22225z"/>
 </g>
 <g transform="matrix(1.1495 -1.514e-8 1.514e-8 1.1495 -10.135 .42052)" fill="#fff" stroke-width="2.0759" style="shape-inside:url(#rect18674);white-space:pre" aria-label="YOU'RE">
  <path d="m54.861 55.078v-2.9633q-0.41275-0.33866-0.80433-0.80433-0.381-0.47625-0.51858-0.74083-0.13758-0.27516-0.13758-1.1112v-1.7886h1.4605v1.7886q0 0.53975 0.08467 0.762 0.09525 0.21167 0.3175 0.51858 0.23283 0.30692 0.32808 0.30692t0.32808-0.30692q0.23283-0.3175 0.3175-0.51858 0.08467-0.20108 0.08467-0.762v-1.7886h1.4605v1.7886q0 0.84666-0.13758 1.1112-0.13758 0.26458-0.52916 0.74083-0.39158 0.46567-0.79375 0.80433v2.9633z"/>
  <path d="m61.741 54.518q-0.75141 0.68792-1.1324 0.68792t-1.143-0.68792q-0.75141-0.6985-0.93133-1.1324-0.11642-0.27517-0.11642-1.3864v-1.2488q0-1.1112 0.11642-1.3864 0.17992-0.43392 0.93133-1.1218 0.762-0.6985 1.143-0.6985t1.1324 0.6985q0.762 0.68792 0.94191 1.1218 0.11642 0.27517 0.11642 1.3864v1.2488q0 1.1112-0.11642 1.3864-0.17992 0.43392-0.94191 1.1324zm-1.4922-1.0372q0.21167 0.21167 0.35983 0.21167t0.34925-0.21167q0.21167-0.22225 0.29633-0.41275 0.08467-0.20108 0.08467-1.0689v-1.2488q0-0.86783-0.08467-1.0583-0.08467-0.20108-0.29633-0.41275-0.20108-0.22225-0.34925-0.22225t-0.35983 0.22225q-0.20108 0.21167-0.28575 0.41275-0.08467 0.1905-0.08467 1.0583v1.2488q0 0.86783 0.08467 1.0689 0.08467 0.1905 0.28575 0.41275z"/>
  <path d="m68.186 47.67v4.3286q0 1.1112-0.11642 1.3864-0.17992 0.43392-0.94191 1.1324-0.75141 0.68792-1.1324 0.68792t-1.143-0.68792q-0.75142-0.6985-0.93133-1.1324-0.11642-0.27517-0.11642-1.3864v-1.5346q0-0.85725-0.127-1.2065-0.11642-0.34925-0.508-0.8255l1.27-0.889q0.33867 0.22225 0.58208 0.86783 0.24342 0.635 0.24342 1.524v2.0637q0 0.86783 0.08467 1.0689 0.08467 0.1905 0.28575 0.41275 0.21167 0.21167 0.35983 0.21167t0.34925-0.21167q0.21167-0.22225 0.29633-0.41275 0.08467-0.20108 0.08467-1.0689v-4.3286z"/>
  <path d="m69.974 49.946q-0.10583 0-0.39158-0.10583t-0.28575-0.15875q0-0.22225 0.23283-1.1747 0.23283-0.96308 0.29633-0.96308 0.17992 0 0.762 0.23283 0.59266 0.22225 0.59266 0.30692-0.33866 0.68791-0.762 1.2806-0.41275 0.58208-0.4445 0.58208z"/>
  <path d="m73.668 48.125q0.84666-0.58208 1.1536-0.58208t0.94191 0.56092q0.64558 0.55033 0.80433 0.78316 0.15875 0.22225 0.15875 0.59266 0 0.71966-0.11642 0.85725-0.22225 0.33866-0.68792 0.79375 0.64558 0.61383 0.80433 0.94191 0.08467 0.22225 0.17992 1.3547 0.09525 1.1218 0.09525 1.651h-1.5875q0-0.47625-0.08467-1.4922t-0.1905-1.2277q-0.09525-0.21167-0.23283-0.37042h-0.94191v3.0903h-1.4605v-4.6355q0-0.85725-0.127-1.1853-0.11642-0.33866-0.508-0.8255l1.27-0.889q0.33867 0.22225 0.52916 0.58208zm0.29633 1.8097v0.81491h0.41275q0.14817 0 0.381-0.23283 0.23283-0.23283 0.29633-0.39158 0.07408-0.16933 0.07408-0.34925t-0.07408-0.3175q-0.0635-0.14817-0.1905-0.32808-0.127-0.17992-0.21167-0.17992-0.28575 0-0.71966 0.13758 0.03175 0.41275 0.03175 0.84666z"/>
  <path d="m79.404 50.57h1.8944v1.2806h-1.8944v1.9473h2.5294v1.2806h-3.9899v-6.5193l1.4605-1.016h2.3601v1.2912h-1.9685l-0.39158 0.27517z"/>
 </g>
</svg>
