<?xml version="1.0" encoding="UTF-8"?>
<svg width="512" height="512" version="1.1" viewBox="0 0 135.47 135.47" xmlns="http://www.w3.org/2000/svg" xmlns:cc="http://creativecommons.org/ns#" xmlns:dc="http://purl.org/dc/elements/1.1/" xmlns:rdf="http://www.w3.org/1999/02/22-rdf-syntax-ns#">
 <metadata>
  <rdf:RDF>
   <cc:Work rdf:about="">
    <dc:format>image/svg+xml</dc:format>
    <dc:type rdf:resource="http://purl.org/dc/dcmitype/StillImage"/>
    <dc:title/>
   </cc:Work>
  </rdf:RDF>
 </metadata>
 <g transform="matrix(.5 0 0 .5 33.867 33.867)" shape-rendering="auto">
  <g fill="#fff">
   <path d="m3.9257 23.726a10.659 5.3153 26.298 0 0-1.9791 7.3216l10.568 12.067a10.659 5.3153 26.298 0 0 13.761 6.0272l105.18-8.623a10.659 5.3153 26.298 0 0 2.0692-7.3251l-1.9819-2.263a10.659 5.3153 26.298 0 1-0.09 0.0088l-105.18 8.623a10.659 5.3153 26.298 0 1-0.19974 0.0139 10.659 5.3153 26.298 0 1-0.20538 0.01051 10.659 5.3153 26.298 0 1-0.20959 0.0054 10.659 5.3153 26.298 0 1-0.21381 0.0017 10.659 5.3153 26.298 0 1-0.2152-0.0034 10.659 5.3153 26.298 0 1-0.21945-0.0071 10.659 5.3153 26.298 0 1-0.22225-0.01051 10.659 5.3153 26.298 0 1-0.22506-0.01593 10.659 5.3153 26.298 0 1-0.22788-0.02101 10.659 5.3153 26.298 0 1-0.22927-0.0244 10.659 5.3153 26.298 0 1-0.2321-0.02813 10.659 5.3153 26.298 0 1-0.23491-0.03322 10.659 5.3153 26.298 0 1-0.23771-0.03678 10.659 5.3153 26.298 0 1-0.23771-0.04027 10.659 5.3153 26.298 0 1-0.24054-0.04556 10.659 5.3153 26.298 0 1-0.24193-0.05081 10.659 5.3153 26.298 0 1-0.24335-0.05254 10.659 5.3153 26.298 0 1-0.24476-0.05779 10.659 5.3153 26.298 0 1-0.24615-0.06132 10.659 5.3153 26.298 0 1-0.24615-0.06657 10.659 5.3153 26.298 0 1-0.24756-0.07006 10.659 5.3153 26.298 0 1-0.24898-0.07355 10.659 5.3153 26.298 0 1-0.24898-0.07708 10.659 5.3153 26.298 0 1-0.24898-0.08057 10.659 5.3153 26.298 0 1-0.24898-0.08582 10.659 5.3153 26.298 0 1-0.24898-0.08758 10.659 5.3153 26.298 0 1-0.2504-0.09284 10.659 5.3153 26.298 0 1-0.24756-0.09633 10.659 5.3153 26.298 0 1-0.24898-0.09982 10.659 5.3153 26.298 0 1-0.24756-0.10158 10.659 5.3153 26.298 0 1-0.24757-0.10684 10.659 5.3153 26.298 0 1-0.24615-0.11036 10.659 5.3153 26.298 0 1-0.24476-0.11209 10.659 5.3153 26.298 0 1-0.24335-0.11562 10.659 5.3153 26.298 0 1-0.24335-0.11911 10.659 5.3153 26.298 0 1-0.24052-0.1226 10.659 5.3153 26.298 0 1-0.23913-0.12612 10.659 5.3153 26.298 0 1-0.23632-0.12785 10.659 5.3153 26.298 0 1-0.23491-0.12961 10.659 5.3153 26.298 0 1-0.23349-0.13487 10.659 5.3153 26.298 0 1-0.23069-0.13487 10.659 5.3153 26.298 0 1-0.22789-0.14012 10.659 5.3153 26.298 0 1-0.22647-0.14012 10.659 5.3153 26.298 0 1-0.22225-0.14361 10.659 5.3153 26.298 0 1-0.21945-0.14538 10.659 5.3153 26.298 0 1-0.21662-0.1489 10.659 5.3153 26.298 0 1-0.21381-0.14887 10.659 5.3153 26.298 0 1-0.21101-0.15239 10.659 5.3153 26.298 0 1-0.20676-0.15415 10.659 5.3153 26.298 0 1-0.20254-0.15588 10.659 5.3153 26.298 0 1-0.19974-0.15764 10.659 5.3153 26.298 0 1-0.19552-0.15765 10.659 5.3153 26.298 0 1-0.19272-0.16114 10.659 5.3153 26.298 0 1-0.18708-0.16114 10.659 5.3153 26.298 0 1-0.18286-0.1629 10.659 5.3153 26.298 0 1-0.18006-0.16466 10.659 5.3153 26.298 0 1-0.17442-0.16463 10.659 5.3153 26.298 0 1-0.17021-0.16639 10.659 5.3153 26.298 0 1-0.16457-0.16639 10.659 5.3153 26.298 0 1-0.16035-0.16815 10.659 5.3153 26.298 0 1-0.15613-0.16815 10.659 5.3153 26.298 0 1-0.1505-0.16988z" color="#000000" color-rendering="auto" dominant-baseline="auto" image-rendering="auto" opacity=".996" solid-color="#000000" stop-color="#000000" style="font-feature-settings:normal;font-variant-alternates:normal;font-variant-caps:normal;font-variant-east-asian:normal;font-variant-ligatures:normal;font-variant-numeric:normal;font-variant-position:normal;font-variation-settings:normal;inline-size:0;isolation:auto;mix-blend-mode:normal;paint-order:stroke fill markers;shape-margin:0;shape-padding:0;text-decoration-color:#000000;text-decoration-line:none;text-decoration-style:solid;text-indent:0;text-orientation:mixed;text-transform:none;white-space:normal"/>
   <path d="m4.0136 8.6552a10.659 5.3153 26.298 0 0-2.069 7.3249l10.571 12.072a10.659 5.3153 26.298 0 0 13.761 6.027l105.18-8.6234a10.659 5.3153 26.298 0 0 2.0743-7.3253l-10.571-12.072a10.659 5.3153 26.298 0 0-13.766-6.0266z" color="#000000" color-rendering="auto" dominant-baseline="auto" image-rendering="auto" opacity=".996" solid-color="#000000" stop-color="#000000" style="font-feature-settings:normal;font-variant-alternates:normal;font-variant-caps:normal;font-variant-east-asian:normal;font-variant-ligatures:normal;font-variant-numeric:normal;font-variant-position:normal;font-variation-settings:normal;inline-size:0;isolation:auto;mix-blend-mode:normal;paint-order:stroke fill markers;shape-margin:0;shape-padding:0;text-decoration-color:#000000;text-decoration-line:none;text-decoration-style:solid;text-indent:0;text-orientation:mixed;text-transform:none;white-space:normal"/>
   <path d="m3.9257 38.979c-2.0317-0.18961-4.9299 1.928-3.5796 4.8114 2.2842 4.0234 5.6916 6.851 8.465 10.348 3.4305 4.2169 7.2466 8.2618 12.117 9.5021 5.2599 1.6429 10.678-0.0051 16.008-0.12026 31.756-2.6266 63.518-5.161 95.27-7.8453 2.0197 0.05474 4.2285-2.4914 2.8126-4.9708-0.99275-1.7029-2.3361-3.7331-3.8389-4.4898-35.316 2.8571-70.627 5.867-105.95 8.6287-5.7467-0.24532-11.251-3.5865-15.14-8.8217-2.0558-2.3475-4.1117-4.6949-6.1675-7.0424z" color="#000000" color-rendering="auto" dominant-baseline="auto" image-rendering="auto" opacity=".996" solid-color="#000000" stop-color="#000000" style="font-feature-settings:normal;font-variant-alternates:normal;font-variant-caps:normal;font-variant-east-asian:normal;font-variant-ligatures:normal;font-variant-numeric:normal;font-variant-position:normal;font-variation-settings:normal;inline-size:0;isolation:auto;mix-blend-mode:normal;paint-order:stroke fill markers;shape-margin:0;shape-padding:0;text-decoration-color:#000000;text-decoration-line:none;text-decoration-style:solid;text-indent:0;text-orientation:mixed;text-transform:none;white-space:normal"/>
  </g>
  <path d="m3.536 54.876c-1.9876 0.08697-3.1757 1.6838-3.1902 4.8203v55.196c-0.002567 1.2194 5.6917 6.8513 8.4651 10.348 3.4305 4.2169 7.2463 8.262 12.117 9.5023 5.2599 1.6429 10.678-6e-3 16.007-0.12087 31.756-2.6266 63.518-5.161 95.27-7.8453 2.0197 0.0547 2.8478-1.9097 2.8133-4.971v-51.962c0.0174-1.3515 2e-3 -1.9498 0-3.2334 0.0114-0.68064-2.3358-3.7326-3.8387-4.4893-35.316 2.8571-70.627 5.8665-105.95 8.6282-5.7467-0.24533-11.25-3.5857-15.14-8.8209-2.0558-2.3475-4.1122-4.6956-6.1681-7.0431-0.12698-0.011864-0.25712-0.014575-0.38963-0.008813z" color="#000000" color-rendering="auto" dominant-baseline="auto" fill="#990200" image-rendering="auto" opacity=".996" solid-color="#000000" stop-color="#000000" style="font-feature-settings:normal;font-variant-alternates:normal;font-variant-caps:normal;font-variant-east-asian:normal;font-variant-ligatures:normal;font-variant-numeric:normal;font-variant-position:normal;font-variation-settings:normal;inline-size:0;isolation:auto;mix-blend-mode:normal;paint-order:stroke fill markers;shape-margin:0;shape-padding:0;text-decoration-color:#000000;text-decoration-line:none;text-decoration-style:solid;text-indent:0;text-orientation:mixed;text-transform:none;white-space:normal"/>
 </g>
</svg>
