<?xml version="1.0" encoding="UTF-8"?>
<svg width="512" height="512" version="1.1" viewBox="0 0 135.47 135.47" xmlns="http://www.w3.org/2000/svg" xmlns:cc="http://creativecommons.org/ns#" xmlns:dc="http://purl.org/dc/elements/1.1/" xmlns:rdf="http://www.w3.org/1999/02/22-rdf-syntax-ns#">
 <metadata>
  <rdf:RDF>
   <cc:Work rdf:about="">
    <dc:format>image/svg+xml</dc:format>
    <dc:type rdf:resource="http://purl.org/dc/dcmitype/StillImage"/>
    <dc:title/>
   </cc:Work>
  </rdf:RDF>
 </metadata>
 <path d="m50.115 97.277s-1.6547 15.493 1.5462 21.348c5.5257 10.108 16.072 9.1958 16.072 9.1958s10.547 0.91249 16.072-9.1958c3.2009-5.8554 1.5462-21.348 1.5462-21.348s-1.0589 0.08132-1.3084 0.21342c-0.25048 0.13261-0.63168 1.1213-1.1829 1.3617-0.38212 0.16663-15.127 0.9803-15.127 0.9803s-14.745-0.81367-15.127-0.9803c-0.55119-0.24036-0.93239-1.2291-1.1829-1.3617-0.2495-0.1321-1.3084-0.21342-1.3084-0.21342z" fill="#2d1a0d"/>
 <g transform="translate(-.00010124 -6.3447)">
  <path d="m64.409 16.987s-0.76715 0.48793-1.8713 1.2256c0.11116 0.13173 0.7869 0.9526 1.1564 1.9269 0.34525 0.91033 0.80623 2.8974 0.80623 2.8974s0.92061-2.399 0.8533-3.4669c-0.06563-1.0411-0.94461-2.583-0.94461-2.583z" fill="#2d1a0d"/>
  <path transform="scale(.26458)" d="m233.51 55.869c-13.783-3.41e-4 -73.691 11.599-87.623 21.379-10.737 7.5379-8.0256 27.738-6.9727 33.643-25.562 17.458-76.346 65.375-74.883 169.95 1.3237 94.576 88.518 177.39 191.59 178.81 80.152 1.1065 186.12-64.576 192.13-178.58 1.8964-35.973-6.6896-92.964-41.723-132.47-31.149-35.124-52.237-39.758-64.031-41.031-1.488-0.16059-3.6537-0.5109-4.4102 0.84571-0.70701 1.2679 1.5547 4.0684 1.5547 4.0684s46.044 47.819 56.631 64.041c21.982 33.685 24.938 84.017 23.707 99.34-5.7376 71.394-71.417 149.85-163.9 147.56-92.179-2.2814-154.47-85.005-153.79-144.88 1.2361-108.17 74.07-147.38 74.07-147.38s63.679-1.4465 68.199-5.541c1.5635-1.4163 0.89062-6.2578 0.89062-6.2578s-42.128-8.3304-42.473-21.025c-0.21978-8.1074 40.951-34.145 40.951-34.145s-4.1498-7.3591-7.8125-8.1738c-0.48158-0.10711-1.1944-0.15817-2.1133-0.1582z" fill="#a35c2f"/>
  <path d="m44.217 21.508s1.131-0.16617 2.1229-0.02809c0.99191 0.13808 1.8672 0.5918 1.8672 0.5918s-0.1786 2.4818-2.1524 2.302c-2.4969-0.2275-1.8378-2.8657-1.8378-2.8657z" fill="#2d1a0d"/>
  <path d="m38.159 32.257c-1.9281 1.3788-4.3225 3.3964-6.7341 6.2178l5.6935 4.6661c2.0196-2.513 4.016-4.411 5.6479-5.7632l-2.6747-3.6528c-0.24637-0.09855-0.47592-0.2042-0.66645-0.32334-0.26261-0.16421-0.5011-0.35074-0.71775-0.55161-0.20195-0.18724-0.38311-0.38764-0.54831-0.59303zm57.088 0.7554-1.0853 1.4369c1.836 1.9679 3.9794 4.3053 5.9152 6.512l2.341-2.3839c-2.7516-2.7318-5.1384-4.4627-7.1709-5.565zm10.329 8.9858-2.6503 2.317c0.75161 0.92975 1.3712 1.7489 1.7899 2.3905 0.94537 1.4486 1.7554 3.0147 2.4516 4.6374l3.4137-1.4011c-1.3216-2.7984-2.9696-5.4928-5.005-7.9437zm-77.095 0.36382c-1.616 2.4164-3.1468 5.2446-4.443 8.533l6.7572 2.9571c1.1405-2.7453 2.4523-5.1589 3.8227-7.2617zm83.87 11.912-3.6711 1.2279c0.87319 2.8525 1.4527 5.7272 1.8191 8.341l4.0919-0.60291c-0.46256-2.9173-1.1882-5.9593-2.2398-8.966zm-89.918 1.3898c-0.80212 2.8366-1.4275 5.9547-1.8087 9.3783l6.9342 0.6561c0.43106-2.9078 1.0642-5.5816 1.8431-8.0317zm92.696 12.269-4.1841 0.23721c0.13479 2.071 0.12863 3.7642 0.0438 4.82-0.0952 1.1848-0.25281 2.3771-0.47065 3.5709l4.3893 0.70457c0.13468-1.0803 0.23662-2.1774 0.29557-3.2955 0.096-1.8211 0.081-3.8623-0.0739-6.0371zm-94.865 1.9584c-0.05139 1.3023-0.0711 2.6411-0.05177 4.0222 0.02631 1.8799 0.19145 3.7406 0.48289 5.574l6.6202-1.1978c-0.26843-1.5681-0.39772-3.1058-0.38076-4.5903 0.01474-1.2898 0.06949-2.5413 0.15767-3.7577zm89.269 10.769c-0.7896 2.6619-1.8679 5.2986-3.2113 7.8468l4.5729 2.4338c1.3311-2.7611 2.3959-5.7148 3.1426-8.8521zm-81.164 1.9033-6.6485 1.5654c0.88565 3.1259 2.1423 6.1423 3.7224 9.0018l6.2385-3.1087c-1.4054-2.4556-2.5184-4.9692-3.3125-7.4585zm75.743 9.6927c-1.5408 2.3496-3.3163 4.5864-5.3029 6.6551l4.0119 3.6518c2.1353-2.2476 4.0752-4.7223 5.7552-7.4161zm-70.193 1.2741-5.8695 3.7695c1.8231 2.5931 3.9247 5.0161 6.2593 7.2283l4.843-4.8454c-1.9593-1.9284-3.711-3.9991-5.2328-6.1524zm61.727 8.3753c-2.1061 1.8074-4.3988 3.4305-6.8565 4.8233l2.8799 4.6449c2.6871-1.5748 5.2738-3.4121 7.6868-5.502zm-53.413 0.54502-4.2359 5.2445c2.5041 1.946 5.2116 3.6668 8.0812 5.124l2.8197-5.8606c-2.3889-1.3108-4.6161-2.831-6.665-4.5079zm42.702 6.2065c-2.4516 1.0707-5.0397 1.9156-7.7498 2.4935l1.3249 5.6672c2.9892-0.76246 5.9963-1.8403 8.9345-3.2198zm-32.207 0.15861-2.2681 5.9722c2.8884 1.133 5.9063 2.0059 9.0187 2.5825l1.2439-6.0992c-2.803-0.55351-5.4736-1.3883-7.9946-2.4554zm20.328 2.9948c-1.768 0.18911-3.5796 0.26754-5.4328 0.22168-0.89311-0.0221-1.7741-0.0761-2.6456-0.15391l-0.75964 6.1298c1.132 0.0961 2.2731 0.15451 3.4226 0.17038 1.9908 0.0275 4.0465-0.11433 6.1345-0.41512z" fill="#2d1a0d"/>
  <path d="m76.767 13.847c-0.09479-0.0043-0.19899 0.0088-0.31204 0.04659-0.60296 0.20152-0.58314 0.79917-0.58314 0.79917l1.9222 5.9185s-2.216 7.1325-9.495 7.4801c-4.1 0.19582-10.42-2.2147-11.827-2.486-0.57068-0.1101-2.0225-0.0019-2.8343 0.09413-0.03987 0.11489-0.06663 0.2243-0.06401 0.32099 0.01048 0.38676 0.17268 0.75763 0.44242 1.1122 1.1161-0.1323 1.8076-0.19282 2.3622-0.01459 1.803 0.57939 7.3877 2.5845 11.913 2.5886 8.7088 0.0079 11.247-8.8088 11.247-8.8088l4.1945-4.6181s0.25897-0.53513-0.22498-0.95543c-0.48395-0.4203-1.0274-0.01459-1.0274-0.01459l-3.5045 3.9088-1.5654-5.0148s-0.23266-0.33807-0.64339-0.35676z" fill="#7d0024"/>
 </g>
 <path d="m82.485 100.23s-29.356-3e-5 -29.358-3e-3c3e-6 1e-5 0.0021 3e-3 0.0021 3e-3 -0.24476 5.3417 0.08324 7.6473 1.9048 11.584 3.7871 6.7311 12.773 6.4172 12.773 6.4172s8.9862 0.31393 12.773-6.4172c1.8215-3.9368 2.1495-6.2425 1.9048-11.584z" fill-opacity=".2637"/>
 <g transform="translate(-.00010124 -6.3447)">
  <path d="m66.879 35.403c-4.1684-0.01631-21.201 1.2883-26.937 23.199-0.7253 2.7706 1.7904 20.837 1.1919 23.412-0.46252 1.9897-3.5848 3.8315-3.7576 4.8398-0.85638 4.9947 3.7201 12.177 4.4429 12.623 1.301 0.80323 7.3004-0.0048 8.9001 0.90586 0.97543 0.55541 2.4094 2.3528 2.4094 2.3528-0.24476 4.2594 0.08332 6.0979 1.9049 9.2372 3.7871 5.3673 12.773 5.117 12.773 5.117s8.986 0.25033 12.773-5.117c1.8216-3.1393 2.1496-4.9778 1.9049-9.2372 0 0 1.4339-1.7974 2.4094-2.3528 1.5998-0.91079 7.5991-0.10263 8.9001-0.90586 0.72278-0.44625 5.2992-7.6287 4.4429-12.623-0.17287-1.0083-3.2951-2.8501-3.7576-4.8398-0.59851-2.5746 1.9172-20.641 1.1919-23.412-5.7359-21.911-22.768-23.215-26.937-23.199-0.59549 0.0024-0.92805 0.03217-0.92805 0.03217s-0.33256-0.02983-0.92804-0.03217zm-14.36 36.674c7.7667 0.05343 8.9356 1.1513 9.7838 2.6611 2.4885 4.4291 2.1458 8.587 1.8184 10.247-0.51966 2.635-9.23 8.8159-11.323 8.9533-1.3574 0.08917-8.2255-1.3267-8.4223-10.907-0.19676-9.5803 6.3469-10.967 8.1428-10.955zm32.655 2.2074s6.2601-0.83301 6.0634 8.7473c-0.19675 9.5803-7.0648 10.996-8.4223 10.907-2.0928-0.13742-10.803-6.3183-11.323-8.9533-0.27726-1.4059-0.35557-2.1527-0.09148-4.0081 4.488-2.445 9.1769-4.4643 13.773-6.6929zm-17.367 13.916s0.22839 0.0031 0.57878 0.14302c0.3504 0.14013 0.82267 0.41696 1.3106 0.96352 0.39525 0.4428 0.66575 1.1038 1.0278 2.0069 0.36209 0.9031 0.81628 2.049 1.58 3.4616 0.47794 0.88402 0.99869 1.4599 1.4059 2.1455 0.20362 0.34279 0.37864 0.71223 0.50559 1.162 0.12696 0.44978 0.20639 0.97982 0.21733 1.641 0.0084 0.50372-0.02871 0.94701-0.10091 1.3372-0.0722 0.39016-0.18017 0.7267-0.31268 1.0178-0.26501 0.5823-0.62966 0.98169-1.0145 1.2551-0.38486 0.27347-0.7892 0.4213-1.1321 0.50228-0.34286 0.0809-0.62495 0.095-0.76394 0.0998-0.38363 0.0133-0.78161-0.11383-1.1631-0.31157-0.38151-0.19774-0.74646-0.46594-1.0633-0.73623-0.63371-0.54054-1.0755-1.0877-1.0755-1.0877s-0.4418 0.54716-1.0755 1.0877c-0.31686 0.27029-0.68181 0.5385-1.0633 0.73623-0.3815 0.19774-0.77947 0.32482-1.1631 0.31157-0.13899-5e-3 -0.42108-0.0189-0.76394-0.0998-0.34285-0.081-0.74719-0.22881-1.1321-0.50228-0.38486-0.27345-0.74952-0.67284-1.0145-1.2551-0.13251-0.29115-0.24048-0.62769-0.31268-1.0178-0.0722-0.39018-0.10926-0.83346-0.10091-1.3372 0.01091-0.66118 0.09038-1.1912 0.21733-1.641 0.12695-0.44977 0.30198-0.8192 0.5056-1.162 0.40722-0.68556 0.92798-1.2615 1.4059-2.1455 0.76373-1.4126 1.2179-2.5585 1.58-3.4616 0.36209-0.90309 0.63258-1.5641 1.0278-2.0069 0.4879-0.54657 0.96017-0.8234 1.3106-0.96352 0.3504-0.14013 0.57878-0.14302 0.57878-0.14302z" fill="#a35c2f"/>
  <g transform="matrix(.91077 0 0 .91077 4.5515 12.536)" fill="#2d1a0d">
   <path d="m88.816 67.779c-0.18752 0.0045-0.29456 0.0186-0.29456 0.0186-5.0466 2.4469-10.195 4.6638-15.123 7.3484-0.28996 2.0372-0.20417 2.8571 0.10025 4.4008 0.57056 2.8932 10.134 9.6795 12.432 9.8304 1.4904 0.09787 9.031-1.4566 9.247-11.975 0.18902-9.204-5.0497-9.6539-6.3624-9.6227z" opacity=".999"/>
   <path transform="scale(.26458)" d="m262.5 313.99s-0.9463 0.0122-2.4004 0.59375c-1.4541 0.5815-3.4148 1.7299-5.4395 3.998-1.6402 1.8375-2.763 4.5805-4.2656 8.3281-1.5026 3.7477-3.3873 8.5032-6.5566 14.365-1.9834 3.6685-4.1441 6.0594-5.834 8.9043-0.84495 1.4225-1.5708 2.9539-2.0976 4.8203-0.52683 1.8665-0.85707 4.0668-0.90235 6.8106-0.0346 2.0903 0.11837 3.9296 0.41797 5.5488 0.29958 1.6191 0.74893 3.0164 1.2988 4.2246 1.0997 2.4164 2.6119 4.0742 4.209 5.209 1.5971 1.1348 3.2764 1.748 4.6992 2.084 1.4228 0.33585 2.5932 0.39516 3.1699 0.41406 1.592 0.055 3.243-0.4724 4.8262-1.293 1.5832-0.82054 3.0972-1.933 4.4121-3.0547 2.6298-2.2431 4.4629-4.5137 4.4629-4.5137s1.8351 2.2706 4.4648 4.5137c1.3149 1.1217 2.8289 2.2341 4.4121 3.0547 1.5831 0.82057 3.2342 1.3482 4.8262 1.293 0.57678-0.0197 1.7471-0.0784 3.1699-0.41406 1.4228-0.33608 3.1002-0.94914 4.6973-2.084 1.5971-1.1348 3.1112-2.7926 4.2109-5.209 0.54988-1.2082 0.99727-2.6055 1.2969-4.2246 0.29962-1.6191 0.4547-3.4585 0.41992-5.5488-0.0454-2.7438-0.37548-4.9441-0.90234-6.8106-0.52683-1.8664-1.2527-3.3978-2.0977-4.8203-1.6899-2.845-3.8506-5.2358-5.834-8.9043-3.1693-5.862-5.054-10.618-6.5566-14.365-1.5026-3.7476-2.6254-6.4906-4.2656-8.3281-2.0247-2.2682-3.9854-3.4165-5.4394-3.998-1.4541-0.58067-2.4023-0.59375-2.4023-0.59375z" opacity=".999"/>
   <path d="m95.724 39.884c-0.92524 0.91726-19.519 19.351-28.877 28.65-0.68843 0.68412-2.5329 1.3627-2.6262 1.3968-0.23414-0.53923-0.50156-1.0857-0.8108-1.6361-0.93133-1.6576-2.215-2.8631-10.742-2.9218-1.6766-0.01162-7.119 1.091-8.5793 7.8863l-3.9109-0.9188c0.04184 0.72115 0.07249 1.3857 0.08372 1.9523l3.5486 0.81029 0.0021-0.01291c-0.06829 0.71907-0.10172 1.4839-0.08475 2.3105 0.21604 10.519 7.7571 12.073 9.2475 11.975 2.2978-0.1509 11.862-6.9372 12.432-9.8304 0.27747-1.407 0.55826-4.4498-0.58136-8l0.07131 0.17932s2.2315-1.0687 3.0965-1.9218c8.571-8.4536 27.868-27.498 28.644-28.264-0.29598-0.5713-0.60067-1.1227-0.91312-1.6552z" opacity=".999"/>
  </g>
  <g transform="matrix(.91077 0 0 .91077 75.505 78.351)" fill="#fff">
   <path transform="scale(.26458)" d="m23.789 0a24 24 0 0 0-23.789 24 24 24 0 0 0 24 24 24 24 0 0 0 24-24 24 24 0 0 0-24-24 24 24 0 0 0-0.21094 0zm0.21094 10a14 14 0 0 1 14 14 14 14 0 0 1-14 14 14 14 0 0 1-14-14 14 14 0 0 1 14-14z" opacity=".999"/>
   <circle cx="6.35" cy="6.35" r="2.5135" opacity=".999"/>
  </g>
  <path d="m56.731 106.5c-0.50533-7.9e-4 -0.72837 0.33881-0.72347 0.59066l0.06097 6.1065c0.38942 0.38374 0.50649 0.52545 0.9461 0.83758l0.5608-6.7317c-0.019-0.25926-0.33906-0.80235-0.84439-0.80305zm22.126 0c-0.50533 7.9e-4 -0.82541 0.54379-0.84439 0.80305l0.64175 6.6753c0.43871-0.30966 0.47325-0.37383 0.86251-0.7544-0.0127-0.71412 0.06361-6.1333 0.06361-6.1333-0.01323-0.23537-0.21814-0.59136-0.72347-0.59066zm-16.995 2.2665c-0.49687 7e-3 -0.69433 0.34852-0.69143 0.52916l0.31988 6.8993c0.23246 0.0695 0.46351 0.13408 0.69246 0.19327l0.39274-6.9298c0.01228-0.33581-0.21678-0.69894-0.71365-0.69194zm11.782 0c-0.49687-7e-3 -0.72594 0.35613-0.71365 0.69194l0.39429 6.9588c0.22769-0.0575 0.45787-0.12152 0.68936-0.18913l0.32194-6.9324c0.0029-0.18064-0.19508-0.52215-0.69195-0.52916zm-5.9242 1.1514c-0.27776-5e-3 -0.64217 0.14106-0.65371 0.51728l0.40773 6.6595c0.18541 1e-3 0.33383-5.3e-4 0.33383-5.3e-4s0.14141 4e-3 0.39532 5.3e-4l0.20774-6.5913c0.024-0.29415-0.38907-0.58049-0.69091-0.58549z" fill="#2d1a0d"/>
  <path d="m63.527 35.634c-0.05861 0.2501-5.8056 11.628-5.4273 11.628s13.179 0.19288 13.179 0.19288l-3.9019 11.336 8.1282-13.373s-10.294-2.1168-10.062-2.5122c0.23157-0.39543 4.0474-7.4906 4.0474-7.4906-1.2871-0.01793-4.1128-0.09699-5.9638 0.21996z" fill="#2d1a0d"/>
 </g>
 <g transform="translate(-.00010124 -6.3447)">
  <path d="m50.385 121.11c1.3192 0.51533 6.8632 1.368 6.8632 1.368l0.17304-4.9596s5.5014 1.6932 10.593 1.696c5.0913 3e-3 9.9343-1.6079 9.9343-1.6079l1.0079 13.067s-4.6872 3.6207-10.289 3.6328c-16.55 0.0357-18.282-13.197-18.282-13.197z" fill="#a35c2f"/>
  <g fill="#2d1a0d">
   <path d="m61.499 118.51-0.33824 6.6928c0.01752 0.34981 0.43863 0.53747 0.73574 0.54312 0.27385 5e-3 0.65844-0.14396 0.67544-0.47675l-0.25553-6.6071"/>
   <path d="m74.121 118.57 0.33042 6.6272c-0.01752 0.34981-0.43863 0.53747-0.73574 0.54312-0.27385 5e-3 -0.65844-0.14396-0.67544-0.47675l0.26568-6.5421"/>
   <path d="m67.577 119.21-0.27977 6.8459c-0.0028 0.19891 0.49138 0.35833 0.76472 0.35038 0.30124-9e-3 0.79856-0.14742 0.81217-0.42999l-0.44462-6.7652"/>
  </g>
 </g>
</svg>
