<?xml version="1.0" encoding="UTF-8"?>
<svg width="512" height="512" version="1.1" viewBox="0 0 135.47 135.47" xmlns="http://www.w3.org/2000/svg" xmlns:cc="http://creativecommons.org/ns#" xmlns:dc="http://purl.org/dc/elements/1.1/" xmlns:rdf="http://www.w3.org/1999/02/22-rdf-syntax-ns#">
 <metadata>
  <rdf:RDF>
   <cc:Work rdf:about="">
    <dc:format>image/svg+xml</dc:format>
    <dc:type rdf:resource="http://purl.org/dc/dcmitype/StillImage"/>
    <dc:title/>
   </cc:Work>
  </rdf:RDF>
 </metadata>
 <path d="m34.63 55.169s-1.7787-11.013-3.8028-16.165c-2.799-7.1247-11.363-19.956-11.363-19.956s16.991 8.907 20.575 13.467c3.7528 4.7753 9.8287 23.847 10.582 24.195 0.75359 0.34841 3.3682 0.39917 3.3682 0.39917s10.278-16.344 14.641-20.236c5.7052-5.0893 41.519-20.079 43.926-19.938 1.8031 0.10518 3.4203 2.3745 3.4474 4.1805 0.0414 2.7637-24.132 29.685-24.132 29.685s0.3113 2.852-0.3021 3.8487c-0.61339 0.99664-5.5936 4.0078-5.5936 4.0078s0.27379 3.2861-0.55539 4.5116c-0.82917 1.2255-4.9128 2.6522-4.9128 2.6522s-0.61846 4.1047-1.177 4.6239c-0.55856 0.51924-4.736 1.8776-4.736 1.8776s-0.6089 2.5001-1.4379 3.4162c-2.2029 2.4343-8.6524 4.7057-8.6524 4.7057l29.122 29.765s-1.7983 6.2453-2.2988 6.6664c-0.32698 0.27515-8.9469 1.5059-8.9469 1.5059s-3.2528-5.5178-4.2841-5.1687c-0.93003 0.31479-0.78315 3.9578-0.78315 3.9578s-0.51706 0.95847-1.5766 1.2758c-0.65935 0.19748-7.2011 0-7.2011 0s-10.07-6.8631-10.95-8.3691c-0.36397-0.62277-2.1108-16.38-2.1108-16.38s-16.431-2.3332-21.856-7.8569c-6.5444-6.6644-5.8294-17.017-5.8294-17.017l-4.0613 2.6701-1.453-11.699s0.55568-4.8115 4.5639-5.9838c3.1366-0.91738 7.7906 1.3594 7.7906 1.3594z" fill="#2d9eb3"/>
</svg>
