<?xml version="1.0" encoding="UTF-8"?>
<svg width="512" height="512" version="1.1" viewBox="0 0 135.47 135.47" xmlns="http://www.w3.org/2000/svg" xmlns:cc="http://creativecommons.org/ns#" xmlns:dc="http://purl.org/dc/elements/1.1/" xmlns:rdf="http://www.w3.org/1999/02/22-rdf-syntax-ns#">
 <metadata>
  <rdf:RDF>
   <cc:Work rdf:about="">
    <dc:format>image/svg+xml</dc:format>
    <dc:type rdf:resource="http://purl.org/dc/dcmitype/StillImage"/>
    <dc:title/>
   </cc:Work>
  </rdf:RDF>
 </metadata>
 <g transform="matrix(1.1034 0 0 1.1034 -7.0068 -7.0068)" fill="#fff">
  <g transform="matrix(.66667 0 0 .66667 22.578 29.986)">
   <path transform="scale(.26458)" d="m256 0a192 192 0 0 0-192 192 192 192 0 0 0 64 143.11v62.893c0 16.62 13.38 30 30 30h35v-71.02c0-13.839 8.92-24.98 20-24.98s20 11.141 20 24.98v71.02h45v-71.02c0-13.839 8.92-24.98 20-24.98s20 11.141 20 24.98v71.02h36c16.62 0 30-13.38 30-30v-62.893a192 192 0 0 0 64-143.11 192 192 0 0 0-192-192zm-78.053 100a50 50 0 0 1 0.0527 0 50 50 0 0 1 50 50 50 50 0 0 1-50 50 50 50 0 0 1-50-50 50 50 0 0 1 49.947-50zm156 0a50 50 0 0 1 0.0527 0 50 50 0 0 1 50 50 50 50 0 0 1-50 50 50 50 0 0 1-50-50 50 50 0 0 1 49.947-50z" opacity=".999" stroke-linejoin="round" stroke-width="21.914"/>
   <circle cx="47.096" cy="39.688" r="5.2917" opacity=".999"/>
   <circle cx="88.371" cy="39.688" r="5.2917" opacity=".999"/>
  </g>
  <path transform="scale(.26458)" d="m109.32 24c-10.536-0.03552-21.085 3.9327-29.172 11.912-0.06576 0.06522-0.13196 0.12965-0.19727 0.19531-8.3891 8.3895-12.769 19.979-12.025 31.82-11.841-0.74347-23.431 3.6363-31.82 12.025-16.144 16.144-16.144 42.317 0 58.461 13.329 13.328 33.987 15.952 50.225 6.3789l34.969 34.969c11.716-25.747 30.543-47.597 53.938-62.984l-30.443-30.443c9.5738-16.238 6.949-36.898-6.3809-50.227-8.0334-8.0337-18.556-12.072-29.092-12.107z" opacity=".999"/>
  <path transform="scale(.26458)" d="m402.68 24c-10.536 0.03552-21.058 4.0737-29.092 12.107-13.33 13.329-15.955 33.988-6.3809 50.227l-30.447 30.447c23.395 15.388 42.225 37.234 53.941 62.98l34.969-34.969c16.238 9.5732 36.895 6.9491 50.225-6.3789 16.143-16.144 16.143-42.317 0-58.461-8.3895-8.3891-19.979-12.769-31.82-12.025 0.74347-11.841-3.6363-23.431-12.025-31.82-0.0654-0.06566-0.13151-0.13009-0.19727-0.19531-8.0874-7.9794-18.636-11.948-29.172-11.912z" opacity=".999"/>
  <path transform="scale(.26458)" d="m379.91 321.45c-5.3928 8.2721-11.605 16.059-18.572 23.229v34.643c0 11.019-4.6286 21.136-12.025 28.453l17.895 17.895c-9.5738 16.239-6.949 36.898 6.3809 50.227 16.067 16.068 42.089 16.154 58.264 0.19531 0.0654-0.0651 0.1322-0.12987 0.19727-0.19531 8.3891-8.3895 12.769-19.979 12.025-31.82 11.841 0.74347 23.431-3.6364 31.82-12.025 16.143-16.144 16.143-42.317 0-58.461-13.329-13.328-33.987-15.952-50.225-6.3789z" opacity=".999"/>
  <path transform="scale(.26458)" d="m132.09 321.45-45.76 45.76c-16.237-9.5732-36.895-6.9491-50.225 6.3789-16.143 16.143-16.143 42.317 0 58.461 8.3895 8.389 19.979 12.769 31.82 12.025-0.74347 11.841 3.6363 23.431 12.025 31.82 0.06506 0.0654 0.13183 0.13025 0.19727 0.19531 16.175 15.959 42.197 15.872 58.264-0.19531 13.33-13.329 15.955-33.988 6.3809-50.227l17.895-17.895c-7.3968-7.3174-12.025-17.434-12.025-28.453v-34.643c-6.9674-7.1692-13.179-14.956-18.572-23.229z" opacity=".999"/>
 </g>
</svg>
