<?xml version="1.0" encoding="UTF-8"?>
<svg width="512" height="512" version="1.1" viewBox="0 0 135.47 135.47" xmlns="http://www.w3.org/2000/svg" xmlns:cc="http://creativecommons.org/ns#" xmlns:dc="http://purl.org/dc/elements/1.1/" xmlns:rdf="http://www.w3.org/1999/02/22-rdf-syntax-ns#">
 <metadata>
  <rdf:RDF>
   <cc:Work rdf:about="">
    <dc:format>image/svg+xml</dc:format>
    <dc:type rdf:resource="http://purl.org/dc/dcmitype/StillImage"/>
    <dc:title/>
   </cc:Work>
  </rdf:RDF>
 </metadata>
 <g>
  <circle cx="67.733" cy="67.733" r="67.733" fill="#8b0000" opacity=".999" stroke-linecap="round" stroke-width="1.7448" style="paint-order:stroke fill markers"/>
  <text fill="black" font-family="sans-serif" font-size="10.583px" letter-spacing="0px" word-spacing="0px" style="line-height:1.25;shape-inside:url(#rect1487);white-space:pre" xml:space="preserve"/>
  <g transform="matrix(2.1581 0 0 2.1581 -28.31 -61.885)" fill="#fff" style="shape-inside:url(#rect1544);white-space:pre" aria-label="C">
   <path d="m33.86 62.448v-4.7752q0-6.35 1.016-8.128t4.318-4.826q3.3528-3.048 4.9784-3.048 2.794 0 6.4008 3.2512 3.6068 3.2004 4.572 7.0612l-5.6388 3.9116q-0.8128-2.7432-2.5908-5.0292-1.778-2.3368-2.4892-2.3368-1.27 0-2.8956 2.4892-0.6604 0.9652-0.6604 6.6548v4.7752q0 5.842 0.6604 6.6548 1.6256 2.4892 2.8956 2.4892 0.7112 0 2.4892-1.9812 1.778-2.032 2.5908-4.4704l5.6388 3.9624q-0.9652 3.5052-4.572 6.4516-3.6068 2.8956-6.4008 2.8956-1.6256 0-4.9784-3.048-3.302-3.048-4.318-4.826t-1.016-8.128z" fill="#fff"/>
  </g>
 </g>
</svg>
