<?xml version="1.0" encoding="UTF-8"?>
<svg width="512" height="512" version="1.1" viewBox="0 0 135.47 135.47" xmlns="http://www.w3.org/2000/svg" xmlns:cc="http://creativecommons.org/ns#" xmlns:dc="http://purl.org/dc/elements/1.1/" xmlns:rdf="http://www.w3.org/1999/02/22-rdf-syntax-ns#">
 <metadata>
  <rdf:RDF>
   <cc:Work rdf:about="">
    <dc:format>image/svg+xml</dc:format>
    <dc:type rdf:resource="http://purl.org/dc/dcmitype/StillImage"/>
    <dc:title/>
   </cc:Work>
  </rdf:RDF>
 </metadata>
 <g fill="#ff4500" stroke-linejoin="round">
  <path d="m91.871 63.265-15.517 34.19-0.32846 20.298s-6.8543 4.0474-11.307 2.8694c-6.6374-1.7559-8.6517-13.842-9.0681-20.006-0.4682-6.93 2.434-16.007 2.434-16.007s-34.26-0.37925-47.253-0.62899c-2.4624-0.04732-7.8792-1.6007-8.0863-7.9358-0.23772-7.2736 7.9999-8.3862 7.9999-8.3862s-6.0635-4.4138-6.0369-9.0638c0.048567-8.5067 9.0002-8.9076 9.0002-8.9076s-7.1518-2.4269-7.1154-9.1325c0.041939-7.722 9.1353-8.5778 9.1353-8.5778s-4.7718-2.0354-4.6009-9.4792c0.15945-6.9428 8.1789-7.4238 8.1789-7.4238s55.617-1.1906 59.255 0.1967c10.829 4.1294 13.481 9.847 13.481 9.847z" stroke="#000" stroke-width="5.4797" style="paint-order:normal"/>
  <path d="m126.09 74.141h-27.228c-3.6774 0-6.6378-2.9605-6.6378-6.6378v-44.999c0-3.6773 2.9605-6.6378 6.6378-6.6378h27.228c3.6774 0 6.6378 2.9605 6.6378 6.6378v44.999c0 3.6774-2.9605 6.6378-6.6378 6.6378z" opacity=".999" stroke="#000002" stroke-width="5.4797" style="paint-order:normal"/>
 </g>
</svg>
